<svg width="2040" height="1446" viewBox="0 0 2040 1446" fill="none" xmlns="http://www.w3.org/2000/svg">
<path d="M1275.5 723C1275.5 860.085 1161.18 971.333 1020 971.333C878.824 971.333 764.5 860.085 764.5 723C764.5 585.915 878.824 474.667 1020 474.667C1161.18 474.667 1275.5 585.915 1275.5 723Z" stroke="url(#paint0_linear_501_13)" stroke-width="5" stroke-linecap="round" stroke-linejoin="round"/>
<path d="M1012.5 504.5L1020 512M1020 512L1027.5 504.5M1020 512V492M1042.5 502C1042.5 514.427 1032.43 524.5 1020 524.5C1007.57 524.5 997.5 514.427 997.5 502C997.5 489.574 1007.57 479.5 1020 479.5C1032.43 479.5 1042.5 489.574 1042.5 502Z" stroke="black" stroke-width="5" stroke-linecap="round" stroke-linejoin="round"/>
<path d="M1241 715L1233.5 722.5M1233.5 722.5L1241 730M1233.5 722.5H1253.5M1266 722.5C1266 734.927 1255.93 745 1243.5 745C1231.07 745 1221 734.927 1221 722.5C1221 710.074 1231.07 700 1243.5 700C1255.93 700 1266 710.074 1266 722.5Z" stroke="black" stroke-width="5" stroke-linecap="round" stroke-linejoin="round"/>
<g clip-path="url(#clip0_501_13)">
<path d="M798 730.5L805.5 722.875M805.5 722.875L798 715.25M805.5 722.875H785.5M818 722.875C818 735.509 807.927 745.75 795.5 745.75C783.074 745.75 773 735.509 773 722.875C773 710.241 783.074 700 795.5 700C807.927 700 818 710.241 818 722.875Z" stroke="black" stroke-width="5" stroke-linecap="round" stroke-linejoin="round"/>
</g>
<rect x="924" y="690" width="59" height="59" rx="15" fill="#21326F"/>
<path d="M937.528 704.909H945.114L953.125 724.455H953.466L961.477 704.909H969.062V734H963.097V715.065H962.855L955.327 733.858H951.264L943.736 714.994H943.494V734H937.528V704.909Z" fill="#FFFDFD"/>
<path d="M995.4 711.92C997.267 711.92 998.867 712.32 1000.2 713.12C1001.56 713.893 1002.61 715.013 1003.36 716.48C1004.11 717.92 1004.48 719.68 1004.48 721.76V724.32H991.2C991.253 726.293 991.733 727.827 992.64 728.92C993.573 729.987 994.88 730.52 996.56 730.52C997.893 730.52 999.08 730.387 1000.12 730.12C1001.16 729.827 1002.24 729.413 1003.36 728.88V732.92C1002.35 733.427 1001.29 733.8 1000.2 734.04C999.107 734.28 997.76 734.4 996.16 734.4C994.133 734.4 992.333 734 990.76 733.2C989.213 732.373 988 731.133 987.12 729.48C986.24 727.827 985.8 725.773 985.8 723.32C985.8 720.84 986.2 718.76 987 717.08C987.8 715.373 988.92 714.093 990.36 713.24C991.827 712.36 993.507 711.92 995.4 711.92ZM995.48 715.64C994.28 715.64 993.307 716.08 992.56 716.96C991.84 717.813 991.413 719.093 991.28 720.8H999.44C999.44 719.787 999.293 718.893 999 718.12C998.707 717.347 998.267 716.747 997.68 716.32C997.12 715.867 996.387 715.64 995.48 715.64ZM1015.75 734.4C1013.43 734.4 1011.55 733.467 1010.11 731.6C1008.67 729.707 1007.95 726.907 1007.95 723.2C1007.95 719.493 1008.68 716.693 1010.15 714.8C1011.62 712.88 1013.54 711.92 1015.91 711.92C1016.9 711.92 1017.75 712.067 1018.47 712.36C1019.22 712.627 1019.86 713 1020.39 713.48C1020.92 713.96 1021.39 714.493 1021.79 715.08H1021.95C1021.9 714.707 1021.83 714.133 1021.75 713.36C1021.67 712.587 1021.63 711.867 1021.63 711.2V703.6H1026.95V734H1022.87L1021.87 731.16H1021.63C1021.28 731.747 1020.84 732.293 1020.31 732.8C1019.78 733.28 1019.14 733.667 1018.39 733.96C1017.64 734.253 1016.76 734.4 1015.75 734.4ZM1017.51 730.32C1019.14 730.32 1020.28 729.787 1020.95 728.72C1021.62 727.653 1021.95 726.04 1021.95 723.88V723.24C1021.95 720.893 1021.63 719.107 1020.99 717.88C1020.35 716.653 1019.18 716.04 1017.47 716.04C1016.14 716.04 1015.11 716.68 1014.39 717.96C1013.7 719.213 1013.35 720.987 1013.35 723.28C1013.35 725.573 1013.71 727.32 1014.43 728.52C1015.15 729.72 1016.18 730.32 1017.51 730.32ZM1046.98 727.72C1046.98 729.16 1046.66 730.387 1046.02 731.4C1045.38 732.387 1044.43 733.133 1043.18 733.64C1041.93 734.147 1040.35 734.4 1038.46 734.4C1037.02 734.4 1035.77 734.293 1034.7 734.08C1033.63 733.867 1032.61 733.533 1031.62 733.08V728.8C1032.69 729.307 1033.83 729.733 1035.06 730.08C1036.31 730.427 1037.45 730.6 1038.46 730.6C1039.66 730.6 1040.53 730.387 1041.06 729.96C1041.59 729.533 1041.86 728.96 1041.86 728.24C1041.86 727.813 1041.74 727.427 1041.5 727.08C1041.29 726.733 1040.83 726.373 1040.14 726C1039.47 725.6 1038.5 725.107 1037.22 724.52C1035.97 723.96 1034.93 723.4 1034.1 722.84C1033.27 722.28 1032.65 721.613 1032.22 720.84C1031.79 720.04 1031.58 719.04 1031.58 717.84C1031.58 715.893 1032.31 714.427 1033.78 713.44C1035.27 712.427 1037.22 711.92 1039.62 711.92C1040.93 711.92 1042.14 712.053 1043.26 712.32C1044.41 712.56 1045.55 712.96 1046.7 713.52L1045.14 717.24C1044.5 716.947 1043.85 716.693 1043.18 716.48C1042.54 716.24 1041.91 716.053 1041.3 715.92C1040.71 715.787 1040.13 715.72 1039.54 715.72C1038.61 715.72 1037.9 715.893 1037.42 716.24C1036.94 716.56 1036.7 717.027 1036.7 717.64C1036.7 718.067 1036.82 718.453 1037.06 718.8C1037.3 719.12 1037.75 719.453 1038.42 719.8C1039.09 720.147 1040.03 720.587 1041.26 721.12C1042.49 721.6 1043.53 722.12 1044.38 722.68C1045.23 723.213 1045.87 723.88 1046.3 724.68C1046.75 725.48 1046.98 726.493 1046.98 727.72ZM1065.65 722.24C1065.54 721.76 1065.44 721.28 1065.33 720.8C1065.22 720.293 1065.12 719.8 1065.01 719.32C1064.9 718.84 1064.81 718.387 1064.73 717.96C1064.65 717.533 1064.58 717.133 1064.53 716.76H1064.41C1064.38 717.133 1064.33 717.547 1064.25 718C1064.17 718.427 1064.08 718.88 1063.97 719.36C1063.89 719.84 1063.78 720.333 1063.65 720.84C1063.54 721.347 1063.44 721.853 1063.33 722.36L1060.41 734H1054.29L1048.93 712.28H1054.17L1056.53 723.56C1056.66 724.28 1056.8 725 1056.93 725.72C1057.06 726.44 1057.18 727.133 1057.29 727.8C1057.4 728.44 1057.48 729.013 1057.53 729.52H1057.69C1057.74 729.173 1057.81 728.747 1057.89 728.24C1057.97 727.707 1058.06 727.173 1058.17 726.64C1058.28 726.08 1058.37 725.56 1058.45 725.08C1058.56 724.6 1058.65 724.213 1058.73 723.92L1061.61 712.28H1067.41L1070.21 723.92C1070.32 724.373 1070.44 724.947 1070.57 725.64C1070.7 726.307 1070.82 726.987 1070.93 727.68C1071.06 728.373 1071.14 728.973 1071.17 729.48H1071.29C1071.34 729 1071.42 728.44 1071.53 727.8C1071.64 727.16 1071.76 726.48 1071.89 725.76C1072.05 725.013 1072.21 724.28 1072.37 723.56L1074.89 712.28H1080.01L1074.53 734H1068.37L1065.65 722.24ZM1091.97 711.92C1094.58 711.92 1096.58 712.533 1097.97 713.76C1099.35 714.96 1100.05 716.853 1100.05 719.44V734H1096.33L1095.29 731H1095.13C1094.54 731.773 1093.94 732.427 1093.33 732.96C1092.71 733.467 1092.01 733.827 1091.21 734.04C1090.41 734.28 1089.45 734.4 1088.33 734.4C1087.13 734.4 1086.05 734.16 1085.09 733.68C1084.13 733.2 1083.37 732.467 1082.81 731.48C1082.25 730.467 1081.97 729.2 1081.97 727.68C1081.97 725.44 1082.74 723.76 1084.29 722.64C1085.83 721.493 1088.15 720.867 1091.25 720.76L1094.73 720.64V719.56C1094.73 718.173 1094.43 717.187 1093.85 716.6C1093.26 716.013 1092.46 715.72 1091.45 715.72C1090.49 715.72 1089.51 715.88 1088.53 716.2C1087.57 716.52 1086.62 716.893 1085.69 717.32L1084.05 713.8C1085.14 713.24 1086.35 712.787 1087.69 712.44C1089.02 712.093 1090.45 711.92 1091.97 711.92ZM1092.49 723.84C1090.59 723.92 1089.27 724.307 1088.53 725C1087.78 725.667 1087.41 726.573 1087.41 727.72C1087.41 728.733 1087.66 729.467 1088.17 729.92C1088.7 730.373 1089.39 730.6 1090.25 730.6C1091.5 730.6 1092.57 730.187 1093.45 729.36C1094.33 728.507 1094.77 727.253 1094.77 725.6V723.76L1092.49 723.84ZM1102.79 712.32H1108.47L1112.35 724.56C1112.54 725.067 1112.68 725.573 1112.79 726.08C1112.92 726.587 1113.03 727.093 1113.11 727.6C1113.22 728.107 1113.3 728.613 1113.35 729.12H1113.47C1113.58 728.453 1113.71 727.72 1113.87 726.92C1114.06 726.12 1114.27 725.333 1114.51 724.56L1118.31 712.32H1123.91L1115.31 736.84C1114.8 738.28 1114.16 739.507 1113.39 740.52C1112.64 741.533 1111.72 742.293 1110.63 742.8C1109.56 743.333 1108.28 743.6 1106.79 743.6C1106.18 743.6 1105.63 743.56 1105.15 743.48C1104.7 743.427 1104.3 743.36 1103.95 743.28V739.28C1104.22 739.333 1104.55 739.387 1104.95 739.44C1105.35 739.493 1105.76 739.52 1106.19 739.52C1106.96 739.52 1107.62 739.347 1108.15 739C1108.71 738.68 1109.18 738.227 1109.55 737.64C1109.92 737.08 1110.2 736.427 1110.39 735.68L1110.95 733.92L1102.79 712.32Z" fill="black"/>
<rect x="617.5" y="521.5" width="206" height="47" rx="23.5" fill="white" stroke="#542CF2" stroke-width="3"/>
<rect x="1217.5" y="521.5" width="206" height="47" rx="23.5" fill="white" stroke="#542CF2" stroke-width="3"/>
<rect x="1234.5" y="855.5" width="206" height="47" rx="23.5" fill="white" stroke="#542CF2" stroke-width="3"/>
<g clip-path="url(#clip1_501_13)">
<path d="M638.531 748.976H614.469V747.649H625.881V739.757H604.156C601.92 739.757 600.1 737.805 600.1 735.406V704.062C600.1 701.664 601.92 699.711 604.156 699.711H639.994C640.53 698.616 641.599 697.867 642.828 697.867C644.59 697.867 646.025 699.405 646.025 701.297C646.025 703.189 644.59 704.726 642.828 704.726C642.17 704.726 641.558 704.512 641.049 704.145L630.015 715.982C630.357 716.528 630.556 717.184 630.556 717.891C630.556 719.78 629.121 721.32 627.359 721.32C625.598 721.32 624.162 719.782 624.162 717.891C624.162 717.184 624.362 716.528 624.704 715.982L622.263 713.364C621.246 714.098 619.721 714.098 618.705 713.364L612.827 719.67C613.169 720.216 613.369 720.872 613.369 721.578C613.369 723.468 611.935 725.007 610.172 725.007C608.408 725.007 606.975 723.468 606.975 721.578C606.975 719.688 608.408 718.149 610.172 718.149C610.83 718.149 611.442 718.363 611.951 718.73L617.829 712.424C617.487 711.878 617.287 711.222 617.287 710.516C617.287 708.626 618.721 707.086 620.484 707.086C622.248 707.086 623.681 708.624 623.681 710.516C623.681 711.222 623.482 711.878 623.14 712.424L625.58 715.042C626.598 714.308 628.122 714.308 629.138 715.042L640.173 703.205C639.831 702.659 639.631 702.003 639.631 701.297C639.631 701.21 639.635 701.124 639.642 701.039H604.156C602.602 701.039 601.337 702.396 601.337 704.062V729.211H651.662V700.375H652.902V735.406C652.902 737.807 651.082 739.757 648.845 739.757H627.119V747.647H638.531V748.976ZM601.337 730.539V735.406C601.337 737.073 602.602 738.43 604.156 738.43H648.844C650.397 738.43 651.662 737.075 651.662 735.406V730.539H601.337ZM610.172 719.476C609.092 719.476 608.212 720.42 608.212 721.578C608.212 722.736 609.092 723.68 610.172 723.68C611.251 723.68 612.131 722.736 612.131 721.578C612.131 720.42 611.251 719.476 610.172 719.476ZM627.359 715.789C626.28 715.789 625.4 716.733 625.4 717.891C625.4 719.048 626.28 719.992 627.359 719.992C628.44 719.992 629.319 719.048 629.319 717.891C629.319 716.733 628.44 715.789 627.359 715.789ZM620.484 708.414C619.405 708.414 618.525 709.358 618.525 710.516C618.525 711.673 619.405 712.617 620.484 712.617C621.564 712.617 622.444 711.673 622.444 710.516C622.444 709.358 621.564 708.414 620.484 708.414ZM642.828 699.195C641.747 699.195 640.869 700.139 640.869 701.297C640.869 702.455 641.747 703.399 642.828 703.399C643.909 703.399 644.787 702.455 644.787 701.297C644.787 700.139 643.909 699.195 642.828 699.195Z" fill="#3D00BA"/>
</g>
<path d="M687.065 714.88C687.065 715.552 686.911 716.133 686.601 716.624C686.303 717.115 685.855 717.493 685.257 717.76C684.671 718.027 683.945 718.16 683.081 718.16C682.655 718.16 682.26 718.133 681.897 718.08C681.535 718.037 681.193 717.968 680.873 717.872C680.564 717.776 680.265 717.659 679.977 717.52V715.6C680.457 715.813 680.975 716.011 681.529 716.192C682.095 716.363 682.644 716.448 683.177 716.448C683.583 716.448 683.913 716.389 684.169 716.272C684.425 716.144 684.612 715.973 684.729 715.76C684.857 715.536 684.921 715.28 684.921 714.992C684.921 714.672 684.841 714.4 684.681 714.176C684.532 713.952 684.297 713.744 683.977 713.552C683.657 713.36 683.241 713.163 682.729 712.96C682.367 712.8 682.02 712.629 681.689 712.448C681.369 712.256 681.087 712.027 680.841 711.76C680.607 711.493 680.42 711.179 680.281 710.816C680.153 710.453 680.089 710.027 680.089 709.536C680.089 708.885 680.244 708.325 680.553 707.856C680.863 707.387 681.295 707.029 681.849 706.784C682.404 706.539 683.049 706.416 683.785 706.416C684.404 706.416 684.969 706.48 685.481 706.608C686.004 706.736 686.495 706.917 686.953 707.152L686.281 708.8C685.844 708.597 685.412 708.437 684.985 708.32C684.569 708.203 684.148 708.144 683.721 708.144C683.391 708.144 683.113 708.203 682.889 708.32C682.665 708.427 682.495 708.581 682.377 708.784C682.271 708.987 682.217 709.221 682.217 709.488C682.217 709.797 682.292 710.059 682.441 710.272C682.591 710.485 682.825 710.688 683.145 710.88C683.465 711.061 683.881 711.275 684.393 711.52C684.959 711.776 685.439 712.048 685.833 712.336C686.239 712.624 686.543 712.971 686.745 713.376C686.959 713.781 687.065 714.283 687.065 714.88ZM692.288 709.168C693.333 709.168 694.133 709.413 694.688 709.904C695.243 710.384 695.52 711.141 695.52 712.176V718H694.032L693.616 716.8H693.552C693.317 717.109 693.077 717.371 692.832 717.584C692.587 717.787 692.304 717.931 691.984 718.016C691.664 718.112 691.28 718.16 690.832 718.16C690.352 718.16 689.92 718.064 689.536 717.872C689.152 717.68 688.848 717.387 688.624 716.992C688.4 716.587 688.288 716.08 688.288 715.472C688.288 714.576 688.597 713.904 689.216 713.456C689.835 712.997 690.763 712.747 692 712.704L693.392 712.656V712.224C693.392 711.669 693.275 711.275 693.04 711.04C692.805 710.805 692.485 710.688 692.08 710.688C691.696 710.688 691.307 710.752 690.912 710.88C690.528 711.008 690.149 711.157 689.776 711.328L689.12 709.92C689.557 709.696 690.043 709.515 690.576 709.376C691.109 709.237 691.68 709.168 692.288 709.168ZM692.496 713.936C691.739 713.968 691.211 714.123 690.912 714.4C690.613 714.667 690.464 715.029 690.464 715.488C690.464 715.893 690.565 716.187 690.768 716.368C690.981 716.549 691.259 716.64 691.6 716.64C692.101 716.64 692.528 716.475 692.88 716.144C693.232 715.803 693.408 715.301 693.408 714.64V713.904L692.496 713.936ZM699.897 718H697.769V705.84H699.897V718ZM705.615 709.168C706.361 709.168 707.001 709.328 707.535 709.648C708.079 709.957 708.5 710.405 708.799 710.992C709.097 711.568 709.247 712.272 709.247 713.104V714.128H703.935C703.956 714.917 704.148 715.531 704.511 715.968C704.884 716.395 705.407 716.608 706.079 716.608C706.612 716.608 707.087 716.555 707.503 716.448C707.919 716.331 708.351 716.165 708.799 715.952V717.568C708.393 717.771 707.972 717.92 707.535 718.016C707.097 718.112 706.559 718.16 705.919 718.16C705.108 718.16 704.388 718 703.759 717.68C703.14 717.349 702.655 716.853 702.303 716.192C701.951 715.531 701.775 714.709 701.775 713.728C701.775 712.736 701.935 711.904 702.255 711.232C702.575 710.549 703.023 710.037 703.599 709.696C704.185 709.344 704.857 709.168 705.615 709.168ZM705.647 710.656C705.167 710.656 704.777 710.832 704.479 711.184C704.191 711.525 704.02 712.037 703.967 712.72H707.231C707.231 712.315 707.172 711.957 707.055 711.648C706.937 711.339 706.761 711.099 706.527 710.928C706.303 710.747 706.009 710.656 705.647 710.656ZM716.778 715.488C716.778 716.064 716.65 716.555 716.394 716.96C716.138 717.355 715.759 717.653 715.258 717.856C714.757 718.059 714.127 718.16 713.37 718.16C712.794 718.16 712.293 718.117 711.866 718.032C711.439 717.947 711.029 717.813 710.634 717.632V715.92C711.061 716.123 711.519 716.293 712.01 716.432C712.511 716.571 712.965 716.64 713.37 716.64C713.85 716.64 714.197 716.555 714.41 716.384C714.623 716.213 714.73 715.984 714.73 715.696C714.73 715.525 714.682 715.371 714.586 715.232C714.501 715.093 714.319 714.949 714.042 714.8C713.775 714.64 713.386 714.443 712.874 714.208C712.373 713.984 711.957 713.76 711.626 713.536C711.295 713.312 711.045 713.045 710.874 712.736C710.703 712.416 710.618 712.016 710.618 711.536C710.618 710.757 710.911 710.171 711.498 709.776C712.095 709.371 712.874 709.168 713.834 709.168C714.357 709.168 714.842 709.221 715.29 709.328C715.749 709.424 716.207 709.584 716.666 709.808L716.042 711.296C715.786 711.179 715.525 711.077 715.258 710.992C715.002 710.896 714.751 710.821 714.506 710.768C714.271 710.715 714.037 710.688 713.802 710.688C713.429 710.688 713.146 710.757 712.954 710.896C712.762 711.024 712.666 711.211 712.666 711.456C712.666 711.627 712.714 711.781 712.81 711.92C712.906 712.048 713.087 712.181 713.354 712.32C713.621 712.459 713.999 712.635 714.49 712.848C714.981 713.04 715.397 713.248 715.738 713.472C716.079 713.685 716.335 713.952 716.506 714.272C716.687 714.592 716.778 714.997 716.778 715.488ZM726.025 706.416C726.622 706.416 727.139 706.512 727.577 706.704C728.025 706.896 728.371 707.179 728.617 707.552C728.862 707.915 728.985 708.357 728.985 708.88C728.985 709.595 728.787 710.197 728.393 710.688C727.998 711.179 727.497 711.611 726.889 711.984L729.065 714.448C729.289 714.096 729.47 713.717 729.609 713.312C729.758 712.896 729.881 712.469 729.977 712.032H732.169C732.019 712.661 731.801 713.301 731.513 713.952C731.225 714.592 730.883 715.179 730.489 715.712L732.729 718H730.009L729.049 716.944C728.825 717.125 728.595 717.291 728.361 717.44C728.126 717.589 727.875 717.717 727.609 717.824C727.342 717.931 727.049 718.011 726.729 718.064C726.409 718.128 726.051 718.16 725.657 718.16C724.878 718.16 724.211 718.032 723.657 717.776C723.102 717.509 722.675 717.136 722.377 716.656C722.089 716.176 721.945 715.611 721.945 714.96C721.945 714.416 722.03 713.947 722.201 713.552C722.371 713.157 722.611 712.811 722.921 712.512C723.23 712.213 723.603 711.936 724.041 711.68C723.827 711.381 723.635 711.093 723.465 710.816C723.294 710.528 723.161 710.24 723.065 709.952C722.979 709.653 722.937 709.333 722.937 708.992C722.937 708.459 723.059 708 723.305 707.616C723.55 707.221 723.902 706.923 724.361 706.72C724.83 706.517 725.385 706.416 726.025 706.416ZM725.257 712.896C725.033 713.067 724.835 713.248 724.665 713.44C724.494 713.621 724.366 713.824 724.281 714.048C724.195 714.261 724.153 714.512 724.153 714.8C724.153 715.301 724.307 715.701 724.617 716C724.926 716.299 725.326 716.448 725.817 716.448C726.243 716.448 726.617 716.379 726.937 716.24C727.257 716.101 727.529 715.925 727.753 715.712L725.257 712.896ZM725.993 707.984C725.694 707.984 725.438 708.075 725.225 708.256C725.011 708.427 724.905 708.704 724.905 709.088C724.905 709.397 724.979 709.691 725.129 709.968C725.278 710.245 725.475 710.539 725.721 710.848C726.158 710.56 726.478 710.277 726.681 710C726.894 709.723 727.001 709.403 727.001 709.04C727.001 708.699 726.905 708.437 726.713 708.256C726.521 708.075 726.281 707.984 725.993 707.984ZM677.625 731.168C678.564 731.168 679.268 731.419 679.737 731.92C680.206 732.421 680.441 733.232 680.441 734.352V740H678.345V734.736C678.345 734.096 678.238 733.616 678.025 733.296C677.812 732.965 677.481 732.8 677.033 732.8C676.414 732.8 675.977 733.029 675.721 733.488C675.465 733.947 675.337 734.613 675.337 735.488V740H673.225V734.736C673.225 734.309 673.177 733.952 673.081 733.664C672.985 733.376 672.841 733.163 672.649 733.024C672.457 732.875 672.212 732.8 671.913 732.8C671.486 732.8 671.15 732.917 670.905 733.152C670.66 733.376 670.484 733.707 670.377 734.144C670.281 734.581 670.233 735.12 670.233 735.76V740H668.105V731.328H669.737L670.041 732.464H670.137C670.297 732.165 670.494 731.92 670.729 731.728C670.974 731.536 671.252 731.397 671.561 731.312C671.881 731.216 672.212 731.168 672.553 731.168C673.161 731.168 673.668 731.28 674.073 731.504C674.489 731.717 674.809 732.053 675.033 732.512H675.145C675.412 732.043 675.764 731.701 676.201 731.488C676.649 731.275 677.124 731.168 677.625 731.168ZM686.187 731.168C687.232 731.168 688.032 731.413 688.587 731.904C689.141 732.384 689.419 733.141 689.419 734.176V740H687.931L687.515 738.8H687.451C687.216 739.109 686.976 739.371 686.731 739.584C686.485 739.787 686.203 739.931 685.883 740.016C685.563 740.112 685.179 740.16 684.731 740.16C684.251 740.16 683.819 740.064 683.435 739.872C683.051 739.68 682.747 739.387 682.523 738.992C682.299 738.587 682.187 738.08 682.187 737.472C682.187 736.576 682.496 735.904 683.115 735.456C683.733 734.997 684.661 734.747 685.899 734.704L687.291 734.656V734.224C687.291 733.669 687.173 733.275 686.939 733.04C686.704 732.805 686.384 732.688 685.979 732.688C685.595 732.688 685.205 732.752 684.811 732.88C684.427 733.008 684.048 733.157 683.674 733.328L683.019 731.92C683.456 731.696 683.941 731.515 684.475 731.376C685.008 731.237 685.579 731.168 686.187 731.168ZM686.395 735.936C685.637 735.968 685.109 736.123 684.811 736.4C684.512 736.667 684.363 737.029 684.363 737.488C684.363 737.893 684.464 738.187 684.667 738.368C684.88 738.549 685.157 738.64 685.499 738.64C686 738.64 686.427 738.475 686.779 738.144C687.131 737.803 687.307 737.301 687.307 736.64V735.904L686.395 735.936ZM696.1 731.168C696.249 731.168 696.404 731.173 696.564 731.184C696.724 731.195 696.857 731.216 696.964 731.248L696.772 733.12C696.665 733.099 696.537 733.083 696.388 733.072C696.249 733.051 696.1 733.04 695.94 733.04C695.673 733.04 695.412 733.093 695.156 733.2C694.9 733.296 694.67 733.445 694.468 733.648C694.265 733.84 694.1 734.091 693.972 734.4C693.854 734.709 693.796 735.077 693.796 735.504V740H691.668V731.328H693.3L693.588 732.832H693.7C693.86 732.523 694.057 732.245 694.292 732C694.537 731.744 694.809 731.541 695.108 731.392C695.417 731.243 695.748 731.168 696.1 731.168ZM700.467 733.616C700.467 733.893 700.456 734.187 700.435 734.496C700.414 734.795 700.387 735.088 700.355 735.376H700.419C700.472 735.248 700.552 735.109 700.659 734.96C700.766 734.8 700.878 734.645 700.995 734.496C701.123 734.336 701.246 734.192 701.363 734.064L703.619 731.328H706.019L702.867 735.072L706.211 740H703.763L701.411 736.288L700.467 737.12V740H698.355V727.84H700.467V733.616ZM710.826 731.168C711.572 731.168 712.212 731.328 712.746 731.648C713.29 731.957 713.711 732.405 714.01 732.992C714.308 733.568 714.458 734.272 714.458 735.104V736.128H709.146C709.167 736.917 709.359 737.531 709.722 737.968C710.095 738.395 710.618 738.608 711.29 738.608C711.823 738.608 712.298 738.555 712.714 738.448C713.13 738.331 713.562 738.165 714.01 737.952V739.568C713.604 739.771 713.183 739.92 712.746 740.016C712.308 740.112 711.77 740.16 711.13 740.16C710.319 740.16 709.599 740 708.97 739.68C708.351 739.349 707.866 738.853 707.514 738.192C707.162 737.531 706.986 736.709 706.986 735.728C706.986 734.736 707.146 733.904 707.466 733.232C707.786 732.549 708.234 732.037 708.81 731.696C709.396 731.344 710.068 731.168 710.826 731.168ZM710.858 732.656C710.378 732.656 709.988 732.832 709.69 733.184C709.402 733.525 709.231 734.037 709.178 734.72H712.442C712.442 734.315 712.383 733.957 712.266 733.648C712.148 733.339 711.972 733.099 711.738 732.928C711.514 732.747 711.22 732.656 710.858 732.656ZM719.669 738.544C719.904 738.544 720.128 738.523 720.341 738.48C720.565 738.427 720.773 738.368 720.965 738.304V739.808C720.741 739.904 720.469 739.984 720.149 740.048C719.829 740.123 719.472 740.16 719.077 740.16C718.586 740.16 718.149 740.08 717.765 739.92C717.381 739.749 717.077 739.461 716.853 739.056C716.64 738.651 716.533 738.085 716.533 737.36V732.848H715.445V731.968L716.661 731.264L717.301 729.424H718.645V731.328H720.885V732.848H718.645V737.344C718.645 737.749 718.736 738.053 718.917 738.256C719.109 738.448 719.36 738.544 719.669 738.544ZM724.671 731.328V740H722.559V731.328H724.671ZM723.631 727.984C723.94 727.984 724.207 728.064 724.431 728.224C724.655 728.373 724.767 728.645 724.767 729.04C724.767 729.424 724.655 729.701 724.431 729.872C724.207 730.032 723.94 730.112 723.631 730.112C723.3 730.112 723.023 730.032 722.799 729.872C722.575 729.701 722.463 729.424 722.463 729.04C722.463 728.645 722.575 728.373 722.799 728.224C723.023 728.064 723.3 727.984 723.631 727.984ZM731.54 731.168C732.447 731.168 733.161 731.419 733.684 731.92C734.207 732.421 734.468 733.232 734.468 734.352V740H732.34V734.752C732.34 734.101 732.228 733.616 732.004 733.296C731.78 732.965 731.428 732.8 730.948 732.8C730.233 732.8 729.748 733.056 729.492 733.568C729.236 734.069 729.108 734.8 729.108 735.76V740H726.98V731.328H728.612L728.916 732.464H728.996C729.188 732.165 729.412 731.92 729.668 731.728C729.924 731.536 730.212 731.397 730.532 731.312C730.852 731.216 731.188 731.168 731.54 731.168ZM739.466 731.168C739.999 731.168 740.463 731.275 740.858 731.488C741.253 731.701 741.583 732.021 741.85 732.448H741.914L742.106 731.328H743.898V740.064C743.898 740.885 743.749 741.573 743.45 742.128C743.151 742.693 742.703 743.12 742.106 743.408C741.519 743.696 740.773 743.84 739.866 743.84C739.258 743.84 738.703 743.797 738.202 743.712C737.711 743.637 737.242 743.504 736.794 743.312V741.648C737.103 741.787 737.418 741.904 737.738 742C738.069 742.107 738.41 742.187 738.762 742.24C739.114 742.293 739.487 742.32 739.882 742.32C740.501 742.32 740.97 742.133 741.29 741.76C741.621 741.387 741.786 740.853 741.786 740.16V739.936C741.786 739.776 741.791 739.589 741.802 739.376C741.823 739.163 741.839 738.992 741.85 738.864H741.786C741.53 739.312 741.21 739.643 740.826 739.856C740.442 740.059 739.978 740.16 739.434 740.16C738.463 740.16 737.695 739.765 737.13 738.976C736.575 738.187 736.298 737.088 736.298 735.68C736.298 734.731 736.426 733.92 736.682 733.248C736.938 732.576 737.301 732.064 737.77 731.712C738.25 731.349 738.815 731.168 739.466 731.168ZM740.106 732.816C739.743 732.816 739.439 732.928 739.194 733.152C738.959 733.365 738.778 733.685 738.65 734.112C738.522 734.539 738.458 735.072 738.458 735.712C738.458 736.651 738.597 737.36 738.874 737.84C739.151 738.32 739.567 738.56 740.122 738.56C740.442 738.56 740.714 738.517 740.938 738.432C741.162 738.336 741.343 738.187 741.482 737.984C741.621 737.771 741.727 737.504 741.802 737.184C741.877 736.853 741.914 736.459 741.914 736V735.696C741.914 735.003 741.85 734.448 741.722 734.032C741.605 733.605 741.413 733.296 741.146 733.104C740.879 732.912 740.533 732.816 740.106 732.816Z" fill="black"/>
<path d="M1355.63 723.272C1355.63 724.157 1355.52 724.963 1355.32 725.688C1355.12 726.403 1354.8 727.021 1354.38 727.544C1353.96 728.067 1353.43 728.467 1352.79 728.744C1352.15 729.021 1351.4 729.16 1350.54 729.16C1349.66 729.16 1348.91 729.021 1348.27 728.744C1347.63 728.456 1347.1 728.056 1346.68 727.544C1346.27 727.021 1345.95 726.397 1345.74 725.672C1345.54 724.947 1345.43 724.141 1345.43 723.256C1345.43 722.072 1345.62 721.043 1345.98 720.168C1346.35 719.293 1346.92 718.616 1347.67 718.136C1348.43 717.645 1349.39 717.4 1350.55 717.4C1351.71 717.4 1352.66 717.645 1353.4 718.136C1354.15 718.616 1354.7 719.299 1355.07 720.184C1355.44 721.059 1355.63 722.088 1355.63 723.272ZM1347.71 723.272C1347.71 724.136 1347.8 724.877 1347.99 725.496C1348.19 726.115 1348.49 726.589 1348.91 726.92C1349.33 727.251 1349.88 727.416 1350.54 727.416C1351.2 727.416 1351.74 727.251 1352.15 726.92C1352.57 726.589 1352.87 726.115 1353.07 725.496C1353.26 724.877 1353.35 724.136 1353.35 723.272C1353.35 721.981 1353.13 720.968 1352.68 720.232C1352.24 719.496 1351.53 719.128 1350.54 719.128C1349.88 719.128 1349.33 719.293 1348.91 719.624C1348.49 719.955 1348.19 720.429 1347.99 721.048C1347.8 721.667 1347.71 722.408 1347.71 723.272ZM1362.12 720.168C1363.06 720.168 1363.81 720.547 1364.38 721.304C1364.96 722.051 1365.24 723.165 1365.24 724.648C1365.24 725.629 1365.11 726.456 1364.84 727.128C1364.58 727.8 1364.2 728.307 1363.72 728.648C1363.24 728.989 1362.69 729.16 1362.06 729.16C1361.67 729.16 1361.32 729.107 1361.02 729C1360.73 728.883 1360.49 728.739 1360.28 728.568C1360.08 728.387 1359.91 728.195 1359.77 727.992H1359.66C1359.69 728.184 1359.72 728.403 1359.74 728.648C1359.76 728.883 1359.77 729.107 1359.77 729.32V732.84H1357.64V720.328H1359.37L1359.66 721.48H1359.77C1359.92 721.235 1360.1 721.016 1360.3 720.824C1360.51 720.621 1360.77 720.461 1361.07 720.344C1361.37 720.227 1361.72 720.168 1362.12 720.168ZM1361.45 721.8C1361.05 721.8 1360.72 721.896 1360.46 722.088C1360.21 722.269 1360.04 722.552 1359.93 722.936C1359.83 723.32 1359.77 723.8 1359.77 724.376V724.632C1359.77 725.251 1359.82 725.773 1359.92 726.2C1360.02 726.627 1360.2 726.952 1360.44 727.176C1360.7 727.4 1361.05 727.512 1361.48 727.512C1361.85 727.512 1362.15 727.395 1362.38 727.16C1362.61 726.925 1362.79 726.595 1362.91 726.168C1363.03 725.731 1363.08 725.213 1363.08 724.616C1363.08 723.72 1362.95 723.027 1362.67 722.536C1362.4 722.045 1362 721.8 1361.45 721.8ZM1370.52 720.168C1371.27 720.168 1371.91 720.328 1372.44 720.648C1372.98 720.957 1373.41 721.405 1373.7 721.992C1374 722.568 1374.15 723.272 1374.15 724.104V725.128H1368.84C1368.86 725.917 1369.05 726.531 1369.42 726.968C1369.79 727.395 1370.31 727.608 1370.98 727.608C1371.52 727.608 1371.99 727.555 1372.41 727.448C1372.82 727.331 1373.26 727.165 1373.7 726.952V728.568C1373.3 728.771 1372.88 728.92 1372.44 729.016C1372 729.112 1371.46 729.16 1370.82 729.16C1370.01 729.16 1369.29 729 1368.66 728.68C1368.05 728.349 1367.56 727.853 1367.21 727.192C1366.86 726.531 1366.68 725.709 1366.68 724.728C1366.68 723.736 1366.84 722.904 1367.16 722.232C1367.48 721.549 1367.93 721.037 1368.5 720.696C1369.09 720.344 1369.76 720.168 1370.52 720.168ZM1370.55 721.656C1370.07 721.656 1369.68 721.832 1369.38 722.184C1369.1 722.525 1368.93 723.037 1368.87 723.72H1372.14C1372.14 723.315 1372.08 722.957 1371.96 722.648C1371.84 722.339 1371.67 722.099 1371.43 721.928C1371.21 721.747 1370.92 721.656 1370.55 721.656ZM1380.4 720.168C1380.55 720.168 1380.71 720.173 1380.87 720.184C1381.03 720.195 1381.16 720.216 1381.27 720.248L1381.08 722.12C1380.97 722.099 1380.84 722.083 1380.69 722.072C1380.55 722.051 1380.4 722.04 1380.24 722.04C1379.98 722.04 1379.72 722.093 1379.46 722.2C1379.2 722.296 1378.97 722.445 1378.77 722.648C1378.57 722.84 1378.4 723.091 1378.28 723.4C1378.16 723.709 1378.1 724.077 1378.1 724.504V729H1375.97V720.328H1377.6L1377.89 721.832H1378C1378.16 721.523 1378.36 721.245 1378.6 721C1378.84 720.744 1379.11 720.541 1379.41 720.392C1379.72 720.243 1380.05 720.168 1380.4 720.168ZM1385.83 720.168C1386.88 720.168 1387.68 720.413 1388.23 720.904C1388.79 721.384 1389.07 722.141 1389.07 723.176V729H1387.58L1387.16 727.8H1387.1C1386.86 728.109 1386.62 728.371 1386.38 728.584C1386.13 728.787 1385.85 728.931 1385.53 729.016C1385.21 729.112 1384.83 729.16 1384.38 729.16C1383.9 729.16 1383.47 729.064 1383.08 728.872C1382.7 728.68 1382.39 728.387 1382.17 727.992C1381.95 727.587 1381.83 727.08 1381.83 726.472C1381.83 725.576 1382.14 724.904 1382.76 724.456C1383.38 723.997 1384.31 723.747 1385.55 723.704L1386.94 723.656V723.224C1386.94 722.669 1386.82 722.275 1386.59 722.04C1386.35 721.805 1386.03 721.688 1385.63 721.688C1385.24 721.688 1384.85 721.752 1384.46 721.88C1384.07 722.008 1383.7 722.157 1383.32 722.328L1382.67 720.92C1383.1 720.696 1383.59 720.515 1384.12 720.376C1384.66 720.237 1385.23 720.168 1385.83 720.168ZM1386.04 724.936C1385.29 724.968 1384.76 725.123 1384.46 725.4C1384.16 725.667 1384.01 726.029 1384.01 726.488C1384.01 726.893 1384.11 727.187 1384.31 727.368C1384.53 727.549 1384.81 727.64 1385.15 727.64C1385.65 727.64 1386.07 727.475 1386.43 727.144C1386.78 726.803 1386.95 726.301 1386.95 725.64V724.904L1386.04 724.936ZM1394.71 727.544C1394.94 727.544 1395.17 727.523 1395.38 727.48C1395.6 727.427 1395.81 727.368 1396 727.304V728.808C1395.78 728.904 1395.51 728.984 1395.19 729.048C1394.87 729.123 1394.51 729.16 1394.12 729.16C1393.63 729.16 1393.19 729.08 1392.8 728.92C1392.42 728.749 1392.12 728.461 1391.89 728.056C1391.68 727.651 1391.57 727.085 1391.57 726.36V721.848H1390.48V720.968L1391.7 720.264L1392.34 718.424H1393.68V720.328H1395.92V721.848H1393.68V726.344C1393.68 726.749 1393.77 727.053 1393.96 727.256C1394.15 727.448 1394.4 727.544 1394.71 727.544ZM1399.71 720.328V729H1397.6V720.328H1399.71ZM1398.67 716.984C1398.98 716.984 1399.25 717.064 1399.47 717.224C1399.69 717.373 1399.81 717.645 1399.81 718.04C1399.81 718.424 1399.69 718.701 1399.47 718.872C1399.25 719.032 1398.98 719.112 1398.67 719.112C1398.34 719.112 1398.06 719.032 1397.84 718.872C1397.61 718.701 1397.5 718.424 1397.5 718.04C1397.5 717.645 1397.61 717.373 1397.84 717.224C1398.06 717.064 1398.34 716.984 1398.67 716.984ZM1409.48 724.648C1409.48 725.373 1409.38 726.013 1409.2 726.568C1409.02 727.123 1408.76 727.597 1408.4 727.992C1408.06 728.376 1407.65 728.669 1407.16 728.872C1406.66 729.064 1406.12 729.16 1405.51 729.16C1404.94 729.16 1404.41 729.064 1403.92 728.872C1403.44 728.669 1403.03 728.376 1402.68 727.992C1402.33 727.597 1402.07 727.123 1401.88 726.568C1401.68 726.013 1401.59 725.373 1401.59 724.648C1401.59 723.688 1401.74 722.877 1402.05 722.216C1402.37 721.544 1402.83 721.037 1403.43 720.696C1404.02 720.344 1404.73 720.168 1405.56 720.168C1406.32 720.168 1407 720.344 1407.59 720.696C1408.17 721.037 1408.63 721.544 1408.96 722.216C1409.3 722.877 1409.48 723.688 1409.48 724.648ZM1403.75 724.648C1403.75 725.256 1403.81 725.779 1403.94 726.216C1404.07 726.643 1404.26 726.968 1404.52 727.192C1404.78 727.416 1405.12 727.528 1405.54 727.528C1405.96 727.528 1406.29 727.416 1406.55 727.192C1406.81 726.968 1407.01 726.643 1407.12 726.216C1407.25 725.779 1407.32 725.256 1407.32 724.648C1407.32 724.029 1407.25 723.512 1407.12 723.096C1407 722.669 1406.8 722.349 1406.53 722.136C1406.28 721.912 1405.94 721.8 1405.52 721.8C1404.89 721.8 1404.44 722.045 1404.16 722.536C1403.89 723.027 1403.75 723.731 1403.75 724.648ZM1415.89 720.168C1416.8 720.168 1417.51 720.419 1418.04 720.92C1418.56 721.421 1418.82 722.232 1418.82 723.352V729H1416.69V723.752C1416.69 723.101 1416.58 722.616 1416.36 722.296C1416.13 721.965 1415.78 721.8 1415.3 721.8C1414.59 721.8 1414.1 722.056 1413.84 722.568C1413.59 723.069 1413.46 723.8 1413.46 724.76V729H1411.33V720.328H1412.96L1413.27 721.464H1413.35C1413.54 721.165 1413.76 720.92 1414.02 720.728C1414.28 720.536 1414.56 720.397 1414.88 720.312C1415.2 720.216 1415.54 720.168 1415.89 720.168ZM1426.79 726.488C1426.79 727.064 1426.67 727.555 1426.41 727.96C1426.15 728.355 1425.78 728.653 1425.27 728.856C1424.77 729.059 1424.14 729.16 1423.39 729.16C1422.81 729.16 1422.31 729.117 1421.88 729.032C1421.46 728.947 1421.04 728.813 1420.65 728.632V726.92C1421.08 727.123 1421.54 727.293 1422.03 727.432C1422.53 727.571 1422.98 727.64 1423.39 727.64C1423.87 727.64 1424.21 727.555 1424.43 727.384C1424.64 727.213 1424.75 726.984 1424.75 726.696C1424.75 726.525 1424.7 726.371 1424.6 726.232C1424.52 726.093 1424.34 725.949 1424.06 725.8C1423.79 725.64 1423.4 725.443 1422.89 725.208C1422.39 724.984 1421.97 724.76 1421.64 724.536C1421.31 724.312 1421.06 724.045 1420.89 723.736C1420.72 723.416 1420.63 723.016 1420.63 722.536C1420.63 721.757 1420.93 721.171 1421.51 720.776C1422.11 720.371 1422.89 720.168 1423.85 720.168C1424.37 720.168 1424.86 720.221 1425.31 720.328C1425.76 720.424 1426.22 720.584 1426.68 720.808L1426.06 722.296C1425.8 722.179 1425.54 722.077 1425.27 721.992C1425.02 721.896 1424.77 721.821 1424.52 721.768C1424.29 721.715 1424.05 721.688 1423.82 721.688C1423.44 721.688 1423.16 721.757 1422.97 721.896C1422.78 722.024 1422.68 722.211 1422.68 722.456C1422.68 722.627 1422.73 722.781 1422.83 722.92C1422.92 723.048 1423.1 723.181 1423.37 723.32C1423.64 723.459 1424.02 723.635 1424.51 723.848C1425 724.04 1425.41 724.248 1425.75 724.472C1426.1 724.685 1426.35 724.952 1426.52 725.272C1426.7 725.592 1426.79 725.997 1426.79 726.488Z" fill="black"/>
<path d="M1004.22 426H1002.11V414.576H1008.27V416.288H1004.22V419.648H1008V421.36H1004.22V426ZM1012.11 417.328V426H1010V417.328H1012.11ZM1011.07 413.984C1011.38 413.984 1011.64 414.064 1011.87 414.224C1012.09 414.373 1012.2 414.645 1012.2 415.04C1012.2 415.424 1012.09 415.701 1011.87 415.872C1011.64 416.032 1011.38 416.112 1011.07 416.112C1010.74 416.112 1010.46 416.032 1010.24 415.872C1010.01 415.701 1009.9 415.424 1009.9 415.04C1009.9 414.645 1010.01 414.373 1010.24 414.224C1010.46 414.064 1010.74 413.984 1011.07 413.984ZM1018.98 417.168C1019.88 417.168 1020.6 417.419 1021.12 417.92C1021.64 418.421 1021.91 419.232 1021.91 420.352V426H1019.78V420.752C1019.78 420.101 1019.67 419.616 1019.44 419.296C1019.22 418.965 1018.87 418.8 1018.39 418.8C1017.67 418.8 1017.19 419.056 1016.93 419.568C1016.67 420.069 1016.55 420.8 1016.55 421.76V426H1014.42V417.328H1016.05L1016.35 418.464H1016.43C1016.63 418.165 1016.85 417.92 1017.11 417.728C1017.36 417.536 1017.65 417.397 1017.97 417.312C1018.29 417.216 1018.63 417.168 1018.98 417.168ZM1027.64 417.168C1028.68 417.168 1029.48 417.413 1030.04 417.904C1030.59 418.384 1030.87 419.141 1030.87 420.176V426H1029.38L1028.97 424.8H1028.9C1028.67 425.109 1028.43 425.371 1028.18 425.584C1027.94 425.787 1027.66 425.931 1027.34 426.016C1027.02 426.112 1026.63 426.16 1026.18 426.16C1025.7 426.16 1025.27 426.064 1024.89 425.872C1024.5 425.68 1024.2 425.387 1023.98 424.992C1023.75 424.587 1023.64 424.08 1023.64 423.472C1023.64 422.576 1023.95 421.904 1024.57 421.456C1025.19 420.997 1026.11 420.747 1027.35 420.704L1028.74 420.656V420.224C1028.74 419.669 1028.63 419.275 1028.39 419.04C1028.16 418.805 1027.84 418.688 1027.43 418.688C1027.05 418.688 1026.66 418.752 1026.26 418.88C1025.88 419.008 1025.5 419.157 1025.13 419.328L1024.47 417.92C1024.91 417.696 1025.39 417.515 1025.93 417.376C1026.46 417.237 1027.03 417.168 1027.64 417.168ZM1027.85 421.936C1027.09 421.968 1026.56 422.123 1026.26 422.4C1025.96 422.667 1025.82 423.029 1025.82 423.488C1025.82 423.893 1025.92 424.187 1026.12 424.368C1026.33 424.549 1026.61 424.64 1026.95 424.64C1027.45 424.64 1027.88 424.475 1028.23 424.144C1028.58 423.803 1028.76 423.301 1028.76 422.64V421.904L1027.85 421.936ZM1037.68 417.168C1038.59 417.168 1039.3 417.419 1039.82 417.92C1040.35 418.421 1040.61 419.232 1040.61 420.352V426H1038.48V420.752C1038.48 420.101 1038.37 419.616 1038.14 419.296C1037.92 418.965 1037.57 418.8 1037.09 418.8C1036.37 418.8 1035.89 419.056 1035.63 419.568C1035.38 420.069 1035.25 420.8 1035.25 421.76V426H1033.12V417.328H1034.75L1035.06 418.464H1035.14C1035.33 418.165 1035.55 417.92 1035.81 417.728C1036.06 417.536 1036.35 417.397 1036.67 417.312C1036.99 417.216 1037.33 417.168 1037.68 417.168ZM1046.33 426.16C1045.53 426.16 1044.83 426.005 1044.25 425.696C1043.67 425.376 1043.22 424.891 1042.9 424.24C1042.59 423.579 1042.44 422.736 1042.44 421.712C1042.44 420.645 1042.61 419.781 1042.95 419.12C1043.3 418.448 1043.78 417.957 1044.39 417.648C1045.01 417.328 1045.71 417.168 1046.49 417.168C1046.98 417.168 1047.44 417.221 1047.86 417.328C1048.3 417.435 1048.66 417.563 1048.95 417.712L1048.31 419.264C1048.02 419.147 1047.73 419.045 1047.45 418.96C1047.16 418.875 1046.87 418.832 1046.58 418.832C1046.15 418.832 1045.78 418.939 1045.49 419.152C1045.21 419.365 1044.98 419.685 1044.82 420.112C1044.67 420.528 1044.6 421.056 1044.6 421.696C1044.6 422.315 1044.67 422.832 1044.82 423.248C1044.98 423.664 1045.21 423.979 1045.49 424.192C1045.78 424.395 1046.13 424.496 1046.55 424.496C1046.97 424.496 1047.35 424.437 1047.7 424.32C1048.07 424.203 1048.41 424.043 1048.73 423.84V425.584C1048.4 425.787 1048.04 425.931 1047.67 426.016C1047.3 426.112 1046.85 426.16 1046.33 426.16ZM1052.69 417.328V426H1050.57V417.328H1052.69ZM1051.65 413.984C1051.96 413.984 1052.22 414.064 1052.45 414.224C1052.67 414.373 1052.78 414.645 1052.78 415.04C1052.78 415.424 1052.67 415.701 1052.45 415.872C1052.22 416.032 1051.96 416.112 1051.65 416.112C1051.32 416.112 1051.04 416.032 1050.81 415.872C1050.59 415.701 1050.48 415.424 1050.48 415.04C1050.48 414.645 1050.59 414.373 1050.81 414.224C1051.04 414.064 1051.32 413.984 1051.65 413.984ZM1058.47 417.168C1059.51 417.168 1060.31 417.413 1060.87 417.904C1061.42 418.384 1061.7 419.141 1061.7 420.176V426H1060.21L1059.8 424.8H1059.73C1059.5 425.109 1059.26 425.371 1059.01 425.584C1058.77 425.787 1058.48 425.931 1058.16 426.016C1057.84 426.112 1057.46 426.16 1057.01 426.16C1056.53 426.16 1056.1 426.064 1055.72 425.872C1055.33 425.68 1055.03 425.387 1054.8 424.992C1054.58 424.587 1054.47 424.08 1054.47 423.472C1054.47 422.576 1054.78 421.904 1055.4 421.456C1056.01 420.997 1056.94 420.747 1058.18 420.704L1059.57 420.656V420.224C1059.57 419.669 1059.45 419.275 1059.22 419.04C1058.99 418.805 1058.67 418.688 1058.26 418.688C1057.88 418.688 1057.49 418.752 1057.09 418.88C1056.71 419.008 1056.33 419.157 1055.96 419.328L1055.3 417.92C1055.74 417.696 1056.22 417.515 1056.76 417.376C1057.29 417.237 1057.86 417.168 1058.47 417.168ZM1058.68 421.936C1057.92 421.968 1057.39 422.123 1057.09 422.4C1056.79 422.667 1056.64 423.029 1056.64 423.488C1056.64 423.893 1056.75 424.187 1056.95 424.368C1057.16 424.549 1057.44 424.64 1057.78 424.64C1058.28 424.64 1058.71 424.475 1059.06 424.144C1059.41 423.803 1059.59 423.301 1059.59 422.64V421.904L1058.68 421.936ZM1066.08 426H1063.95V413.84H1066.08V426ZM1006.75 445.488C1006.75 446.064 1006.62 446.555 1006.36 446.96C1006.11 447.355 1005.73 447.653 1005.23 447.856C1004.73 448.059 1004.1 448.16 1003.34 448.16C1002.76 448.16 1002.26 448.117 1001.83 448.032C1001.41 447.947 1001 447.813 1000.6 447.632V445.92C1001.03 446.123 1001.49 446.293 1001.98 446.432C1002.48 446.571 1002.93 446.64 1003.34 446.64C1003.82 446.64 1004.17 446.555 1004.38 446.384C1004.59 446.213 1004.7 445.984 1004.7 445.696C1004.7 445.525 1004.65 445.371 1004.55 445.232C1004.47 445.093 1004.29 444.949 1004.01 444.8C1003.74 444.64 1003.35 444.443 1002.84 444.208C1002.34 443.984 1001.93 443.76 1001.59 443.536C1001.26 443.312 1001.01 443.045 1000.84 442.736C1000.67 442.416 1000.59 442.016 1000.59 441.536C1000.59 440.757 1000.88 440.171 1001.47 439.776C1002.06 439.371 1002.84 439.168 1003.8 439.168C1004.33 439.168 1004.81 439.221 1005.26 439.328C1005.72 439.424 1006.18 439.584 1006.63 439.808L1006.01 441.296C1005.75 441.179 1005.49 441.077 1005.23 440.992C1004.97 440.896 1004.72 440.821 1004.47 440.768C1004.24 440.715 1004.01 440.688 1003.77 440.688C1003.4 440.688 1003.11 440.757 1002.92 440.896C1002.73 441.024 1002.63 441.211 1002.63 441.456C1002.63 441.627 1002.68 441.781 1002.78 441.92C1002.87 442.048 1003.06 442.181 1003.32 442.32C1003.59 442.459 1003.97 442.635 1004.46 442.848C1004.95 443.04 1005.37 443.248 1005.71 443.472C1006.05 443.685 1006.3 443.952 1006.47 444.272C1006.66 444.592 1006.75 444.997 1006.75 445.488ZM1015.98 443.648C1015.98 444.373 1015.88 445.013 1015.7 445.568C1015.52 446.123 1015.26 446.597 1014.9 446.992C1014.56 447.376 1014.15 447.669 1013.66 447.872C1013.16 448.064 1012.62 448.16 1012.01 448.16C1011.44 448.16 1010.91 448.064 1010.42 447.872C1009.94 447.669 1009.53 447.376 1009.18 446.992C1008.83 446.597 1008.57 446.123 1008.38 445.568C1008.18 445.013 1008.09 444.373 1008.09 443.648C1008.09 442.688 1008.24 441.877 1008.55 441.216C1008.87 440.544 1009.33 440.037 1009.93 439.696C1010.52 439.344 1011.23 439.168 1012.06 439.168C1012.82 439.168 1013.5 439.344 1014.09 439.696C1014.67 440.037 1015.13 440.544 1015.46 441.216C1015.8 441.877 1015.98 442.688 1015.98 443.648ZM1010.25 443.648C1010.25 444.256 1010.31 444.779 1010.44 445.216C1010.57 445.643 1010.76 445.968 1011.02 446.192C1011.28 446.416 1011.62 446.528 1012.04 446.528C1012.46 446.528 1012.79 446.416 1013.05 446.192C1013.31 445.968 1013.51 445.643 1013.62 445.216C1013.75 444.779 1013.82 444.256 1013.82 443.648C1013.82 443.029 1013.75 442.512 1013.62 442.096C1013.5 441.669 1013.3 441.349 1013.03 441.136C1012.78 440.912 1012.44 440.8 1012.02 440.8C1011.39 440.8 1010.94 441.045 1010.66 441.536C1010.39 442.027 1010.25 442.731 1010.25 443.648ZM1019.96 448H1017.83V435.84H1019.96V448ZM1029.69 439.328V448H1028.06L1027.79 446.88H1027.68C1027.51 447.179 1027.29 447.424 1027.02 447.616C1026.75 447.797 1026.46 447.931 1026.14 448.016C1025.82 448.112 1025.49 448.16 1025.15 448.16C1024.55 448.16 1024.03 448.048 1023.6 447.824C1023.16 447.6 1022.82 447.259 1022.57 446.8C1022.34 446.331 1022.22 445.728 1022.22 444.992V439.328H1024.35V444.592C1024.35 445.232 1024.46 445.717 1024.67 446.048C1024.89 446.368 1025.25 446.528 1025.73 446.528C1026.21 446.528 1026.58 446.416 1026.85 446.192C1027.12 445.957 1027.31 445.621 1027.42 445.184C1027.53 444.747 1027.58 444.208 1027.58 443.568V439.328H1029.69ZM1035.41 446.544C1035.65 446.544 1035.87 446.523 1036.08 446.48C1036.31 446.427 1036.52 446.368 1036.71 446.304V447.808C1036.48 447.904 1036.21 447.984 1035.89 448.048C1035.57 448.123 1035.21 448.16 1034.82 448.16C1034.33 448.16 1033.89 448.08 1033.51 447.92C1033.12 447.749 1032.82 447.461 1032.6 447.056C1032.38 446.651 1032.28 446.085 1032.28 445.36V440.848H1031.19V439.968L1032.4 439.264L1033.04 437.424H1034.39V439.328H1036.63V440.848H1034.39V445.344C1034.39 445.749 1034.48 446.053 1034.66 446.256C1034.85 446.448 1035.1 446.544 1035.41 446.544ZM1040.41 439.328V448H1038.3V439.328H1040.41ZM1039.37 435.984C1039.68 435.984 1039.95 436.064 1040.17 436.224C1040.4 436.373 1040.51 436.645 1040.51 437.04C1040.51 437.424 1040.4 437.701 1040.17 437.872C1039.95 438.032 1039.68 438.112 1039.37 438.112C1039.04 438.112 1038.76 438.032 1038.54 437.872C1038.32 437.701 1038.2 437.424 1038.2 437.04C1038.2 436.645 1038.32 436.373 1038.54 436.224C1038.76 436.064 1039.04 435.984 1039.37 435.984ZM1050.18 443.648C1050.18 444.373 1050.09 445.013 1049.91 445.568C1049.72 446.123 1049.46 446.597 1049.11 446.992C1048.76 447.376 1048.35 447.669 1047.86 447.872C1047.37 448.064 1046.82 448.16 1046.21 448.16C1045.64 448.16 1045.12 448.064 1044.63 447.872C1044.15 447.669 1043.73 447.376 1043.38 446.992C1043.04 446.597 1042.77 446.123 1042.58 445.568C1042.39 445.013 1042.29 444.373 1042.29 443.648C1042.29 442.688 1042.44 441.877 1042.75 441.216C1043.07 440.544 1043.53 440.037 1044.13 439.696C1044.73 439.344 1045.44 439.168 1046.26 439.168C1047.03 439.168 1047.7 439.344 1048.29 439.696C1048.88 440.037 1049.34 440.544 1049.67 441.216C1050.01 441.877 1050.18 442.688 1050.18 443.648ZM1044.45 443.648C1044.45 444.256 1044.51 444.779 1044.64 445.216C1044.77 445.643 1044.96 445.968 1045.22 446.192C1045.48 446.416 1045.83 446.528 1046.24 446.528C1046.66 446.528 1046.99 446.416 1047.25 446.192C1047.52 445.968 1047.71 445.643 1047.83 445.216C1047.95 444.779 1048.02 444.256 1048.02 443.648C1048.02 443.029 1047.95 442.512 1047.83 442.096C1047.7 441.669 1047.5 441.349 1047.23 441.136C1046.98 440.912 1046.64 440.8 1046.23 440.8C1045.6 440.8 1045.14 441.045 1044.87 441.536C1044.59 442.027 1044.45 442.731 1044.45 443.648ZM1056.59 439.168C1057.5 439.168 1058.22 439.419 1058.74 439.92C1059.26 440.421 1059.52 441.232 1059.52 442.352V448H1057.39V442.752C1057.39 442.101 1057.28 441.616 1057.06 441.296C1056.83 440.965 1056.48 440.8 1056 440.8C1055.29 440.8 1054.8 441.056 1054.55 441.568C1054.29 442.069 1054.16 442.8 1054.16 443.76V448H1052.03V439.328H1053.67L1053.97 440.464H1054.05C1054.24 440.165 1054.47 439.92 1054.72 439.728C1054.98 439.536 1055.27 439.397 1055.59 439.312C1055.91 439.216 1056.24 439.168 1056.59 439.168ZM1067.5 445.488C1067.5 446.064 1067.37 446.555 1067.11 446.96C1066.86 447.355 1066.48 447.653 1065.98 447.856C1065.48 448.059 1064.85 448.16 1064.09 448.16C1063.51 448.16 1063.01 448.117 1062.58 448.032C1062.16 447.947 1061.75 447.813 1061.35 447.632V445.92C1061.78 446.123 1062.24 446.293 1062.73 446.432C1063.23 446.571 1063.68 446.64 1064.09 446.64C1064.57 446.64 1064.92 446.555 1065.13 446.384C1065.34 446.213 1065.45 445.984 1065.45 445.696C1065.45 445.525 1065.4 445.371 1065.3 445.232C1065.22 445.093 1065.04 444.949 1064.76 444.8C1064.49 444.64 1064.1 444.443 1063.59 444.208C1063.09 443.984 1062.68 443.76 1062.34 443.536C1062.01 443.312 1061.76 443.045 1061.59 442.736C1061.42 442.416 1061.34 442.016 1061.34 441.536C1061.34 440.757 1061.63 440.171 1062.22 439.776C1062.81 439.371 1063.59 439.168 1064.55 439.168C1065.08 439.168 1065.56 439.221 1066.01 439.328C1066.47 439.424 1066.93 439.584 1067.38 439.808L1066.76 441.296C1066.5 441.179 1066.24 441.077 1065.98 440.992C1065.72 440.896 1065.47 440.821 1065.22 440.768C1064.99 440.715 1064.76 440.688 1064.52 440.688C1064.15 440.688 1063.86 440.757 1063.67 440.896C1063.48 441.024 1063.38 441.211 1063.38 441.456C1063.38 441.627 1063.43 441.781 1063.53 441.92C1063.62 442.048 1063.81 442.181 1064.07 442.32C1064.34 442.459 1064.72 442.635 1065.21 442.848C1065.7 443.04 1066.12 443.248 1066.46 443.472C1066.8 443.685 1067.05 443.952 1067.22 444.272C1067.41 444.592 1067.5 444.997 1067.5 445.488Z" fill="black"/>
<path d="M936 410C934.69 410 934.68 412.02 936 412H980C980.572 412 981 412.428 981 413V439C981 440.32 983 440.32 983 439V413C983 411.356 981.644 410 980 410H936ZM932 414C930.692 414 930.692 416 932 416H976C976.572 416 977 416.428 977 417V443C977 444.33 979.02 444.32 979 443V417C979 415.356 977.644 414 976 414H932ZM928 418C926.356 418 925 419.356 925 421V445C925 446.644 926.356 448 928 448H972C973.644 448 975 446.644 975 445V421C975 419.356 973.644 418 972 418H928ZM928 420H972C972.572 420 973 420.428 973 421V445C973 445.572 972.572 446 972 446H928C927.428 446 927 445.572 927 445V421C927 420.428 927.428 420 928 420ZM930 422C929.448 422 929 422.448 929 423V427C929 428.344 931 428.312 931 427V424H934C935.344 424 935.312 422 934 422H930ZM950 422C943.936 422 939 426.936 939 433C939 439.064 943.936 444 950 444C956.064 444 961 439.064 961 433C961 426.936 956.064 422 950 422ZM966 422C964.688 422 964.656 424 966 424H969V427C969 428.312 971 428.344 971 427V423C971 422.448 970.552 422 970 422H966ZM950 424C954.98 424 959 428.02 959 433C959 437.98 954.98 442 950 442C945.02 442 941 437.98 941 433C941 428.02 945.02 424 950 424ZM950 426C949.446 426 949 426.446 949 427V428.188C947.844 428.608 947 429.708 947 431C947 432.64 948.36 434 950 434C950.56 434 951 434.424 951 435C951 435.576 950.56 436 950 436H948C947.324 435.99 947 436.496 947 437C947 437.504 947.324 438.01 948 438H949V439C949 439.554 949.446 440 950 440C950.554 440 951 439.554 951 439V437.812C952.156 437.392 953 436.292 953 435C953 433.36 951.64 432 950 432C949.44 432 949 431.576 949 431C949 430.424 949.44 430 950 430H952C952.676 430.01 953 429.504 953 429C953 428.496 952.676 427.99 952 428H951V427C951 426.446 950.554 426 950 426ZM930 438.004C929.5 438 929 438.328 929 439V443C929 443.552 929.448 444 930 444H934C935.312 444 935.344 442 934 442H931V439C931 438.344 930.5 438.008 930 438.004ZM970 438.004C969.5 438.008 969 438.344 969 439V442H966C964.656 442 964.688 444 966 444H970C970.552 444 971 443.552 971 443V439C971 438.328 970.5 438 970 438.004Z" fill="#542CF2"/>
<g clip-path="url(#clip2_501_13)">
<path d="M1318.12 701.5V719H1321.44V701.5H1318.12Z" fill="#542CF2"/>
<path d="M1324.75 701.5V719H1328.06V701.5H1324.75Z" fill="#542CF2"/>
<path d="M1311.5 733C1310.62 733.021 1309.75 732.854 1308.94 732.51C1308.13 732.166 1307.39 731.651 1306.77 730.996C1306.15 730.342 1305.66 729.562 1305.34 728.703C1305.01 727.845 1304.86 726.925 1304.88 726C1304.86 725.075 1305.01 724.155 1305.34 723.297C1305.66 722.438 1306.15 721.658 1306.77 721.004C1307.39 720.349 1308.13 719.834 1308.94 719.49C1309.75 719.146 1310.62 718.979 1311.5 719V715.5C1309.53 715.5 1307.61 716.116 1305.98 717.27C1304.34 718.423 1303.07 720.063 1302.32 721.982C1301.57 723.9 1301.37 726.012 1301.75 728.048C1302.14 730.085 1303.08 731.956 1304.47 733.425C1305.86 734.893 1307.63 735.893 1309.56 736.298C1311.49 736.703 1313.49 736.495 1315.3 735.701C1317.12 734.906 1318.67 733.56 1319.76 731.833C1320.85 730.107 1321.44 728.077 1321.44 726H1318.13C1318.14 726.925 1317.99 727.845 1317.66 728.703C1317.34 729.562 1316.85 730.342 1316.23 730.996C1315.61 731.651 1314.87 732.166 1314.06 732.51C1313.25 732.854 1312.38 733.021 1311.5 733Z" fill="#542CF2"/>
<path d="M1332.85 730.294L1328.22 726L1326.04 728.633L1330.67 732.923L1326.76 740.077L1321.08 738.048C1319.75 739.231 1318.22 740.157 1316.59 740.786L1315.41 747H1307.59L1306.42 740.786C1304.79 740.148 1303.28 739.218 1301.95 738.036L1296.24 740.077L1292.33 732.923L1296.85 728.732C1296.54 726.922 1296.53 725.069 1296.84 723.258L1292.33 719.077L1296.24 711.923L1301.92 713.952C1303.26 712.769 1304.78 711.843 1306.41 711.214L1307.59 705H1311.5V701.5H1307.59C1306.83 701.5 1306.08 701.78 1305.49 702.293C1304.9 702.806 1304.49 703.52 1304.34 704.314L1303.51 708.721C1302.75 709.106 1302.01 709.547 1301.31 710.04L1297.3 708.608C1296.58 708.348 1295.79 708.362 1295.07 708.647C1294.36 708.933 1293.76 709.472 1293.37 710.173L1289.46 717.327C1289.08 718.028 1288.94 718.847 1289.06 719.645C1289.19 720.444 1289.57 721.172 1290.15 721.706L1293.34 724.676C1293.32 725.116 1293.28 725.553 1293.28 726C1293.28 726.451 1293.3 726.897 1293.33 727.34L1290.15 730.294C1289.57 730.828 1289.19 731.556 1289.06 732.355C1288.94 733.153 1289.08 733.972 1289.46 734.673L1293.37 741.827C1293.76 742.528 1294.36 743.067 1295.07 743.353C1295.79 743.638 1296.58 743.652 1297.3 743.392L1301.34 741.952C1302.03 742.446 1302.76 742.89 1303.51 743.279L1304.34 747.686C1304.49 748.48 1304.9 749.194 1305.49 749.707C1306.08 750.22 1306.83 750.5 1307.59 750.5H1315.41C1316.17 750.5 1316.92 750.22 1317.51 749.707C1318.1 749.194 1318.51 748.48 1318.66 747.686L1319.49 743.279C1320.25 742.894 1320.99 742.453 1321.69 741.96L1325.7 743.392C1326.42 743.652 1327.21 743.638 1327.93 743.353C1328.64 743.067 1329.24 742.528 1329.63 741.827L1333.54 734.673C1333.92 733.972 1334.06 733.153 1333.94 732.355C1333.81 731.556 1333.43 730.828 1332.85 730.294Z" fill="#542CF2"/>
</g>
<path d="M664.128 538.216C663.456 538.216 662.848 538.36 662.304 538.648C661.76 538.936 661.296 539.352 660.912 539.896C660.544 540.44 660.264 541.096 660.072 541.864C659.88 542.632 659.784 543.496 659.784 544.456C659.784 545.752 659.944 546.864 660.264 547.792C660.584 548.704 661.072 549.408 661.728 549.904C662.384 550.4 663.208 550.648 664.2 550.648C664.888 550.648 665.56 550.576 666.216 550.432C666.872 550.272 667.536 550.064 668.208 549.808V552.424C667.552 552.712 666.872 552.92 666.168 553.048C665.48 553.176 664.704 553.24 663.84 553.24C662.16 553.24 660.776 552.88 659.688 552.16C658.6 551.424 657.784 550.4 657.24 549.088C656.712 547.76 656.448 546.208 656.448 544.432C656.448 543.136 656.616 541.952 656.952 540.88C657.288 539.808 657.784 538.88 658.44 538.096C659.096 537.312 659.904 536.704 660.864 536.272C661.824 535.84 662.92 535.624 664.152 535.624C664.968 535.624 665.792 535.728 666.624 535.936C667.472 536.128 668.216 536.4 668.856 536.752L667.776 539.272C667.216 539 666.632 538.76 666.024 538.552C665.432 538.328 664.8 538.216 664.128 538.216ZM676.646 535.624C677.542 535.624 678.318 535.768 678.974 536.056C679.646 536.344 680.166 536.768 680.534 537.328C680.902 537.872 681.086 538.536 681.086 539.32C681.086 540.392 680.79 541.296 680.198 542.032C679.606 542.768 678.854 543.416 677.942 543.976L681.206 547.672C681.542 547.144 681.814 546.576 682.022 545.968C682.246 545.344 682.43 544.704 682.574 544.048H685.862C685.638 544.992 685.31 545.952 684.878 546.928C684.446 547.888 683.934 548.768 683.342 549.568L686.702 553H682.622L681.182 551.416C680.846 551.688 680.502 551.936 680.15 552.16C679.798 552.384 679.422 552.576 679.022 552.736C678.622 552.896 678.182 553.016 677.702 553.096C677.222 553.192 676.686 553.24 676.094 553.24C674.926 553.24 673.926 553.048 673.094 552.664C672.262 552.264 671.622 551.704 671.174 550.984C670.742 550.264 670.526 549.416 670.526 548.44C670.526 547.624 670.654 546.92 670.91 546.328C671.166 545.736 671.526 545.216 671.99 544.768C672.454 544.32 673.014 543.904 673.67 543.52C673.35 543.072 673.062 542.64 672.806 542.224C672.55 541.792 672.35 541.36 672.206 540.928C672.078 540.48 672.014 540 672.014 539.488C672.014 538.688 672.198 538 672.566 537.424C672.934 536.832 673.462 536.384 674.15 536.08C674.854 535.776 675.686 535.624 676.646 535.624ZM675.494 545.344C675.158 545.6 674.862 545.872 674.606 546.16C674.35 546.432 674.158 546.736 674.03 547.072C673.902 547.392 673.838 547.768 673.838 548.2C673.838 548.952 674.07 549.552 674.534 550C674.998 550.448 675.598 550.672 676.334 550.672C676.974 550.672 677.534 550.568 678.014 550.36C678.494 550.152 678.902 549.888 679.238 549.568L675.494 545.344ZM676.598 537.976C676.15 537.976 675.766 538.112 675.446 538.384C675.126 538.64 674.966 539.056 674.966 539.632C674.966 540.096 675.078 540.536 675.302 540.952C675.526 541.368 675.822 541.808 676.19 542.272C676.846 541.84 677.326 541.416 677.63 541C677.95 540.584 678.11 540.104 678.11 539.56C678.11 539.048 677.966 538.656 677.678 538.384C677.39 538.112 677.03 537.976 676.598 537.976ZM691.883 553H688.715V535.864H697.955V538.432H691.883V543.472H697.547V546.04H691.883V553ZM711.588 539.752C713.156 539.752 714.356 540.12 715.188 540.856C716.02 541.576 716.436 542.712 716.436 544.264V553H714.204L713.58 551.2H713.484C713.132 551.664 712.772 552.056 712.404 552.376C712.036 552.68 711.612 552.896 711.132 553.024C710.652 553.168 710.076 553.24 709.404 553.24C708.684 553.24 708.036 553.096 707.46 552.808C706.884 552.52 706.428 552.08 706.092 551.488C705.756 550.88 705.588 550.12 705.588 549.208C705.588 547.864 706.052 546.856 706.98 546.184C707.908 545.496 709.3 545.12 711.156 545.056L713.244 544.984V544.336C713.244 543.504 713.068 542.912 712.716 542.56C712.364 542.208 711.884 542.032 711.276 542.032C710.7 542.032 710.116 542.128 709.524 542.32C708.948 542.512 708.38 542.736 707.82 542.992L706.836 540.88C707.492 540.544 708.22 540.272 709.02 540.064C709.82 539.856 710.676 539.752 711.588 539.752ZM711.9 546.904C710.764 546.952 709.972 547.184 709.524 547.6C709.076 548 708.852 548.544 708.852 549.232C708.852 549.84 709.004 550.28 709.308 550.552C709.628 550.824 710.044 550.96 710.556 550.96C711.308 550.96 711.948 550.712 712.476 550.216C713.004 549.704 713.268 548.952 713.268 547.96V546.856L711.9 546.904ZM723.914 539.752C724.714 539.752 725.41 539.912 726.002 540.232C726.594 540.552 727.09 541.032 727.49 541.672H727.586L727.874 539.992H730.562V553.096C730.562 554.328 730.338 555.36 729.89 556.192C729.442 557.04 728.77 557.68 727.874 558.112C726.994 558.544 725.874 558.76 724.514 558.76C723.602 558.76 722.77 558.696 722.018 558.568C721.282 558.456 720.578 558.256 719.906 557.968V555.472C720.37 555.68 720.842 555.856 721.322 556C721.818 556.16 722.33 556.28 722.858 556.36C723.386 556.44 723.946 556.48 724.538 556.48C725.466 556.48 726.17 556.2 726.65 555.64C727.146 555.08 727.394 554.28 727.394 553.24V552.904C727.394 552.664 727.402 552.384 727.418 552.064C727.45 551.744 727.474 551.488 727.49 551.296H727.394C727.01 551.968 726.53 552.464 725.954 552.784C725.378 553.088 724.682 553.24 723.866 553.24C722.41 553.24 721.258 552.648 720.41 551.464C719.578 550.28 719.162 548.632 719.162 546.52C719.162 545.096 719.354 543.88 719.738 542.872C720.122 541.864 720.666 541.096 721.37 540.568C722.09 540.024 722.938 539.752 723.914 539.752ZM724.874 542.224C724.33 542.224 723.874 542.392 723.506 542.728C723.154 543.048 722.882 543.528 722.69 544.168C722.498 544.808 722.402 545.608 722.402 546.568C722.402 547.976 722.61 549.04 723.026 549.76C723.442 550.48 724.066 550.84 724.898 550.84C725.378 550.84 725.786 550.776 726.122 550.648C726.458 550.504 726.73 550.28 726.938 549.976C727.146 549.656 727.306 549.256 727.418 548.776C727.53 548.28 727.586 547.688 727.586 547V546.544C727.586 545.504 727.49 544.672 727.298 544.048C727.122 543.408 726.834 542.944 726.434 542.656C726.034 542.368 725.514 542.224 724.874 542.224ZM739.125 539.752C740.245 539.752 741.205 539.992 742.005 540.472C742.821 540.936 743.453 541.608 743.901 542.488C744.349 543.352 744.573 544.408 744.573 545.656V547.192H736.605C736.637 548.376 736.925 549.296 737.469 549.952C738.029 550.592 738.813 550.912 739.821 550.912C740.621 550.912 741.333 550.832 741.957 550.672C742.581 550.496 743.229 550.248 743.901 549.928V552.352C743.293 552.656 742.661 552.88 742.005 553.024C741.349 553.168 740.541 553.24 739.581 553.24C738.365 553.24 737.285 553 736.341 552.52C735.413 552.024 734.685 551.28 734.157 550.288C733.629 549.296 733.365 548.064 733.365 546.592C733.365 545.104 733.605 543.856 734.085 542.848C734.565 541.824 735.237 541.056 736.101 540.544C736.981 540.016 737.989 539.752 739.125 539.752ZM739.173 541.984C738.453 541.984 737.869 542.248 737.421 542.776C736.989 543.288 736.733 544.056 736.653 545.08H741.549C741.549 544.472 741.461 543.936 741.285 543.472C741.109 543.008 740.845 542.648 740.493 542.392C740.157 542.12 739.717 541.984 739.173 541.984ZM754.142 539.752C755.502 539.752 756.574 540.128 757.358 540.88C758.142 541.632 758.534 542.848 758.534 544.528V553H755.342V545.128C755.342 544.152 755.174 543.424 754.838 542.944C754.502 542.448 753.974 542.2 753.254 542.2C752.182 542.2 751.454 542.584 751.07 543.352C750.686 544.104 750.494 545.2 750.494 546.64V553H747.302V539.992H749.75L750.206 541.696H750.326C750.614 541.248 750.95 540.88 751.334 540.592C751.718 540.304 752.15 540.096 752.63 539.968C753.11 539.824 753.614 539.752 754.142 539.752ZM767.015 550.816C767.367 550.816 767.703 550.784 768.023 550.72C768.359 550.64 768.671 550.552 768.959 550.456V552.712C768.623 552.856 768.215 552.976 767.735 553.072C767.255 553.184 766.719 553.24 766.127 553.24C765.391 553.24 764.735 553.12 764.159 552.88C763.583 552.624 763.127 552.192 762.791 551.584C762.471 550.976 762.311 550.128 762.311 549.04V542.272H760.679V540.952L762.503 539.896L763.463 537.136H765.479V539.992H768.839V542.272H765.479V549.016C765.479 549.624 765.615 550.08 765.887 550.384C766.175 550.672 766.551 550.816 767.015 550.816ZM779.894 549.232C779.894 550.096 779.702 550.832 779.318 551.44C778.934 552.032 778.366 552.48 777.614 552.784C776.862 553.088 775.918 553.24 774.782 553.24C773.918 553.24 773.166 553.176 772.526 553.048C771.886 552.92 771.27 552.72 770.678 552.448V549.88C771.318 550.184 772.006 550.44 772.742 550.648C773.494 550.856 774.174 550.96 774.782 550.96C775.502 550.96 776.022 550.832 776.342 550.576C776.662 550.32 776.822 549.976 776.822 549.544C776.822 549.288 776.75 549.056 776.606 548.848C776.478 548.64 776.206 548.424 775.79 548.2C775.39 547.96 774.806 547.664 774.038 547.312C773.286 546.976 772.662 546.64 772.166 546.304C771.67 545.968 771.294 545.568 771.038 545.104C770.782 544.624 770.654 544.024 770.654 543.304C770.654 542.136 771.094 541.256 771.974 540.664C772.87 540.056 774.038 539.752 775.478 539.752C776.262 539.752 776.99 539.832 777.662 539.992C778.35 540.136 779.038 540.376 779.726 540.712L778.79 542.944C778.406 542.768 778.014 542.616 777.614 542.488C777.23 542.344 776.854 542.232 776.486 542.152C776.134 542.072 775.782 542.032 775.43 542.032C774.87 542.032 774.446 542.136 774.158 542.344C773.87 542.536 773.726 542.816 773.726 543.184C773.726 543.44 773.798 543.672 773.942 543.88C774.086 544.072 774.358 544.272 774.758 544.48C775.158 544.688 775.726 544.952 776.462 545.272C777.198 545.56 777.822 545.872 778.334 546.208C778.846 546.528 779.23 546.928 779.486 547.408C779.758 547.888 779.894 548.496 779.894 549.232Z" fill="black"/>
<path d="M1266.78 545.264C1266.78 547.184 1266.44 548.792 1265.75 550.088C1265.08 551.384 1264.1 552.36 1262.82 553.016C1261.54 553.672 1260 554 1258.21 554H1253.51V536.864H1258.69C1260.36 536.864 1261.8 537.184 1263.01 537.824C1264.23 538.464 1265.16 539.408 1265.8 540.656C1266.45 541.888 1266.78 543.424 1266.78 545.264ZM1263.42 545.36C1263.42 544 1263.24 542.88 1262.87 542C1262.52 541.12 1261.98 540.472 1261.26 540.056C1260.56 539.624 1259.68 539.408 1258.64 539.408H1256.72V551.432H1258.28C1260.01 551.432 1261.3 550.928 1262.15 549.92C1263 548.896 1263.42 547.376 1263.42 545.36ZM1273.01 540.992V554H1269.84V540.992H1273.01ZM1271.45 535.976C1271.91 535.976 1272.31 536.096 1272.65 536.336C1272.98 536.56 1273.15 536.968 1273.15 537.56C1273.15 538.136 1272.98 538.552 1272.65 538.808C1272.31 539.048 1271.91 539.168 1271.45 539.168C1270.95 539.168 1270.53 539.048 1270.2 538.808C1269.86 538.552 1269.69 538.136 1269.69 537.56C1269.69 536.968 1269.86 536.56 1270.2 536.336C1270.53 536.096 1270.95 535.976 1271.45 535.976ZM1285.04 550.232C1285.04 551.096 1284.85 551.832 1284.46 552.44C1284.08 553.032 1283.51 553.48 1282.76 553.784C1282.01 554.088 1281.06 554.24 1279.93 554.24C1279.06 554.24 1278.31 554.176 1277.67 554.048C1277.03 553.92 1276.41 553.72 1275.82 553.448V550.88C1276.46 551.184 1277.15 551.44 1277.89 551.648C1278.64 551.856 1279.32 551.96 1279.93 551.96C1280.65 551.96 1281.17 551.832 1281.49 551.576C1281.81 551.32 1281.97 550.976 1281.97 550.544C1281.97 550.288 1281.89 550.056 1281.75 549.848C1281.62 549.64 1281.35 549.424 1280.93 549.2C1280.53 548.96 1279.95 548.664 1279.18 548.312C1278.43 547.976 1277.81 547.64 1277.31 547.304C1276.81 546.968 1276.44 546.568 1276.18 546.104C1275.93 545.624 1275.8 545.024 1275.8 544.304C1275.8 543.136 1276.24 542.256 1277.12 541.664C1278.01 541.056 1279.18 540.752 1280.62 540.752C1281.41 540.752 1282.13 540.832 1282.81 540.992C1283.49 541.136 1284.18 541.376 1284.87 541.712L1283.93 543.944C1283.55 543.768 1283.16 543.616 1282.76 543.488C1282.37 543.344 1282 543.232 1281.63 543.152C1281.28 543.072 1280.93 543.032 1280.57 543.032C1280.01 543.032 1279.59 543.136 1279.3 543.344C1279.01 543.536 1278.87 543.816 1278.87 544.184C1278.87 544.44 1278.94 544.672 1279.09 544.88C1279.23 545.072 1279.5 545.272 1279.9 545.48C1280.3 545.688 1280.87 545.952 1281.61 546.272C1282.34 546.56 1282.97 546.872 1283.48 547.208C1283.99 547.528 1284.37 547.928 1284.63 548.408C1284.9 548.888 1285.04 549.496 1285.04 550.232ZM1292.78 551.816C1293.14 551.816 1293.47 551.784 1293.79 551.72C1294.13 551.64 1294.44 551.552 1294.73 551.456V553.712C1294.39 553.856 1293.98 553.976 1293.5 554.072C1293.02 554.184 1292.49 554.24 1291.9 554.24C1291.16 554.24 1290.5 554.12 1289.93 553.88C1289.35 553.624 1288.9 553.192 1288.56 552.584C1288.24 551.976 1288.08 551.128 1288.08 550.04V543.272H1286.45V541.952L1288.27 540.896L1289.23 538.136H1291.25V540.992H1294.61V543.272H1291.25V550.016C1291.25 550.624 1291.38 551.08 1291.66 551.384C1291.94 551.672 1292.32 551.816 1292.78 551.816ZM1303.74 540.752C1303.97 540.752 1304.2 540.76 1304.44 540.776C1304.68 540.792 1304.88 540.824 1305.04 540.872L1304.75 543.68C1304.59 543.648 1304.4 543.624 1304.18 543.608C1303.97 543.576 1303.74 543.56 1303.5 543.56C1303.1 543.56 1302.71 543.64 1302.33 543.8C1301.94 543.944 1301.6 544.168 1301.3 544.472C1300.99 544.76 1300.74 545.136 1300.55 545.6C1300.38 546.064 1300.29 546.616 1300.29 547.256V554H1297.1V540.992H1299.54L1299.98 543.248H1300.14C1300.38 542.784 1300.68 542.368 1301.03 542C1301.4 541.616 1301.81 541.312 1302.26 541.088C1302.72 540.864 1303.22 540.752 1303.74 540.752ZM1310.32 540.992V554H1307.15V540.992H1310.32ZM1308.76 535.976C1309.22 535.976 1309.62 536.096 1309.96 536.336C1310.29 536.56 1310.46 536.968 1310.46 537.56C1310.46 538.136 1310.29 538.552 1309.96 538.808C1309.62 539.048 1309.22 539.168 1308.76 539.168C1308.26 539.168 1307.85 539.048 1307.51 538.808C1307.17 538.552 1307.01 538.136 1307.01 537.56C1307.01 536.968 1307.17 536.56 1307.51 536.336C1307.85 536.096 1308.26 535.976 1308.76 535.976ZM1316.95 540.08C1316.95 540.592 1316.93 541.088 1316.9 541.568C1316.89 542.048 1316.86 542.424 1316.83 542.696H1316.95C1317.29 542.152 1317.73 541.696 1318.29 541.328C1318.85 540.944 1319.59 540.752 1320.5 540.752C1321.88 540.752 1323 541.32 1323.86 542.456C1324.74 543.592 1325.18 545.264 1325.18 547.472C1325.18 548.96 1324.98 550.208 1324.58 551.216C1324.2 552.224 1323.65 552.984 1322.93 553.496C1322.21 553.992 1321.37 554.24 1320.41 554.24C1319.51 554.24 1318.79 554.064 1318.25 553.712C1317.72 553.36 1317.29 552.952 1316.95 552.488H1316.73L1316.21 554H1313.78V535.76H1316.95V540.08ZM1319.49 543.2C1318.89 543.2 1318.4 543.344 1318.03 543.632C1317.66 543.92 1317.39 544.36 1317.21 544.952C1317.05 545.544 1316.97 546.296 1316.97 547.208V547.472C1316.97 548.864 1317.16 549.928 1317.53 550.664C1317.89 551.4 1318.57 551.768 1319.57 551.768C1320.33 551.768 1320.92 551.4 1321.32 550.664C1321.73 549.912 1321.94 548.84 1321.94 547.448C1321.94 546.04 1321.73 544.984 1321.32 544.28C1320.92 543.56 1320.31 543.2 1319.49 543.2ZM1339.12 540.992V554H1336.67L1336.27 552.32H1336.1C1335.84 552.768 1335.51 553.136 1335.11 553.424C1334.71 553.696 1334.27 553.896 1333.79 554.024C1333.31 554.168 1332.82 554.24 1332.31 554.24C1331.41 554.24 1330.63 554.072 1329.98 553.736C1329.32 553.4 1328.81 552.888 1328.44 552.2C1328.09 551.496 1327.91 550.592 1327.91 549.488V540.992H1331.11V548.888C1331.11 549.848 1331.27 550.576 1331.59 551.072C1331.92 551.552 1332.45 551.792 1333.17 551.792C1333.89 551.792 1334.45 551.624 1334.85 551.288C1335.27 550.936 1335.55 550.432 1335.71 549.776C1335.87 549.12 1335.95 548.312 1335.95 547.352V540.992H1339.12ZM1347.7 551.816C1348.05 551.816 1348.39 551.784 1348.71 551.72C1349.04 551.64 1349.35 551.552 1349.64 551.456V553.712C1349.31 553.856 1348.9 553.976 1348.42 554.072C1347.94 554.184 1347.4 554.24 1346.81 554.24C1346.07 554.24 1345.42 554.12 1344.84 553.88C1344.27 553.624 1343.81 553.192 1343.47 552.584C1343.15 551.976 1342.99 551.128 1342.99 550.04V543.272H1341.36V541.952L1343.19 540.896L1344.15 538.136H1346.16V540.992H1349.52V543.272H1346.16V550.016C1346.16 550.624 1346.3 551.08 1346.57 551.384C1346.86 551.672 1347.23 551.816 1347.7 551.816ZM1363.19 547.472C1363.19 548.56 1363.06 549.52 1362.79 550.352C1362.51 551.184 1362.11 551.896 1361.59 552.488C1361.07 553.064 1360.45 553.504 1359.71 553.808C1358.98 554.096 1358.15 554.24 1357.24 554.24C1356.39 554.24 1355.6 554.096 1354.87 553.808C1354.15 553.504 1353.52 553.064 1352.99 552.488C1352.48 551.896 1352.08 551.184 1351.79 550.352C1351.51 549.52 1351.36 548.56 1351.36 547.472C1351.36 546.032 1351.59 544.816 1352.06 543.824C1352.54 542.816 1353.23 542.056 1354.12 541.544C1355.02 541.016 1356.08 540.752 1357.31 540.752C1358.47 540.752 1359.48 541.016 1360.36 541.544C1361.24 542.056 1361.93 542.816 1362.43 543.824C1362.94 544.816 1363.19 546.032 1363.19 547.472ZM1354.6 547.472C1354.6 548.384 1354.7 549.168 1354.89 549.824C1355.08 550.464 1355.37 550.952 1355.75 551.288C1356.15 551.624 1356.67 551.792 1357.29 551.792C1357.91 551.792 1358.42 551.624 1358.8 551.288C1359.2 550.952 1359.49 550.464 1359.67 549.824C1359.86 549.168 1359.95 548.384 1359.95 547.472C1359.95 546.544 1359.86 545.768 1359.67 545.144C1359.47 544.504 1359.18 544.024 1358.78 543.704C1358.39 543.368 1357.89 543.2 1357.27 543.2C1356.32 543.2 1355.64 543.568 1355.23 544.304C1354.81 545.04 1354.6 546.096 1354.6 547.472ZM1372.63 540.752C1372.85 540.752 1373.08 540.76 1373.32 540.776C1373.56 540.792 1373.76 540.824 1373.92 540.872L1373.63 543.68C1373.47 543.648 1373.28 543.624 1373.06 543.608C1372.85 543.576 1372.63 543.56 1372.39 543.56C1371.99 543.56 1371.59 543.64 1371.21 543.8C1370.83 543.944 1370.48 544.168 1370.18 544.472C1369.87 544.76 1369.63 545.136 1369.43 545.6C1369.26 546.064 1369.17 546.616 1369.17 547.256V554H1365.98V540.992H1368.43L1368.86 543.248H1369.03C1369.27 542.784 1369.56 542.368 1369.91 542C1370.28 541.616 1370.69 541.312 1371.14 541.088C1371.6 540.864 1372.1 540.752 1372.63 540.752ZM1384.58 550.232C1384.58 551.096 1384.39 551.832 1384 552.44C1383.62 553.032 1383.05 553.48 1382.3 553.784C1381.55 554.088 1380.6 554.24 1379.47 554.24C1378.6 554.24 1377.85 554.176 1377.21 554.048C1376.57 553.92 1375.95 553.72 1375.36 553.448V550.88C1376 551.184 1376.69 551.44 1377.43 551.648C1378.18 551.856 1378.86 551.96 1379.47 551.96C1380.19 551.96 1380.71 551.832 1381.03 551.576C1381.35 551.32 1381.51 550.976 1381.51 550.544C1381.51 550.288 1381.43 550.056 1381.29 549.848C1381.16 549.64 1380.89 549.424 1380.47 549.2C1380.07 548.96 1379.49 548.664 1378.72 548.312C1377.97 547.976 1377.35 547.64 1376.85 547.304C1376.35 546.968 1375.98 546.568 1375.72 546.104C1375.47 545.624 1375.34 545.024 1375.34 544.304C1375.34 543.136 1375.78 542.256 1376.66 541.664C1377.55 541.056 1378.72 540.752 1380.16 540.752C1380.95 540.752 1381.67 540.832 1382.35 540.992C1383.03 541.136 1383.72 541.376 1384.41 541.712L1383.47 543.944C1383.09 543.768 1382.7 543.616 1382.3 543.488C1381.91 543.344 1381.54 543.232 1381.17 543.152C1380.82 543.072 1380.47 543.032 1380.11 543.032C1379.55 543.032 1379.13 543.136 1378.84 543.344C1378.55 543.536 1378.41 543.816 1378.41 544.184C1378.41 544.44 1378.48 544.672 1378.63 544.88C1378.77 545.072 1379.04 545.272 1379.44 545.48C1379.84 545.688 1380.41 545.952 1381.15 546.272C1381.88 546.56 1382.51 546.872 1383.02 547.208C1383.53 547.528 1383.91 547.928 1384.17 548.408C1384.44 548.888 1384.58 549.496 1384.58 550.232Z" fill="black"/>
<path d="M1299.94 870.864C1301.37 870.864 1302.54 871.048 1303.47 871.416C1304.4 871.784 1305.09 872.344 1305.54 873.096C1305.98 873.832 1306.21 874.768 1306.21 875.904C1306.21 876.736 1306.07 877.448 1305.8 878.04C1305.53 878.632 1305.16 879.128 1304.7 879.528C1304.25 879.912 1303.76 880.224 1303.23 880.464L1307.84 888H1304.19L1300.47 881.232H1298.38V888H1295.17V870.864H1299.94ZM1299.8 873.432H1298.38V878.712H1299.85C1300.54 878.712 1301.1 878.608 1301.55 878.4C1302.02 878.192 1302.36 877.888 1302.58 877.488C1302.82 877.088 1302.94 876.592 1302.94 876C1302.94 875.376 1302.83 874.88 1302.61 874.512C1302.38 874.128 1302.04 873.856 1301.58 873.696C1301.11 873.52 1300.52 873.432 1299.8 873.432ZM1314.71 874.752C1315.83 874.752 1316.79 874.992 1317.59 875.472C1318.41 875.936 1319.04 876.608 1319.49 877.488C1319.94 878.352 1320.16 879.408 1320.16 880.656V882.192H1312.19C1312.22 883.376 1312.51 884.296 1313.06 884.952C1313.62 885.592 1314.4 885.912 1315.41 885.912C1316.21 885.912 1316.92 885.832 1317.54 885.672C1318.17 885.496 1318.82 885.248 1319.49 884.928V887.352C1318.88 887.656 1318.25 887.88 1317.59 888.024C1316.94 888.168 1316.13 888.24 1315.17 888.24C1313.95 888.24 1312.87 888 1311.93 887.52C1311 887.024 1310.27 886.28 1309.74 885.288C1309.22 884.296 1308.95 883.064 1308.95 881.592C1308.95 880.104 1309.19 878.856 1309.67 877.848C1310.15 876.824 1310.82 876.056 1311.69 875.544C1312.57 875.016 1313.58 874.752 1314.71 874.752ZM1314.76 876.984C1314.04 876.984 1313.46 877.248 1313.01 877.776C1312.58 878.288 1312.32 879.056 1312.24 880.08H1317.14C1317.14 879.472 1317.05 878.936 1316.87 878.472C1316.7 878.008 1316.43 877.648 1316.08 877.392C1315.74 877.12 1315.3 876.984 1314.76 876.984ZM1327.98 885.816C1328.33 885.816 1328.66 885.784 1328.98 885.72C1329.32 885.64 1329.63 885.552 1329.92 885.456V887.712C1329.58 887.856 1329.18 887.976 1328.7 888.072C1328.22 888.184 1327.68 888.24 1327.09 888.24C1326.35 888.24 1325.7 888.12 1325.12 887.88C1324.54 887.624 1324.09 887.192 1323.75 886.584C1323.43 885.976 1323.27 885.128 1323.27 884.04V877.272H1321.64V875.952L1323.46 874.896L1324.42 872.136H1326.44V874.992H1329.8V877.272H1326.44V884.016C1326.44 884.624 1326.58 885.08 1326.85 885.384C1327.14 885.672 1327.51 885.816 1327.98 885.816ZM1337.49 874.752C1339.06 874.752 1340.26 875.12 1341.09 875.856C1341.93 876.576 1342.34 877.712 1342.34 879.264V888H1340.11L1339.49 886.2H1339.39C1339.04 886.664 1338.68 887.056 1338.31 887.376C1337.94 887.68 1337.52 887.896 1337.04 888.024C1336.56 888.168 1335.98 888.24 1335.31 888.24C1334.59 888.24 1333.94 888.096 1333.37 887.808C1332.79 887.52 1332.33 887.08 1332 886.488C1331.66 885.88 1331.49 885.12 1331.49 884.208C1331.49 882.864 1331.96 881.856 1332.89 881.184C1333.81 880.496 1335.21 880.12 1337.06 880.056L1339.15 879.984V879.336C1339.15 878.504 1338.97 877.912 1338.62 877.56C1338.27 877.208 1337.79 877.032 1337.18 877.032C1336.61 877.032 1336.02 877.128 1335.43 877.32C1334.85 877.512 1334.29 877.736 1333.73 877.992L1332.74 875.88C1333.4 875.544 1334.13 875.272 1334.93 875.064C1335.73 874.856 1336.58 874.752 1337.49 874.752ZM1337.81 881.904C1336.67 881.952 1335.88 882.184 1335.43 882.6C1334.98 883 1334.76 883.544 1334.76 884.232C1334.76 884.84 1334.91 885.28 1335.21 885.552C1335.53 885.824 1335.95 885.96 1336.46 885.96C1337.21 885.96 1337.85 885.712 1338.38 885.216C1338.91 884.704 1339.17 883.952 1339.17 882.96V881.856L1337.81 881.904ZM1348.91 874.992V888H1345.74V874.992H1348.91ZM1347.35 869.976C1347.81 869.976 1348.21 870.096 1348.55 870.336C1348.88 870.56 1349.05 870.968 1349.05 871.56C1349.05 872.136 1348.88 872.552 1348.55 872.808C1348.21 873.048 1347.81 873.168 1347.35 873.168C1346.85 873.168 1346.44 873.048 1346.1 872.808C1345.76 872.552 1345.6 872.136 1345.6 871.56C1345.6 870.968 1345.76 870.56 1346.1 870.336C1346.44 870.096 1346.85 869.976 1347.35 869.976ZM1355.56 888H1352.37V869.76H1355.56V888ZM1364.14 874.752C1365.26 874.752 1366.22 874.992 1367.02 875.472C1367.84 875.936 1368.47 876.608 1368.92 877.488C1369.36 878.352 1369.59 879.408 1369.59 880.656V882.192H1361.62C1361.65 883.376 1361.94 884.296 1362.48 884.952C1363.04 885.592 1363.83 885.912 1364.84 885.912C1365.64 885.912 1366.35 885.832 1366.97 885.672C1367.6 885.496 1368.24 885.248 1368.92 884.928V887.352C1368.31 887.656 1367.68 887.88 1367.02 888.024C1366.36 888.168 1365.56 888.24 1364.6 888.24C1363.38 888.24 1362.3 888 1361.36 887.52C1360.43 887.024 1359.7 886.28 1359.17 885.288C1358.64 884.296 1358.38 883.064 1358.38 881.592C1358.38 880.104 1358.62 878.856 1359.1 877.848C1359.58 876.824 1360.25 876.056 1361.12 875.544C1362 875.016 1363 874.752 1364.14 874.752ZM1364.19 876.984C1363.47 876.984 1362.88 877.248 1362.44 877.776C1362 878.288 1361.75 879.056 1361.67 880.08H1366.56C1366.56 879.472 1366.48 878.936 1366.3 878.472C1366.12 878.008 1365.86 877.648 1365.51 877.392C1365.17 877.12 1364.73 876.984 1364.19 876.984ZM1378.97 874.752C1379.19 874.752 1379.42 874.76 1379.66 874.776C1379.9 874.792 1380.1 874.824 1380.26 874.872L1379.97 877.68C1379.81 877.648 1379.62 877.624 1379.4 877.608C1379.19 877.576 1378.97 877.56 1378.73 877.56C1378.33 877.56 1377.93 877.64 1377.55 877.8C1377.17 877.944 1376.82 878.168 1376.52 878.472C1376.21 878.76 1375.97 879.136 1375.77 879.6C1375.6 880.064 1375.51 880.616 1375.51 881.256V888H1372.32V874.992H1374.77L1375.2 877.248H1375.37C1375.61 876.784 1375.9 876.368 1376.25 876C1376.62 875.616 1377.03 875.312 1377.48 875.088C1377.94 874.864 1378.44 874.752 1378.97 874.752ZM1390.92 884.232C1390.92 885.096 1390.73 885.832 1390.34 886.44C1389.96 887.032 1389.39 887.48 1388.64 887.784C1387.89 888.088 1386.94 888.24 1385.81 888.24C1384.94 888.24 1384.19 888.176 1383.55 888.048C1382.91 887.92 1382.29 887.72 1381.7 887.448V884.88C1382.34 885.184 1383.03 885.44 1383.77 885.648C1384.52 885.856 1385.2 885.96 1385.81 885.96C1386.53 885.96 1387.05 885.832 1387.37 885.576C1387.69 885.32 1387.85 884.976 1387.85 884.544C1387.85 884.288 1387.77 884.056 1387.63 883.848C1387.5 883.64 1387.23 883.424 1386.81 883.2C1386.41 882.96 1385.83 882.664 1385.06 882.312C1384.31 881.976 1383.69 881.64 1383.19 881.304C1382.69 880.968 1382.32 880.568 1382.06 880.104C1381.81 879.624 1381.68 879.024 1381.68 878.304C1381.68 877.136 1382.12 876.256 1383 875.664C1383.89 875.056 1385.06 874.752 1386.5 874.752C1387.29 874.752 1388.01 874.832 1388.69 874.992C1389.37 875.136 1390.06 875.376 1390.75 875.712L1389.81 877.944C1389.43 877.768 1389.04 877.616 1388.64 877.488C1388.25 877.344 1387.88 877.232 1387.51 877.152C1387.16 877.072 1386.81 877.032 1386.45 877.032C1385.89 877.032 1385.47 877.136 1385.18 877.344C1384.89 877.536 1384.75 877.816 1384.75 878.184C1384.75 878.44 1384.82 878.672 1384.97 878.88C1385.11 879.072 1385.38 879.272 1385.78 879.48C1386.18 879.688 1386.75 879.952 1387.49 880.272C1388.22 880.56 1388.85 880.872 1389.36 881.208C1389.87 881.528 1390.25 881.928 1390.51 882.408C1390.78 882.888 1390.92 883.496 1390.92 884.232Z" fill="black"/>
<rect x="602.5" y="855.5" width="206" height="47" rx="23.5" fill="white" stroke="#542CF2" stroke-width="3"/>
<path d="M632.195 887L628.019 872.96H627.923C627.939 873.28 627.963 873.736 627.995 874.328C628.027 874.904 628.051 875.536 628.067 876.224C628.099 876.896 628.115 877.528 628.115 878.12V887H625.235V869.864H629.651L633.731 883.328H633.803L637.955 869.864H642.395V887H639.371V877.976C639.371 877.432 639.379 876.84 639.395 876.2C639.411 875.544 639.435 874.928 639.467 874.352C639.499 873.76 639.523 873.304 639.539 872.984H639.443L635.147 887H632.195ZM651.342 873.752C652.91 873.752 654.11 874.12 654.942 874.856C655.774 875.576 656.19 876.712 656.19 878.264V887H653.958L653.334 885.2H653.238C652.886 885.664 652.526 886.056 652.158 886.376C651.79 886.68 651.366 886.896 650.886 887.024C650.406 887.168 649.83 887.24 649.158 887.24C648.438 887.24 647.79 887.096 647.214 886.808C646.638 886.52 646.182 886.08 645.846 885.488C645.51 884.88 645.342 884.12 645.342 883.208C645.342 881.864 645.806 880.856 646.734 880.184C647.662 879.496 649.054 879.12 650.91 879.056L652.998 878.984V878.336C652.998 877.504 652.822 876.912 652.47 876.56C652.118 876.208 651.638 876.032 651.03 876.032C650.454 876.032 649.87 876.128 649.278 876.32C648.702 876.512 648.134 876.736 647.574 876.992L646.59 874.88C647.246 874.544 647.974 874.272 648.774 874.064C649.574 873.856 650.43 873.752 651.342 873.752ZM651.654 880.904C650.518 880.952 649.726 881.184 649.278 881.6C648.83 882 648.606 882.544 648.606 883.232C648.606 883.84 648.758 884.28 649.062 884.552C649.382 884.824 649.798 884.96 650.31 884.96C651.062 884.96 651.702 884.712 652.23 884.216C652.758 883.704 653.022 882.952 653.022 881.96V880.856L651.654 880.904ZM666.404 873.752C667.764 873.752 668.836 874.128 669.62 874.88C670.404 875.632 670.796 876.848 670.796 878.528V887H667.604V879.128C667.604 878.152 667.436 877.424 667.1 876.944C666.764 876.448 666.236 876.2 665.516 876.2C664.444 876.2 663.716 876.584 663.332 877.352C662.948 878.104 662.756 879.2 662.756 880.64V887H659.564V873.992H662.012L662.468 875.696H662.588C662.876 875.248 663.212 874.88 663.596 874.592C663.98 874.304 664.412 874.096 664.892 873.968C665.372 873.824 665.876 873.752 666.404 873.752ZM685.325 873.992V887H682.877L682.469 885.32H682.301C682.045 885.768 681.717 886.136 681.317 886.424C680.917 886.696 680.477 886.896 679.997 887.024C679.517 887.168 679.021 887.24 678.509 887.24C677.613 887.24 676.837 887.072 676.181 886.736C675.525 886.4 675.013 885.888 674.645 885.2C674.293 884.496 674.117 883.592 674.117 882.488V873.992H677.309V881.888C677.309 882.848 677.469 883.576 677.789 884.072C678.125 884.552 678.653 884.792 679.373 884.792C680.093 884.792 680.653 884.624 681.053 884.288C681.469 883.936 681.757 883.432 681.917 882.776C682.077 882.12 682.157 881.312 682.157 880.352V873.992H685.325ZM695.462 876.272H692.582V887H689.39V876.272H687.518V874.832L689.414 873.968V873.08C689.414 871.96 689.574 871.08 689.894 870.44C690.214 869.8 690.686 869.344 691.31 869.072C691.934 868.784 692.694 868.64 693.59 868.64C694.182 868.64 694.718 868.696 695.198 868.808C695.694 868.904 696.134 869.016 696.518 869.144L695.75 871.4C695.51 871.32 695.238 871.248 694.934 871.184C694.646 871.104 694.342 871.064 694.022 871.064C693.526 871.064 693.158 871.248 692.918 871.616C692.694 871.984 692.582 872.496 692.582 873.152V873.992H695.462V876.272ZM702.6 873.752C704.168 873.752 705.368 874.12 706.2 874.856C707.032 875.576 707.448 876.712 707.448 878.264V887H705.216L704.592 885.2H704.496C704.144 885.664 703.784 886.056 703.416 886.376C703.048 886.68 702.624 886.896 702.144 887.024C701.664 887.168 701.088 887.24 700.416 887.24C699.696 887.24 699.048 887.096 698.472 886.808C697.896 886.52 697.44 886.08 697.104 885.488C696.768 884.88 696.6 884.12 696.6 883.208C696.6 881.864 697.064 880.856 697.992 880.184C698.92 879.496 700.312 879.12 702.168 879.056L704.256 878.984V878.336C704.256 877.504 704.08 876.912 703.728 876.56C703.376 876.208 702.896 876.032 702.288 876.032C701.712 876.032 701.128 876.128 700.536 876.32C699.96 876.512 699.392 876.736 698.832 876.992L697.848 874.88C698.504 874.544 699.232 874.272 700.032 874.064C700.832 873.856 701.688 873.752 702.6 873.752ZM702.912 880.904C701.776 880.952 700.984 881.184 700.536 881.6C700.088 882 699.864 882.544 699.864 883.232C699.864 883.84 700.016 884.28 700.32 884.552C700.64 884.824 701.056 884.96 701.568 884.96C702.32 884.96 702.96 884.712 703.488 884.216C704.016 883.704 704.28 882.952 704.28 881.96V880.856L702.912 880.904ZM716.006 887.24C714.806 887.24 713.766 887.008 712.886 886.544C712.022 886.064 711.35 885.336 710.87 884.36C710.406 883.368 710.174 882.104 710.174 880.568C710.174 878.968 710.43 877.672 710.942 876.68C711.47 875.672 712.19 874.936 713.102 874.472C714.03 873.992 715.078 873.752 716.246 873.752C716.982 873.752 717.67 873.832 718.31 873.992C718.966 874.152 719.51 874.344 719.942 874.568L718.982 876.896C718.55 876.72 718.118 876.568 717.686 876.44C717.254 876.312 716.822 876.248 716.39 876.248C715.734 876.248 715.19 876.408 714.758 876.728C714.326 877.048 713.99 877.528 713.75 878.168C713.526 878.792 713.414 879.584 713.414 880.544C713.414 881.472 713.526 882.248 713.75 882.872C713.99 883.496 714.326 883.968 714.758 884.288C715.19 884.592 715.718 884.744 716.342 884.744C716.966 884.744 717.542 884.656 718.07 884.48C718.614 884.304 719.126 884.064 719.606 883.76V886.376C719.11 886.68 718.582 886.896 718.022 887.024C717.462 887.168 716.79 887.24 716.006 887.24ZM727.441 884.816C727.793 884.816 728.129 884.784 728.449 884.72C728.785 884.64 729.097 884.552 729.385 884.456V886.712C729.049 886.856 728.641 886.976 728.161 887.072C727.681 887.184 727.145 887.24 726.553 887.24C725.817 887.24 725.161 887.12 724.585 886.88C724.009 886.624 723.553 886.192 723.217 885.584C722.897 884.976 722.737 884.128 722.737 883.04V876.272H721.105V874.952L722.929 873.896L723.889 871.136H725.905V873.992H729.265V876.272H725.905V883.016C725.905 883.624 726.041 884.08 726.313 884.384C726.601 884.672 726.977 884.816 727.441 884.816ZM742.887 873.992V887H740.439L740.031 885.32H739.863C739.607 885.768 739.279 886.136 738.879 886.424C738.479 886.696 738.039 886.896 737.559 887.024C737.079 887.168 736.583 887.24 736.071 887.24C735.175 887.24 734.399 887.072 733.743 886.736C733.087 886.4 732.575 885.888 732.207 885.2C731.855 884.496 731.679 883.592 731.679 882.488V873.992H734.871V881.888C734.871 882.848 735.031 883.576 735.351 884.072C735.687 884.552 736.215 884.792 736.935 884.792C737.655 884.792 738.215 884.624 738.615 884.288C739.031 883.936 739.319 883.432 739.479 882.776C739.639 882.12 739.719 881.312 739.719 880.352V873.992H742.887ZM753.024 873.752C753.248 873.752 753.48 873.76 753.72 873.776C753.96 873.792 754.16 873.824 754.32 873.872L754.032 876.68C753.872 876.648 753.68 876.624 753.456 876.608C753.248 876.576 753.024 876.56 752.784 876.56C752.384 876.56 751.992 876.64 751.608 876.8C751.224 876.944 750.88 877.168 750.576 877.472C750.272 877.76 750.024 878.136 749.832 878.6C749.656 879.064 749.568 879.616 749.568 880.256V887H746.376V873.992H748.824L749.256 876.248H749.424C749.664 875.784 749.96 875.368 750.312 875C750.68 874.616 751.088 874.312 751.536 874.088C752 873.864 752.496 873.752 753.024 873.752ZM761.074 873.752C762.194 873.752 763.154 873.992 763.954 874.472C764.77 874.936 765.402 875.608 765.85 876.488C766.298 877.352 766.522 878.408 766.522 879.656V881.192H758.554C758.586 882.376 758.874 883.296 759.418 883.952C759.978 884.592 760.762 884.912 761.77 884.912C762.57 884.912 763.282 884.832 763.906 884.672C764.53 884.496 765.178 884.248 765.85 883.928V886.352C765.242 886.656 764.61 886.88 763.954 887.024C763.298 887.168 762.49 887.24 761.53 887.24C760.314 887.24 759.234 887 758.29 886.52C757.362 886.024 756.634 885.28 756.106 884.288C755.578 883.296 755.314 882.064 755.314 880.592C755.314 879.104 755.554 877.856 756.034 876.848C756.514 875.824 757.186 875.056 758.05 874.544C758.93 874.016 759.938 873.752 761.074 873.752ZM761.122 875.984C760.402 875.984 759.818 876.248 759.37 876.776C758.938 877.288 758.682 878.056 758.602 879.08H763.498C763.498 878.472 763.41 877.936 763.234 877.472C763.058 877.008 762.794 876.648 762.442 876.392C762.106 876.12 761.666 875.984 761.122 875.984ZM775.899 873.752C776.123 873.752 776.355 873.76 776.595 873.776C776.835 873.792 777.035 873.824 777.195 873.872L776.907 876.68C776.747 876.648 776.555 876.624 776.331 876.608C776.123 876.576 775.899 876.56 775.659 876.56C775.259 876.56 774.867 876.64 774.483 876.8C774.099 876.944 773.755 877.168 773.451 877.472C773.147 877.76 772.899 878.136 772.707 878.6C772.531 879.064 772.443 879.616 772.443 880.256V887H769.251V873.992H771.699L772.131 876.248H772.299C772.539 875.784 772.835 875.368 773.187 875C773.555 874.616 773.963 874.312 774.411 874.088C774.875 873.864 775.371 873.752 775.899 873.752ZM787.851 883.232C787.851 884.096 787.659 884.832 787.275 885.44C786.891 886.032 786.323 886.48 785.571 886.784C784.819 887.088 783.875 887.24 782.739 887.24C781.875 887.24 781.123 887.176 780.483 887.048C779.843 886.92 779.227 886.72 778.635 886.448V883.88C779.275 884.184 779.963 884.44 780.699 884.648C781.451 884.856 782.131 884.96 782.739 884.96C783.459 884.96 783.979 884.832 784.299 884.576C784.619 884.32 784.779 883.976 784.779 883.544C784.779 883.288 784.707 883.056 784.563 882.848C784.435 882.64 784.163 882.424 783.747 882.2C783.347 881.96 782.763 881.664 781.995 881.312C781.243 880.976 780.619 880.64 780.123 880.304C779.627 879.968 779.251 879.568 778.995 879.104C778.739 878.624 778.611 878.024 778.611 877.304C778.611 876.136 779.051 875.256 779.931 874.664C780.827 874.056 781.995 873.752 783.435 873.752C784.219 873.752 784.947 873.832 785.619 873.992C786.307 874.136 786.995 874.376 787.683 874.712L786.747 876.944C786.363 876.768 785.971 876.616 785.571 876.488C785.187 876.344 784.811 876.232 784.443 876.152C784.091 876.072 783.739 876.032 783.387 876.032C782.827 876.032 782.403 876.136 782.115 876.344C781.827 876.536 781.683 876.816 781.683 877.184C781.683 877.44 781.755 877.672 781.899 877.88C782.043 878.072 782.315 878.272 782.715 878.48C783.115 878.688 783.683 878.952 784.419 879.272C785.155 879.56 785.779 879.872 786.291 880.208C786.803 880.528 787.187 880.928 787.443 881.408C787.715 881.888 787.851 882.496 787.851 883.232Z" fill="black"/>
<defs>
<linearGradient id="paint0_linear_501_13" x1="1020" y1="472.167" x2="1020" y2="973.833" gradientUnits="userSpaceOnUse">
<stop stop-color="#9D8BE3"/>
<stop offset="0.32" stop-color="#7A67C7"/>
<stop offset="0.635" stop-color="#5843AC"/>
<stop offset="1" stop-color="#31198C"/>
</linearGradient>
<clipPath id="clip0_501_13">
<rect width="60" height="61" fill="white" transform="translate(771 692)"/>
</clipPath>
<clipPath id="clip1_501_13">
<rect width="55" height="59" fill="white" transform="translate(599 693)"/>
</clipPath>
<clipPath id="clip2_501_13">
<rect width="53" height="56" fill="white" transform="translate(1285 698)"/>
</clipPath>
</defs>
</svg>
