<svg width="888" height="611" viewBox="0 0 888 611" fill="none" xmlns="http://www.w3.org/2000/svg">
<path d="M676.5 331C676.5 468.085 562.176 579.333 421 579.333C279.824 579.333 165.5 468.085 165.5 331C165.5 193.915 279.824 82.6667 421 82.6667C562.176 82.6667 676.5 193.915 676.5 331Z" stroke="url(#paint0_linear_503_16)" stroke-width="5" stroke-linecap="round" stroke-linejoin="round"/>
<path d="M413.5 112.5L421 120M421 120L428.5 112.5M421 120V100M443.5 110C443.5 122.427 433.427 132.5 421 132.5C408.574 132.5 398.5 122.427 398.5 110C398.5 97.5736 408.574 87.5 421 87.5C433.427 87.5 443.5 97.5736 443.5 110Z" stroke="black" stroke-width="5" stroke-linecap="round" stroke-linejoin="round"/>
<path d="M642 323L634.5 330.5M634.5 330.5L642 338M634.5 330.5H654.5M667 330.5C667 342.927 656.927 353 644.5 353C632.074 353 622 342.927 622 330.5C622 318.074 632.074 308 644.5 308C656.927 308 667 318.074 667 330.5Z" stroke="black" stroke-width="5" stroke-linecap="round" stroke-linejoin="round"/>
<g clip-path="url(#clip0_503_16)">
<path d="M199 338.5L206.5 330.875M206.5 330.875L199 323.25M206.5 330.875H186.5M219 330.875C219 343.509 208.927 353.75 196.5 353.75C184.074 353.75 174 343.509 174 330.875C174 318.241 184.074 308 196.5 308C208.927 308 219 318.241 219 330.875Z" stroke="black" stroke-width="5" stroke-linecap="round" stroke-linejoin="round"/>
</g>
<rect x="325" y="298" width="59" height="59" rx="15" fill="#21326F"/>
<path d="M338.528 312.909H346.114L354.125 332.455H354.466L362.477 312.909H370.062V342H364.097V323.065H363.855L356.327 341.858H352.264L344.736 322.994H344.494V342H338.528V312.909Z" fill="#FFFDFD"/>
<path d="M396.4 319.92C398.267 319.92 399.867 320.32 401.2 321.12C402.56 321.893 403.613 323.013 404.36 324.48C405.107 325.92 405.48 327.68 405.48 329.76V332.32H392.2C392.253 334.293 392.733 335.827 393.64 336.92C394.573 337.987 395.88 338.52 397.56 338.52C398.893 338.52 400.08 338.387 401.12 338.12C402.16 337.827 403.24 337.413 404.36 336.88V340.92C403.347 341.427 402.293 341.8 401.2 342.04C400.107 342.28 398.76 342.4 397.16 342.4C395.133 342.4 393.333 342 391.76 341.2C390.213 340.373 389 339.133 388.12 337.48C387.24 335.827 386.8 333.773 386.8 331.32C386.8 328.84 387.2 326.76 388 325.08C388.8 323.373 389.92 322.093 391.36 321.24C392.827 320.36 394.507 319.92 396.4 319.92ZM396.48 323.64C395.28 323.64 394.307 324.08 393.56 324.96C392.84 325.813 392.413 327.093 392.28 328.8H400.44C400.44 327.787 400.293 326.893 400 326.12C399.707 325.347 399.267 324.747 398.68 324.32C398.12 323.867 397.387 323.64 396.48 323.64ZM416.748 342.4C414.428 342.4 412.548 341.467 411.108 339.6C409.668 337.707 408.948 334.907 408.948 331.2C408.948 327.493 409.682 324.693 411.148 322.8C412.615 320.88 414.535 319.92 416.908 319.92C417.895 319.92 418.748 320.067 419.468 320.36C420.215 320.627 420.855 321 421.388 321.48C421.922 321.96 422.388 322.493 422.788 323.08H422.948C422.895 322.707 422.828 322.133 422.748 321.36C422.668 320.587 422.628 319.867 422.628 319.2V311.6H427.948V342H423.868L422.868 339.16H422.628C422.282 339.747 421.842 340.293 421.308 340.8C420.775 341.28 420.135 341.667 419.388 341.96C418.642 342.253 417.762 342.4 416.748 342.4ZM418.508 338.32C420.135 338.32 421.282 337.787 421.948 336.72C422.615 335.653 422.948 334.04 422.948 331.88V331.24C422.948 328.893 422.628 327.107 421.988 325.88C421.348 324.653 420.175 324.04 418.468 324.04C417.135 324.04 416.108 324.68 415.388 325.96C414.695 327.213 414.348 328.987 414.348 331.28C414.348 333.573 414.708 335.32 415.428 336.52C416.148 337.72 417.175 338.32 418.508 338.32ZM447.98 335.72C447.98 337.16 447.66 338.387 447.02 339.4C446.38 340.387 445.434 341.133 444.18 341.64C442.927 342.147 441.354 342.4 439.46 342.4C438.02 342.4 436.767 342.293 435.7 342.08C434.634 341.867 433.607 341.533 432.62 341.08V336.8C433.687 337.307 434.834 337.733 436.06 338.08C437.314 338.427 438.447 338.6 439.46 338.6C440.66 338.6 441.527 338.387 442.06 337.96C442.594 337.533 442.86 336.96 442.86 336.24C442.86 335.813 442.74 335.427 442.5 335.08C442.287 334.733 441.834 334.373 441.14 334C440.474 333.6 439.5 333.107 438.22 332.52C436.967 331.96 435.927 331.4 435.1 330.84C434.274 330.28 433.647 329.613 433.22 328.84C432.794 328.04 432.58 327.04 432.58 325.84C432.58 323.893 433.314 322.427 434.78 321.44C436.274 320.427 438.22 319.92 440.62 319.92C441.927 319.92 443.14 320.053 444.26 320.32C445.407 320.56 446.554 320.96 447.7 321.52L446.14 325.24C445.5 324.947 444.847 324.693 444.18 324.48C443.54 324.24 442.914 324.053 442.3 323.92C441.714 323.787 441.127 323.72 440.54 323.72C439.607 323.72 438.9 323.893 438.42 324.24C437.94 324.56 437.7 325.027 437.7 325.64C437.7 326.067 437.82 326.453 438.06 326.8C438.3 327.12 438.754 327.453 439.42 327.8C440.087 328.147 441.034 328.587 442.26 329.12C443.487 329.6 444.527 330.12 445.38 330.68C446.234 331.213 446.874 331.88 447.3 332.68C447.754 333.48 447.98 334.493 447.98 335.72ZM466.651 330.24C466.545 329.76 466.438 329.28 466.331 328.8C466.225 328.293 466.118 327.8 466.011 327.32C465.905 326.84 465.811 326.387 465.731 325.96C465.651 325.533 465.585 325.133 465.531 324.76H465.411C465.385 325.133 465.331 325.547 465.251 326C465.171 326.427 465.078 326.88 464.971 327.36C464.891 327.84 464.785 328.333 464.651 328.84C464.545 329.347 464.438 329.853 464.331 330.36L461.411 342H455.291L449.931 320.28H455.171L457.531 331.56C457.665 332.28 457.798 333 457.931 333.72C458.065 334.44 458.185 335.133 458.291 335.8C458.398 336.44 458.478 337.013 458.531 337.52H458.691C458.745 337.173 458.811 336.747 458.891 336.24C458.971 335.707 459.065 335.173 459.171 334.64C459.278 334.08 459.371 333.56 459.451 333.08C459.558 332.6 459.651 332.213 459.731 331.92L462.611 320.28H468.411L471.211 331.92C471.318 332.373 471.438 332.947 471.571 333.64C471.705 334.307 471.825 334.987 471.931 335.68C472.065 336.373 472.145 336.973 472.171 337.48H472.291C472.345 337 472.425 336.44 472.531 335.8C472.638 335.16 472.758 334.48 472.891 333.76C473.051 333.013 473.211 332.28 473.371 331.56L475.891 320.28H481.011L475.531 342H469.371L466.651 330.24ZM492.966 319.92C495.58 319.92 497.58 320.533 498.966 321.76C500.353 322.96 501.046 324.853 501.046 327.44V342H497.326L496.286 339H496.126C495.54 339.773 494.94 340.427 494.326 340.96C493.713 341.467 493.006 341.827 492.206 342.04C491.406 342.28 490.446 342.4 489.326 342.4C488.126 342.4 487.046 342.16 486.086 341.68C485.126 341.2 484.366 340.467 483.806 339.48C483.246 338.467 482.966 337.2 482.966 335.68C482.966 333.44 483.74 331.76 485.286 330.64C486.833 329.493 489.153 328.867 492.246 328.76L495.726 328.64V327.56C495.726 326.173 495.433 325.187 494.846 324.6C494.26 324.013 493.46 323.72 492.446 323.72C491.486 323.72 490.513 323.88 489.526 324.2C488.566 324.52 487.62 324.893 486.686 325.32L485.046 321.8C486.14 321.24 487.353 320.787 488.686 320.44C490.02 320.093 491.446 319.92 492.966 319.92ZM493.486 331.84C491.593 331.92 490.273 332.307 489.526 333C488.78 333.667 488.406 334.573 488.406 335.72C488.406 336.733 488.66 337.467 489.166 337.92C489.7 338.373 490.393 338.6 491.246 338.6C492.5 338.6 493.566 338.187 494.446 337.36C495.326 336.507 495.766 335.253 495.766 333.6V331.76L493.486 331.84ZM503.789 320.32H509.469L513.349 332.56C513.536 333.067 513.682 333.573 513.789 334.08C513.922 334.587 514.029 335.093 514.109 335.6C514.216 336.107 514.296 336.613 514.349 337.12H514.469C514.576 336.453 514.709 335.72 514.869 334.92C515.056 334.12 515.269 333.333 515.509 332.56L519.309 320.32H524.909L516.309 344.84C515.802 346.28 515.162 347.507 514.389 348.52C513.642 349.533 512.722 350.293 511.629 350.8C510.562 351.333 509.282 351.6 507.789 351.6C507.176 351.6 506.629 351.56 506.149 351.48C505.696 351.427 505.296 351.36 504.949 351.28V347.28C505.216 347.333 505.549 347.387 505.949 347.44C506.349 347.493 506.762 347.52 507.189 347.52C507.962 347.52 508.616 347.347 509.149 347C509.709 346.68 510.176 346.227 510.549 345.64C510.922 345.08 511.202 344.427 511.389 343.68L511.949 341.92L503.789 320.32Z" fill="black"/>
<rect x="18.5" y="129.5" width="206" height="47" rx="23.5" fill="white" stroke="#542CF2" stroke-width="3"/>
<rect x="618.5" y="129.5" width="206" height="47" rx="23.5" fill="white" stroke="#542CF2" stroke-width="3"/>
<rect x="635.5" y="463.5" width="206" height="47" rx="23.5" fill="white" stroke="#542CF2" stroke-width="3"/>
<g clip-path="url(#clip1_503_16)">
<path d="M39.5312 356.976H15.4687V355.649H26.8812V347.757H5.15623C2.92013 347.757 1.09998 345.805 1.09998 343.406V312.062C1.09998 309.664 2.92013 307.711 5.15623 307.711H40.9939C41.5301 306.616 42.5992 305.867 43.8281 305.867C45.5898 305.867 47.025 307.405 47.025 309.297C47.025 311.189 45.5898 312.726 43.8281 312.726C43.1698 312.726 42.5579 312.512 42.0492 312.145L31.0148 323.982C31.3569 324.528 31.5562 325.184 31.5562 325.891C31.5562 327.78 30.1211 329.32 28.3594 329.32C26.5976 329.32 25.1625 327.782 25.1625 325.891C25.1625 325.184 25.3619 324.528 25.7039 323.982L23.2633 321.364C22.2458 322.098 20.7212 322.098 19.7054 321.364L13.8273 327.67C14.1694 328.216 14.3687 328.872 14.3687 329.578C14.3687 331.468 12.9353 333.007 11.1719 333.007C9.40841 333.007 7.97498 331.468 7.97498 329.578C7.97498 327.688 9.40841 326.149 11.1719 326.149C11.8301 326.149 12.442 326.363 12.9508 326.73L18.8289 320.424C18.4869 319.878 18.2875 319.222 18.2875 318.516C18.2875 316.626 19.7209 315.086 21.4844 315.086C23.2478 315.086 24.6812 316.624 24.6812 318.516C24.6812 319.222 24.4818 319.878 24.1398 320.424L26.5804 323.042C27.5979 322.308 29.1225 322.308 30.1383 323.042L41.1726 311.205C40.8306 310.659 40.6312 310.003 40.6312 309.297C40.6312 309.21 40.6347 309.124 40.6415 309.039H5.15623C3.60248 309.039 2.33748 310.396 2.33748 312.062V337.211H52.6625V308.375H53.9017V343.406C53.9017 345.807 52.0815 347.757 49.8454 347.757H28.1187V355.647H39.5312V356.976ZM2.33748 338.539V343.406C2.33748 345.073 3.60248 346.43 5.15623 346.43H49.8437C51.3975 346.43 52.6625 345.075 52.6625 343.406V338.539H2.33748ZM11.1719 327.476C10.0925 327.476 9.21248 328.42 9.21248 329.578C9.21248 330.736 10.0925 331.68 11.1719 331.68C12.2512 331.68 13.1312 330.736 13.1312 329.578C13.1312 328.42 12.2512 327.476 11.1719 327.476ZM28.3594 323.789C27.28 323.789 26.4 324.733 26.4 325.891C26.4 327.048 27.28 327.992 28.3594 327.992C29.4404 327.992 30.3187 327.048 30.3187 325.891C30.3187 324.733 29.4404 323.789 28.3594 323.789ZM21.4844 316.414C20.405 316.414 19.525 317.358 19.525 318.516C19.525 319.673 20.405 320.617 21.4844 320.617C22.5637 320.617 23.4437 319.673 23.4437 318.516C23.4437 317.358 22.5637 316.414 21.4844 316.414ZM43.8281 307.195C42.747 307.195 41.8687 308.139 41.8687 309.297C41.8687 310.455 42.747 311.399 43.8281 311.399C44.9092 311.399 45.7875 310.455 45.7875 309.297C45.7875 308.139 44.9092 307.195 43.8281 307.195Z" fill="#3D00BA"/>
</g>
<path d="M88.0654 322.88C88.0654 323.552 87.9108 324.133 87.6014 324.624C87.3028 325.115 86.8548 325.493 86.2574 325.76C85.6708 326.027 84.9454 326.16 84.0814 326.16C83.6548 326.16 83.2601 326.133 82.8974 326.08C82.5348 326.037 82.1934 325.968 81.8734 325.872C81.5641 325.776 81.2654 325.659 80.9774 325.52V323.6C81.4574 323.813 81.9748 324.011 82.5294 324.192C83.0948 324.363 83.6441 324.448 84.1774 324.448C84.5828 324.448 84.9134 324.389 85.1694 324.272C85.4254 324.144 85.6121 323.973 85.7294 323.76C85.8574 323.536 85.9214 323.28 85.9214 322.992C85.9214 322.672 85.8414 322.4 85.6814 322.176C85.5321 321.952 85.2974 321.744 84.9774 321.552C84.6574 321.36 84.2414 321.163 83.7294 320.96C83.3668 320.8 83.0201 320.629 82.6894 320.448C82.3694 320.256 82.0868 320.027 81.8414 319.76C81.6068 319.493 81.4201 319.179 81.2814 318.816C81.1534 318.453 81.0894 318.027 81.0894 317.536C81.0894 316.885 81.2441 316.325 81.5534 315.856C81.8628 315.387 82.2948 315.029 82.8494 314.784C83.4041 314.539 84.0494 314.416 84.7854 314.416C85.4041 314.416 85.9694 314.48 86.4814 314.608C87.0041 314.736 87.4948 314.917 87.9534 315.152L87.2814 316.8C86.8441 316.597 86.4121 316.437 85.9854 316.32C85.5694 316.203 85.1481 316.144 84.7214 316.144C84.3908 316.144 84.1134 316.203 83.8894 316.32C83.6654 316.427 83.4948 316.581 83.3774 316.784C83.2708 316.987 83.2174 317.221 83.2174 317.488C83.2174 317.797 83.2921 318.059 83.4414 318.272C83.5908 318.485 83.8254 318.688 84.1454 318.88C84.4654 319.061 84.8814 319.275 85.3934 319.52C85.9588 319.776 86.4388 320.048 86.8334 320.336C87.2388 320.624 87.5428 320.971 87.7454 321.376C87.9588 321.781 88.0654 322.283 88.0654 322.88ZM93.2881 317.168C94.3334 317.168 95.1334 317.413 95.6881 317.904C96.2427 318.384 96.5201 319.141 96.5201 320.176V326H95.0321L94.6161 324.8H94.5521C94.3174 325.109 94.0774 325.371 93.8321 325.584C93.5867 325.787 93.3041 325.931 92.9841 326.016C92.6641 326.112 92.2801 326.16 91.8321 326.16C91.3521 326.16 90.9201 326.064 90.5361 325.872C90.1521 325.68 89.8481 325.387 89.6241 324.992C89.4001 324.587 89.2881 324.08 89.2881 323.472C89.2881 322.576 89.5974 321.904 90.2161 321.456C90.8347 320.997 91.7627 320.747 93.0001 320.704L94.3921 320.656V320.224C94.3921 319.669 94.2747 319.275 94.0401 319.04C93.8054 318.805 93.4854 318.688 93.0801 318.688C92.6961 318.688 92.3067 318.752 91.9121 318.88C91.5281 319.008 91.1494 319.157 90.7761 319.328L90.1201 317.92C90.5574 317.696 91.0427 317.515 91.5761 317.376C92.1094 317.237 92.6801 317.168 93.2881 317.168ZM93.4961 321.936C92.7387 321.968 92.2107 322.123 91.9121 322.4C91.6134 322.667 91.4641 323.029 91.4641 323.488C91.4641 323.893 91.5654 324.187 91.7681 324.368C91.9814 324.549 92.2587 324.64 92.6001 324.64C93.1014 324.64 93.5281 324.475 93.8801 324.144C94.2321 323.803 94.4081 323.301 94.4081 322.64V321.904L93.4961 321.936ZM100.897 326H98.7692V313.84H100.897V326ZM106.615 317.168C107.361 317.168 108.001 317.328 108.535 317.648C109.079 317.957 109.5 318.405 109.799 318.992C110.097 319.568 110.247 320.272 110.247 321.104V322.128H104.935C104.956 322.917 105.148 323.531 105.511 323.968C105.884 324.395 106.407 324.608 107.079 324.608C107.612 324.608 108.087 324.555 108.503 324.448C108.919 324.331 109.351 324.165 109.799 323.952V325.568C109.393 325.771 108.972 325.92 108.535 326.016C108.097 326.112 107.559 326.16 106.919 326.16C106.108 326.16 105.388 326 104.759 325.68C104.14 325.349 103.655 324.853 103.303 324.192C102.951 323.531 102.775 322.709 102.775 321.728C102.775 320.736 102.935 319.904 103.255 319.232C103.575 318.549 104.023 318.037 104.599 317.696C105.185 317.344 105.857 317.168 106.615 317.168ZM106.647 318.656C106.167 318.656 105.777 318.832 105.479 319.184C105.191 319.525 105.02 320.037 104.967 320.72H108.231C108.231 320.315 108.172 319.957 108.055 319.648C107.937 319.339 107.761 319.099 107.527 318.928C107.303 318.747 107.009 318.656 106.647 318.656ZM117.778 323.488C117.778 324.064 117.65 324.555 117.394 324.96C117.138 325.355 116.759 325.653 116.258 325.856C115.757 326.059 115.127 326.16 114.37 326.16C113.794 326.16 113.293 326.117 112.866 326.032C112.439 325.947 112.029 325.813 111.634 325.632V323.92C112.061 324.123 112.519 324.293 113.01 324.432C113.511 324.571 113.965 324.64 114.37 324.64C114.85 324.64 115.197 324.555 115.41 324.384C115.623 324.213 115.73 323.984 115.73 323.696C115.73 323.525 115.682 323.371 115.586 323.232C115.501 323.093 115.319 322.949 115.042 322.8C114.775 322.64 114.386 322.443 113.874 322.208C113.373 321.984 112.957 321.76 112.626 321.536C112.295 321.312 112.045 321.045 111.874 320.736C111.703 320.416 111.618 320.016 111.618 319.536C111.618 318.757 111.911 318.171 112.498 317.776C113.095 317.371 113.874 317.168 114.834 317.168C115.357 317.168 115.842 317.221 116.29 317.328C116.749 317.424 117.207 317.584 117.666 317.808L117.042 319.296C116.786 319.179 116.525 319.077 116.258 318.992C116.002 318.896 115.751 318.821 115.506 318.768C115.271 318.715 115.037 318.688 114.802 318.688C114.429 318.688 114.146 318.757 113.954 318.896C113.762 319.024 113.666 319.211 113.666 319.456C113.666 319.627 113.714 319.781 113.81 319.92C113.906 320.048 114.087 320.181 114.354 320.32C114.621 320.459 114.999 320.635 115.49 320.848C115.981 321.04 116.397 321.248 116.738 321.472C117.079 321.685 117.335 321.952 117.506 322.272C117.687 322.592 117.778 322.997 117.778 323.488ZM127.025 314.416C127.622 314.416 128.139 314.512 128.577 314.704C129.025 314.896 129.371 315.179 129.617 315.552C129.862 315.915 129.985 316.357 129.985 316.88C129.985 317.595 129.787 318.197 129.393 318.688C128.998 319.179 128.497 319.611 127.889 319.984L130.065 322.448C130.289 322.096 130.47 321.717 130.609 321.312C130.758 320.896 130.881 320.469 130.977 320.032H133.169C133.019 320.661 132.801 321.301 132.513 321.952C132.225 322.592 131.883 323.179 131.489 323.712L133.729 326H131.009L130.049 324.944C129.825 325.125 129.595 325.291 129.361 325.44C129.126 325.589 128.875 325.717 128.609 325.824C128.342 325.931 128.049 326.011 127.729 326.064C127.409 326.128 127.051 326.16 126.657 326.16C125.878 326.16 125.211 326.032 124.657 325.776C124.102 325.509 123.675 325.136 123.377 324.656C123.089 324.176 122.945 323.611 122.945 322.96C122.945 322.416 123.03 321.947 123.201 321.552C123.371 321.157 123.611 320.811 123.921 320.512C124.23 320.213 124.603 319.936 125.041 319.68C124.827 319.381 124.635 319.093 124.465 318.816C124.294 318.528 124.161 318.24 124.065 317.952C123.979 317.653 123.937 317.333 123.937 316.992C123.937 316.459 124.059 316 124.305 315.616C124.55 315.221 124.902 314.923 125.361 314.72C125.83 314.517 126.385 314.416 127.025 314.416ZM126.257 320.896C126.033 321.067 125.835 321.248 125.665 321.44C125.494 321.621 125.366 321.824 125.281 322.048C125.195 322.261 125.153 322.512 125.153 322.8C125.153 323.301 125.307 323.701 125.617 324C125.926 324.299 126.326 324.448 126.817 324.448C127.243 324.448 127.617 324.379 127.937 324.24C128.257 324.101 128.529 323.925 128.753 323.712L126.257 320.896ZM126.993 315.984C126.694 315.984 126.438 316.075 126.225 316.256C126.011 316.427 125.905 316.704 125.905 317.088C125.905 317.397 125.979 317.691 126.129 317.968C126.278 318.245 126.475 318.539 126.721 318.848C127.158 318.56 127.478 318.277 127.681 318C127.894 317.723 128.001 317.403 128.001 317.04C128.001 316.699 127.905 316.437 127.713 316.256C127.521 316.075 127.281 315.984 126.993 315.984ZM78.6251 339.168C79.5638 339.168 80.2678 339.419 80.7371 339.92C81.2065 340.421 81.4411 341.232 81.4411 342.352V348H79.3451V342.736C79.3451 342.096 79.2385 341.616 79.0251 341.296C78.8118 340.965 78.4811 340.8 78.0331 340.8C77.4145 340.8 76.9771 341.029 76.7211 341.488C76.4651 341.947 76.3371 342.613 76.3371 343.488V348H74.2251V342.736C74.2251 342.309 74.1771 341.952 74.0811 341.664C73.9851 341.376 73.8411 341.163 73.6491 341.024C73.4571 340.875 73.2118 340.8 72.9131 340.8C72.4865 340.8 72.1505 340.917 71.9051 341.152C71.6598 341.376 71.4838 341.707 71.3771 342.144C71.2811 342.581 71.2331 343.12 71.2331 343.76V348H69.1051V339.328H70.7371L71.0411 340.464H71.1371C71.2971 340.165 71.4945 339.92 71.7291 339.728C71.9745 339.536 72.2518 339.397 72.5611 339.312C72.8811 339.216 73.2118 339.168 73.5531 339.168C74.1611 339.168 74.6678 339.28 75.0731 339.504C75.4891 339.717 75.8091 340.053 76.0331 340.512H76.1451C76.4118 340.043 76.7638 339.701 77.2011 339.488C77.6491 339.275 78.1238 339.168 78.6251 339.168ZM87.1865 339.168C88.2318 339.168 89.0318 339.413 89.5865 339.904C90.1412 340.384 90.4185 341.141 90.4185 342.176V348H88.9305L88.5145 346.8H88.4505C88.2158 347.109 87.9758 347.371 87.7305 347.584C87.4852 347.787 87.2025 347.931 86.8825 348.016C86.5625 348.112 86.1785 348.16 85.7305 348.16C85.2505 348.16 84.8185 348.064 84.4345 347.872C84.0505 347.68 83.7465 347.387 83.5225 346.992C83.2985 346.587 83.1865 346.08 83.1865 345.472C83.1865 344.576 83.4958 343.904 84.1145 343.456C84.7332 342.997 85.6612 342.747 86.8985 342.704L88.2905 342.656V342.224C88.2905 341.669 88.1732 341.275 87.9385 341.04C87.7038 340.805 87.3838 340.688 86.9785 340.688C86.5945 340.688 86.2052 340.752 85.8105 340.88C85.4265 341.008 85.0478 341.157 84.6745 341.328L84.0185 339.92C84.4558 339.696 84.9412 339.515 85.4745 339.376C86.0078 339.237 86.5785 339.168 87.1865 339.168ZM87.3945 343.936C86.6372 343.968 86.1092 344.123 85.8105 344.4C85.5118 344.667 85.3625 345.029 85.3625 345.488C85.3625 345.893 85.4638 346.187 85.6665 346.368C85.8798 346.549 86.1572 346.64 86.4985 346.64C86.9998 346.64 87.4265 346.475 87.7785 346.144C88.1305 345.803 88.3065 345.301 88.3065 344.64V343.904L87.3945 343.936ZM97.0996 339.168C97.249 339.168 97.4036 339.173 97.5636 339.184C97.7236 339.195 97.857 339.216 97.9636 339.248L97.7716 341.12C97.665 341.099 97.537 341.083 97.3876 341.072C97.249 341.051 97.0996 341.04 96.9396 341.04C96.673 341.04 96.4116 341.093 96.1556 341.2C95.8996 341.296 95.6703 341.445 95.4676 341.648C95.265 341.84 95.0996 342.091 94.9716 342.4C94.8543 342.709 94.7956 343.077 94.7956 343.504V348H92.6676V339.328H94.2996L94.5876 340.832H94.6996C94.8596 340.523 95.057 340.245 95.2916 340C95.537 339.744 95.809 339.541 96.1076 339.392C96.417 339.243 96.7476 339.168 97.0996 339.168ZM101.467 341.616C101.467 341.893 101.456 342.187 101.435 342.496C101.414 342.795 101.387 343.088 101.355 343.376H101.419C101.472 343.248 101.552 343.109 101.659 342.96C101.766 342.8 101.878 342.645 101.995 342.496C102.123 342.336 102.246 342.192 102.363 342.064L104.619 339.328H107.019L103.867 343.072L107.211 348H104.763L102.411 344.288L101.467 345.12V348H99.3551V335.84H101.467V341.616ZM111.826 339.168C112.572 339.168 113.212 339.328 113.746 339.648C114.29 339.957 114.711 340.405 115.01 340.992C115.308 341.568 115.458 342.272 115.458 343.104V344.128H110.146C110.167 344.917 110.359 345.531 110.722 345.968C111.095 346.395 111.618 346.608 112.29 346.608C112.823 346.608 113.298 346.555 113.714 346.448C114.13 346.331 114.562 346.165 115.01 345.952V347.568C114.604 347.771 114.183 347.92 113.746 348.016C113.308 348.112 112.77 348.16 112.13 348.16C111.319 348.16 110.599 348 109.97 347.68C109.351 347.349 108.866 346.853 108.514 346.192C108.162 345.531 107.986 344.709 107.986 343.728C107.986 342.736 108.146 341.904 108.466 341.232C108.786 340.549 109.234 340.037 109.81 339.696C110.396 339.344 111.068 339.168 111.826 339.168ZM111.858 340.656C111.378 340.656 110.988 340.832 110.69 341.184C110.402 341.525 110.231 342.037 110.178 342.72H113.442C113.442 342.315 113.383 341.957 113.266 341.648C113.148 341.339 112.972 341.099 112.738 340.928C112.514 340.747 112.22 340.656 111.858 340.656ZM120.669 346.544C120.904 346.544 121.128 346.523 121.341 346.48C121.565 346.427 121.773 346.368 121.965 346.304V347.808C121.741 347.904 121.469 347.984 121.149 348.048C120.829 348.123 120.472 348.16 120.077 348.16C119.586 348.16 119.149 348.08 118.765 347.92C118.381 347.749 118.077 347.461 117.853 347.056C117.64 346.651 117.533 346.085 117.533 345.36V340.848H116.445V339.968L117.661 339.264L118.301 337.424H119.645V339.328H121.885V340.848H119.645V345.344C119.645 345.749 119.736 346.053 119.917 346.256C120.109 346.448 120.36 346.544 120.669 346.544ZM125.671 339.328V348H123.559V339.328H125.671ZM124.631 335.984C124.94 335.984 125.207 336.064 125.431 336.224C125.655 336.373 125.767 336.645 125.767 337.04C125.767 337.424 125.655 337.701 125.431 337.872C125.207 338.032 124.94 338.112 124.631 338.112C124.3 338.112 124.023 338.032 123.799 337.872C123.575 337.701 123.463 337.424 123.463 337.04C123.463 336.645 123.575 336.373 123.799 336.224C124.023 336.064 124.3 335.984 124.631 335.984ZM132.54 339.168C133.447 339.168 134.161 339.419 134.684 339.92C135.207 340.421 135.468 341.232 135.468 342.352V348H133.34V342.752C133.34 342.101 133.228 341.616 133.004 341.296C132.78 340.965 132.428 340.8 131.948 340.8C131.233 340.8 130.748 341.056 130.492 341.568C130.236 342.069 130.108 342.8 130.108 343.76V348H127.98V339.328H129.612L129.916 340.464H129.996C130.188 340.165 130.412 339.92 130.668 339.728C130.924 339.536 131.212 339.397 131.532 339.312C131.852 339.216 132.188 339.168 132.54 339.168ZM140.466 339.168C140.999 339.168 141.463 339.275 141.858 339.488C142.253 339.701 142.583 340.021 142.85 340.448H142.914L143.106 339.328H144.898V348.064C144.898 348.885 144.749 349.573 144.45 350.128C144.151 350.693 143.703 351.12 143.106 351.408C142.519 351.696 141.773 351.84 140.866 351.84C140.258 351.84 139.703 351.797 139.202 351.712C138.711 351.637 138.242 351.504 137.794 351.312V349.648C138.103 349.787 138.418 349.904 138.738 350C139.069 350.107 139.41 350.187 139.762 350.24C140.114 350.293 140.487 350.32 140.882 350.32C141.501 350.32 141.97 350.133 142.29 349.76C142.621 349.387 142.786 348.853 142.786 348.16V347.936C142.786 347.776 142.791 347.589 142.802 347.376C142.823 347.163 142.839 346.992 142.85 346.864H142.786C142.53 347.312 142.21 347.643 141.826 347.856C141.442 348.059 140.978 348.16 140.434 348.16C139.463 348.16 138.695 347.765 138.13 346.976C137.575 346.187 137.298 345.088 137.298 343.68C137.298 342.731 137.426 341.92 137.682 341.248C137.938 340.576 138.301 340.064 138.77 339.712C139.25 339.349 139.815 339.168 140.466 339.168ZM141.106 340.816C140.743 340.816 140.439 340.928 140.194 341.152C139.959 341.365 139.778 341.685 139.65 342.112C139.522 342.539 139.458 343.072 139.458 343.712C139.458 344.651 139.597 345.36 139.874 345.84C140.151 346.32 140.567 346.56 141.122 346.56C141.442 346.56 141.714 346.517 141.938 346.432C142.162 346.336 142.343 346.187 142.482 345.984C142.621 345.771 142.727 345.504 142.802 345.184C142.877 344.853 142.914 344.459 142.914 344V343.696C142.914 343.003 142.85 342.448 142.722 342.032C142.605 341.605 142.413 341.296 142.146 341.104C141.879 340.912 141.533 340.816 141.106 340.816Z" fill="black"/>
<path d="M756.626 331.272C756.626 332.157 756.525 332.963 756.322 333.688C756.119 334.403 755.805 335.021 755.378 335.544C754.962 336.067 754.434 336.467 753.794 336.744C753.154 337.021 752.402 337.16 751.538 337.16C750.663 337.16 749.906 337.021 749.266 336.744C748.626 336.456 748.098 336.056 747.682 335.544C747.266 335.021 746.951 334.397 746.738 333.672C746.535 332.947 746.434 332.141 746.434 331.256C746.434 330.072 746.615 329.043 746.978 328.168C747.351 327.293 747.917 326.616 748.674 326.136C749.431 325.645 750.391 325.4 751.554 325.4C752.706 325.4 753.655 325.645 754.402 326.136C755.149 326.616 755.703 327.299 756.066 328.184C756.439 329.059 756.626 330.088 756.626 331.272ZM748.706 331.272C748.706 332.136 748.802 332.877 748.994 333.496C749.186 334.115 749.49 334.589 749.906 334.92C750.333 335.251 750.877 335.416 751.538 335.416C752.199 335.416 752.738 335.251 753.154 334.92C753.57 334.589 753.874 334.115 754.066 333.496C754.258 332.877 754.354 332.136 754.354 331.272C754.354 329.981 754.13 328.968 753.682 328.232C753.245 327.496 752.53 327.128 751.538 327.128C750.877 327.128 750.333 327.293 749.906 327.624C749.49 327.955 749.186 328.429 748.994 329.048C748.802 329.667 748.706 330.408 748.706 331.272ZM763.124 328.168C764.063 328.168 764.815 328.547 765.38 329.304C765.956 330.051 766.244 331.165 766.244 332.648C766.244 333.629 766.111 334.456 765.844 335.128C765.578 335.8 765.204 336.307 764.724 336.648C764.244 336.989 763.69 337.16 763.06 337.16C762.666 337.16 762.319 337.107 762.02 337C761.732 336.883 761.487 336.739 761.284 336.568C761.082 336.387 760.911 336.195 760.772 335.992H760.66C760.692 336.184 760.719 336.403 760.74 336.648C760.762 336.883 760.772 337.107 760.772 337.32V340.84H758.644V328.328H760.372L760.66 329.48H760.772C760.922 329.235 761.098 329.016 761.3 328.824C761.514 328.621 761.77 328.461 762.068 328.344C762.367 328.227 762.719 328.168 763.124 328.168ZM762.452 329.8C762.047 329.8 761.716 329.896 761.46 330.088C761.215 330.269 761.039 330.552 760.932 330.936C760.826 331.32 760.772 331.8 760.772 332.376V332.632C760.772 333.251 760.82 333.773 760.916 334.2C761.023 334.627 761.199 334.952 761.444 335.176C761.7 335.4 762.047 335.512 762.484 335.512C762.847 335.512 763.146 335.395 763.38 335.16C763.615 334.925 763.791 334.595 763.908 334.168C764.026 333.731 764.084 333.213 764.084 332.616C764.084 331.72 763.946 331.027 763.668 330.536C763.402 330.045 762.996 329.8 762.452 329.8ZM771.521 328.168C772.268 328.168 772.908 328.328 773.441 328.648C773.985 328.957 774.406 329.405 774.705 329.992C775.004 330.568 775.153 331.272 775.153 332.104V333.128H769.841C769.862 333.917 770.054 334.531 770.417 334.968C770.79 335.395 771.313 335.608 771.985 335.608C772.518 335.608 772.993 335.555 773.409 335.448C773.825 335.331 774.257 335.165 774.705 334.952V336.568C774.3 336.771 773.878 336.92 773.441 337.016C773.004 337.112 772.465 337.16 771.825 337.16C771.014 337.16 770.294 337 769.665 336.68C769.046 336.349 768.561 335.853 768.209 335.192C767.857 334.531 767.681 333.709 767.681 332.728C767.681 331.736 767.841 330.904 768.161 330.232C768.481 329.549 768.929 329.037 769.505 328.696C770.092 328.344 770.764 328.168 771.521 328.168ZM771.553 329.656C771.073 329.656 770.684 329.832 770.385 330.184C770.097 330.525 769.926 331.037 769.873 331.72H773.137C773.137 331.315 773.078 330.957 772.961 330.648C772.844 330.339 772.668 330.099 772.433 329.928C772.209 329.747 771.916 329.656 771.553 329.656ZM781.404 328.168C781.554 328.168 781.708 328.173 781.868 328.184C782.028 328.195 782.162 328.216 782.268 328.248L782.076 330.12C781.97 330.099 781.842 330.083 781.692 330.072C781.554 330.051 781.404 330.04 781.244 330.04C780.978 330.04 780.716 330.093 780.46 330.2C780.204 330.296 779.975 330.445 779.772 330.648C779.57 330.84 779.404 331.091 779.276 331.4C779.159 331.709 779.1 332.077 779.1 332.504V337H776.972V328.328H778.604L778.892 329.832H779.004C779.164 329.523 779.362 329.245 779.596 329C779.842 328.744 780.114 328.541 780.412 328.392C780.722 328.243 781.052 328.168 781.404 328.168ZM786.835 328.168C787.88 328.168 788.68 328.413 789.235 328.904C789.79 329.384 790.067 330.141 790.067 331.176V337H788.579L788.163 335.8H788.099C787.864 336.109 787.624 336.371 787.379 336.584C787.134 336.787 786.851 336.931 786.531 337.016C786.211 337.112 785.827 337.16 785.379 337.16C784.899 337.16 784.467 337.064 784.083 336.872C783.699 336.68 783.395 336.387 783.171 335.992C782.947 335.587 782.835 335.08 782.835 334.472C782.835 333.576 783.144 332.904 783.763 332.456C784.382 331.997 785.31 331.747 786.547 331.704L787.939 331.656V331.224C787.939 330.669 787.822 330.275 787.587 330.04C787.352 329.805 787.032 329.688 786.627 329.688C786.243 329.688 785.854 329.752 785.459 329.88C785.075 330.008 784.696 330.157 784.323 330.328L783.667 328.92C784.104 328.696 784.59 328.515 785.123 328.376C785.656 328.237 786.227 328.168 786.835 328.168ZM787.043 332.936C786.286 332.968 785.758 333.123 785.459 333.4C785.16 333.667 785.011 334.029 785.011 334.488C785.011 334.893 785.112 335.187 785.315 335.368C785.528 335.549 785.806 335.64 786.147 335.64C786.648 335.64 787.075 335.475 787.427 335.144C787.779 334.803 787.955 334.301 787.955 333.64V332.904L787.043 332.936ZM795.708 335.544C795.943 335.544 796.167 335.523 796.38 335.48C796.604 335.427 796.812 335.368 797.004 335.304V336.808C796.78 336.904 796.508 336.984 796.188 337.048C795.868 337.123 795.511 337.16 795.116 337.16C794.625 337.16 794.188 337.08 793.804 336.92C793.42 336.749 793.116 336.461 792.892 336.056C792.679 335.651 792.572 335.085 792.572 334.36V329.848H791.484V328.968L792.7 328.264L793.34 326.424H794.684V328.328H796.924V329.848H794.684V334.344C794.684 334.749 794.775 335.053 794.956 335.256C795.148 335.448 795.399 335.544 795.708 335.544ZM800.71 328.328V337H798.598V328.328H800.71ZM799.67 324.984C799.979 324.984 800.246 325.064 800.47 325.224C800.694 325.373 800.806 325.645 800.806 326.04C800.806 326.424 800.694 326.701 800.47 326.872C800.246 327.032 799.979 327.112 799.67 327.112C799.339 327.112 799.062 327.032 798.838 326.872C798.614 326.701 798.502 326.424 798.502 326.04C798.502 325.645 798.614 325.373 798.838 325.224C799.062 325.064 799.339 324.984 799.67 324.984ZM810.475 332.648C810.475 333.373 810.385 334.013 810.203 334.568C810.022 335.123 809.755 335.597 809.403 335.992C809.062 336.376 808.646 336.669 808.155 336.872C807.665 337.064 807.115 337.16 806.507 337.16C805.942 337.16 805.414 337.064 804.923 336.872C804.443 336.669 804.027 336.376 803.675 335.992C803.334 335.597 803.067 335.123 802.875 334.568C802.683 334.013 802.587 333.373 802.587 332.648C802.587 331.688 802.742 330.877 803.051 330.216C803.371 329.544 803.83 329.037 804.427 328.696C805.025 328.344 805.734 328.168 806.555 328.168C807.323 328.168 808.001 328.344 808.587 328.696C809.174 329.037 809.633 329.544 809.963 330.216C810.305 330.877 810.475 331.688 810.475 332.648ZM804.747 332.648C804.747 333.256 804.811 333.779 804.939 334.216C805.067 334.643 805.259 334.968 805.515 335.192C805.782 335.416 806.123 335.528 806.539 335.528C806.955 335.528 807.291 335.416 807.547 335.192C807.814 334.968 808.006 334.643 808.123 334.216C808.251 333.779 808.315 333.256 808.315 332.648C808.315 332.029 808.251 331.512 808.123 331.096C807.995 330.669 807.798 330.349 807.531 330.136C807.275 329.912 806.939 329.8 806.523 329.8C805.894 329.8 805.441 330.045 805.163 330.536C804.886 331.027 804.747 331.731 804.747 332.648ZM816.892 328.168C817.798 328.168 818.513 328.419 819.036 328.92C819.558 329.421 819.82 330.232 819.82 331.352V337H817.692V331.752C817.692 331.101 817.58 330.616 817.356 330.296C817.132 329.965 816.78 329.8 816.3 329.8C815.585 329.8 815.1 330.056 814.844 330.568C814.588 331.069 814.46 331.8 814.46 332.76V337H812.332V328.328H813.964L814.268 329.464H814.348C814.54 329.165 814.764 328.92 815.02 328.728C815.276 328.536 815.564 328.397 815.884 328.312C816.204 328.216 816.54 328.168 816.892 328.168ZM827.794 334.488C827.794 335.064 827.666 335.555 827.41 335.96C827.154 336.355 826.775 336.653 826.274 336.856C825.772 337.059 825.143 337.16 824.386 337.16C823.81 337.16 823.308 337.117 822.882 337.032C822.455 336.947 822.044 336.813 821.65 336.632V334.92C822.076 335.123 822.535 335.293 823.026 335.432C823.527 335.571 823.98 335.64 824.386 335.64C824.866 335.64 825.212 335.555 825.426 335.384C825.639 335.213 825.746 334.984 825.746 334.696C825.746 334.525 825.698 334.371 825.602 334.232C825.516 334.093 825.335 333.949 825.058 333.8C824.791 333.64 824.402 333.443 823.89 333.208C823.388 332.984 822.972 332.76 822.642 332.536C822.311 332.312 822.06 332.045 821.89 331.736C821.719 331.416 821.634 331.016 821.634 330.536C821.634 329.757 821.927 329.171 822.514 328.776C823.111 328.371 823.89 328.168 824.85 328.168C825.372 328.168 825.858 328.221 826.306 328.328C826.764 328.424 827.223 328.584 827.682 328.808L827.058 330.296C826.802 330.179 826.54 330.077 826.274 329.992C826.018 329.896 825.767 329.821 825.522 329.768C825.287 329.715 825.052 329.688 824.818 329.688C824.444 329.688 824.162 329.757 823.97 329.896C823.778 330.024 823.682 330.211 823.682 330.456C823.682 330.627 823.73 330.781 823.826 330.92C823.922 331.048 824.103 331.181 824.37 331.32C824.636 331.459 825.015 331.635 825.506 331.848C825.996 332.04 826.412 332.248 826.754 332.472C827.095 332.685 827.351 332.952 827.522 333.272C827.703 333.592 827.794 333.997 827.794 334.488Z" fill="black"/>
<path d="M405.222 34H403.11V22.576H409.27V24.288H405.222V27.648H408.998V29.36H405.222V34ZM413.108 25.328V34H410.996V25.328H413.108ZM412.068 21.984C412.377 21.984 412.644 22.064 412.868 22.224C413.092 22.3733 413.204 22.6453 413.204 23.04C413.204 23.424 413.092 23.7013 412.868 23.872C412.644 24.032 412.377 24.112 412.068 24.112C411.737 24.112 411.46 24.032 411.236 23.872C411.012 23.7013 410.9 23.424 410.9 23.04C410.9 22.6453 411.012 22.3733 411.236 22.224C411.46 22.064 411.737 21.984 412.068 21.984ZM419.978 25.168C420.884 25.168 421.599 25.4187 422.122 25.92C422.644 26.4213 422.906 27.232 422.906 28.352V34H420.778V28.752C420.778 28.1013 420.666 27.616 420.442 27.296C420.218 26.9653 419.866 26.8 419.386 26.8C418.671 26.8 418.186 27.056 417.93 27.568C417.674 28.0693 417.546 28.8 417.546 29.76V34H415.418V25.328H417.05L417.354 26.464H417.434C417.626 26.1653 417.85 25.92 418.106 25.728C418.362 25.536 418.65 25.3973 418.97 25.312C419.29 25.216 419.626 25.168 419.978 25.168ZM428.64 25.168C429.685 25.168 430.485 25.4133 431.04 25.904C431.594 26.384 431.872 27.1413 431.872 28.176V34H430.384L429.968 32.8H429.904C429.669 33.1093 429.429 33.3707 429.184 33.584C428.938 33.7867 428.656 33.9307 428.336 34.016C428.016 34.112 427.632 34.16 427.184 34.16C426.704 34.16 426.272 34.064 425.888 33.872C425.504 33.68 425.2 33.3867 424.976 32.992C424.752 32.5867 424.64 32.08 424.64 31.472C424.64 30.576 424.949 29.904 425.568 29.456C426.186 28.9973 427.114 28.7467 428.352 28.704L429.744 28.656V28.224C429.744 27.6693 429.626 27.2747 429.392 27.04C429.157 26.8053 428.837 26.688 428.432 26.688C428.048 26.688 427.658 26.752 427.264 26.88C426.88 27.008 426.501 27.1573 426.128 27.328L425.472 25.92C425.909 25.696 426.394 25.5147 426.928 25.376C427.461 25.2373 428.032 25.168 428.64 25.168ZM428.848 29.936C428.09 29.968 427.562 30.1227 427.264 30.4C426.965 30.6667 426.816 31.0293 426.816 31.488C426.816 31.8933 426.917 32.1867 427.12 32.368C427.333 32.5493 427.61 32.64 427.952 32.64C428.453 32.64 428.88 32.4747 429.232 32.144C429.584 31.8027 429.76 31.3013 429.76 30.64V29.904L428.848 29.936ZM438.681 25.168C439.587 25.168 440.302 25.4187 440.825 25.92C441.347 26.4213 441.609 27.232 441.609 28.352V34H439.481V28.752C439.481 28.1013 439.369 27.616 439.145 27.296C438.921 26.9653 438.569 26.8 438.089 26.8C437.374 26.8 436.889 27.056 436.633 27.568C436.377 28.0693 436.249 28.8 436.249 29.76V34H434.121V25.328H435.753L436.057 26.464H436.137C436.329 26.1653 436.553 25.92 436.809 25.728C437.065 25.536 437.353 25.3973 437.673 25.312C437.993 25.216 438.329 25.168 438.681 25.168ZM447.327 34.16C446.527 34.16 445.833 34.0053 445.247 33.696C444.671 33.376 444.223 32.8907 443.903 32.24C443.593 31.5787 443.439 30.736 443.439 29.712C443.439 28.6453 443.609 27.7813 443.951 27.12C444.303 26.448 444.783 25.9573 445.391 25.648C446.009 25.328 446.708 25.168 447.487 25.168C447.977 25.168 448.436 25.2213 448.863 25.328C449.3 25.4347 449.663 25.5627 449.951 25.712L449.311 27.264C449.023 27.1467 448.735 27.0453 448.447 26.96C448.159 26.8747 447.871 26.832 447.583 26.832C447.145 26.832 446.783 26.9387 446.495 27.152C446.207 27.3653 445.983 27.6853 445.823 28.112C445.673 28.528 445.599 29.056 445.599 29.696C445.599 30.3147 445.673 30.832 445.823 31.248C445.983 31.664 446.207 31.9787 446.495 32.192C446.783 32.3947 447.135 32.496 447.551 32.496C447.967 32.496 448.351 32.4373 448.703 32.32C449.065 32.2027 449.407 32.0427 449.727 31.84V33.584C449.396 33.7867 449.044 33.9307 448.671 34.016C448.297 34.112 447.849 34.16 447.327 34.16ZM453.686 25.328V34H451.574V25.328H453.686ZM452.646 21.984C452.956 21.984 453.222 22.064 453.446 22.224C453.67 22.3733 453.782 22.6453 453.782 23.04C453.782 23.424 453.67 23.7013 453.446 23.872C453.222 24.032 452.956 24.112 452.646 24.112C452.316 24.112 452.038 24.032 451.814 23.872C451.59 23.7013 451.478 23.424 451.478 23.04C451.478 22.6453 451.59 22.3733 451.814 22.224C452.038 22.064 452.316 21.984 452.646 21.984ZM459.468 25.168C460.513 25.168 461.313 25.4133 461.868 25.904C462.422 26.384 462.7 27.1413 462.7 28.176V34H461.212L460.796 32.8H460.732C460.497 33.1093 460.257 33.3707 460.012 33.584C459.766 33.7867 459.484 33.9307 459.164 34.016C458.844 34.112 458.46 34.16 458.012 34.16C457.532 34.16 457.1 34.064 456.716 33.872C456.332 33.68 456.028 33.3867 455.804 32.992C455.58 32.5867 455.468 32.08 455.468 31.472C455.468 30.576 455.777 29.904 456.396 29.456C457.014 28.9973 457.942 28.7467 459.18 28.704L460.572 28.656V28.224C460.572 27.6693 460.454 27.2747 460.22 27.04C459.985 26.8053 459.665 26.688 459.26 26.688C458.876 26.688 458.486 26.752 458.092 26.88C457.708 27.008 457.329 27.1573 456.956 27.328L456.3 25.92C456.737 25.696 457.222 25.5147 457.756 25.376C458.289 25.2373 458.86 25.168 459.468 25.168ZM459.676 29.936C458.918 29.968 458.39 30.1227 458.092 30.4C457.793 30.6667 457.644 31.0293 457.644 31.488C457.644 31.8933 457.745 32.1867 457.948 32.368C458.161 32.5493 458.438 32.64 458.78 32.64C459.281 32.64 459.708 32.4747 460.06 32.144C460.412 31.8027 460.588 31.3013 460.588 30.64V29.904L459.676 29.936ZM467.077 34H464.949V21.84H467.077V34ZM407.747 53.488C407.747 54.064 407.619 54.5547 407.363 54.96C407.107 55.3547 406.728 55.6533 406.227 55.856C405.725 56.0587 405.096 56.16 404.339 56.16C403.763 56.16 403.261 56.1173 402.835 56.032C402.408 55.9467 401.997 55.8133 401.603 55.632V53.92C402.029 54.1227 402.488 54.2933 402.979 54.432C403.48 54.5707 403.933 54.64 404.339 54.64C404.819 54.64 405.165 54.5547 405.379 54.384C405.592 54.2133 405.699 53.984 405.699 53.696C405.699 53.5253 405.651 53.3707 405.555 53.232C405.469 53.0933 405.288 52.9493 405.011 52.8C404.744 52.64 404.355 52.4427 403.843 52.208C403.341 51.984 402.925 51.76 402.595 51.536C402.264 51.312 402.013 51.0453 401.843 50.736C401.672 50.416 401.587 50.016 401.587 49.536C401.587 48.7573 401.88 48.1707 402.467 47.776C403.064 47.3707 403.843 47.168 404.803 47.168C405.325 47.168 405.811 47.2213 406.259 47.328C406.717 47.424 407.176 47.584 407.635 47.808L407.011 49.296C406.755 49.1787 406.493 49.0773 406.227 48.992C405.971 48.896 405.72 48.8213 405.475 48.768C405.24 48.7147 405.005 48.688 404.771 48.688C404.397 48.688 404.115 48.7573 403.923 48.896C403.731 49.024 403.635 49.2107 403.635 49.456C403.635 49.6267 403.683 49.7813 403.779 49.92C403.875 50.048 404.056 50.1813 404.323 50.32C404.589 50.4587 404.968 50.6347 405.459 50.848C405.949 51.04 406.365 51.248 406.707 51.472C407.048 51.6853 407.304 51.952 407.475 52.272C407.656 52.592 407.747 52.9973 407.747 53.488ZM416.975 51.648C416.975 52.3733 416.885 53.0133 416.703 53.568C416.522 54.1227 416.255 54.5973 415.903 54.992C415.562 55.376 415.146 55.6693 414.655 55.872C414.165 56.064 413.615 56.16 413.007 56.16C412.442 56.16 411.914 56.064 411.423 55.872C410.943 55.6693 410.527 55.376 410.175 54.992C409.834 54.5973 409.567 54.1227 409.375 53.568C409.183 53.0133 409.087 52.3733 409.087 51.648C409.087 50.688 409.242 49.8773 409.551 49.216C409.871 48.544 410.33 48.0373 410.927 47.696C411.525 47.344 412.234 47.168 413.055 47.168C413.823 47.168 414.501 47.344 415.087 47.696C415.674 48.0373 416.133 48.544 416.463 49.216C416.805 49.8773 416.975 50.688 416.975 51.648ZM411.247 51.648C411.247 52.256 411.311 52.7787 411.439 53.216C411.567 53.6427 411.759 53.968 412.015 54.192C412.282 54.416 412.623 54.528 413.039 54.528C413.455 54.528 413.791 54.416 414.047 54.192C414.314 53.968 414.506 53.6427 414.623 53.216C414.751 52.7787 414.815 52.256 414.815 51.648C414.815 51.0293 414.751 50.512 414.623 50.096C414.495 49.6693 414.298 49.3493 414.031 49.136C413.775 48.912 413.439 48.8 413.023 48.8C412.394 48.8 411.941 49.0453 411.663 49.536C411.386 50.0267 411.247 50.7307 411.247 51.648ZM420.96 56H418.832V43.84H420.96V56ZM430.693 47.328V56H429.061L428.789 54.88H428.677C428.507 55.1787 428.288 55.424 428.021 55.616C427.755 55.7973 427.461 55.9307 427.141 56.016C426.821 56.112 426.491 56.16 426.149 56.16C425.552 56.16 425.035 56.048 424.597 55.824C424.16 55.6 423.819 55.2587 423.573 54.8C423.339 54.3307 423.221 53.728 423.221 52.992V47.328H425.349V52.592C425.349 53.232 425.456 53.7173 425.669 54.048C425.893 54.368 426.245 54.528 426.725 54.528C427.205 54.528 427.579 54.416 427.845 54.192C428.123 53.9573 428.315 53.6213 428.421 53.184C428.528 52.7467 428.581 52.208 428.581 51.568V47.328H430.693ZM436.411 54.544C436.646 54.544 436.87 54.5227 437.083 54.48C437.307 54.4267 437.515 54.368 437.707 54.304V55.808C437.483 55.904 437.211 55.984 436.891 56.048C436.571 56.1227 436.214 56.16 435.819 56.16C435.329 56.16 434.891 56.08 434.507 55.92C434.123 55.7493 433.819 55.4613 433.595 55.056C433.382 54.6507 433.275 54.0853 433.275 53.36V48.848H432.187V47.968L433.403 47.264L434.043 45.424H435.387V47.328H437.627V48.848H435.387V53.344C435.387 53.7493 435.478 54.0533 435.659 54.256C435.851 54.448 436.102 54.544 436.411 54.544ZM441.413 47.328V56H439.301V47.328H441.413ZM440.373 43.984C440.682 43.984 440.949 44.064 441.173 44.224C441.397 44.3733 441.509 44.6453 441.509 45.04C441.509 45.424 441.397 45.7013 441.173 45.872C440.949 46.032 440.682 46.112 440.373 46.112C440.042 46.112 439.765 46.032 439.541 45.872C439.317 45.7013 439.205 45.424 439.205 45.04C439.205 44.6453 439.317 44.3733 439.541 44.224C439.765 44.064 440.042 43.984 440.373 43.984ZM451.178 51.648C451.178 52.3733 451.088 53.0133 450.906 53.568C450.725 54.1227 450.458 54.5973 450.106 54.992C449.765 55.376 449.349 55.6693 448.858 55.872C448.368 56.064 447.818 56.16 447.21 56.16C446.645 56.16 446.117 56.064 445.626 55.872C445.146 55.6693 444.73 55.376 444.378 54.992C444.037 54.5973 443.77 54.1227 443.578 53.568C443.386 53.0133 443.29 52.3733 443.29 51.648C443.29 50.688 443.445 49.8773 443.754 49.216C444.074 48.544 444.533 48.0373 445.13 47.696C445.728 47.344 446.437 47.168 447.258 47.168C448.026 47.168 448.704 47.344 449.29 47.696C449.877 48.0373 450.336 48.544 450.666 49.216C451.008 49.8773 451.178 50.688 451.178 51.648ZM445.45 51.648C445.45 52.256 445.514 52.7787 445.642 53.216C445.77 53.6427 445.962 53.968 446.218 54.192C446.485 54.416 446.826 54.528 447.242 54.528C447.658 54.528 447.994 54.416 448.25 54.192C448.517 53.968 448.709 53.6427 448.826 53.216C448.954 52.7787 449.018 52.256 449.018 51.648C449.018 51.0293 448.954 50.512 448.826 50.096C448.698 49.6693 448.501 49.3493 448.234 49.136C447.978 48.912 447.642 48.8 447.226 48.8C446.597 48.8 446.144 49.0453 445.866 49.536C445.589 50.0267 445.45 50.7307 445.45 51.648ZM457.595 47.168C458.501 47.168 459.216 47.4187 459.739 47.92C460.261 48.4213 460.523 49.232 460.523 50.352V56H458.395V50.752C458.395 50.1013 458.283 49.616 458.059 49.296C457.835 48.9653 457.483 48.8 457.003 48.8C456.288 48.8 455.803 49.056 455.547 49.568C455.291 50.0693 455.163 50.8 455.163 51.76V56H453.035V47.328H454.667L454.971 48.464H455.051C455.243 48.1653 455.467 47.92 455.723 47.728C455.979 47.536 456.267 47.3973 456.587 47.312C456.907 47.216 457.243 47.168 457.595 47.168ZM468.497 53.488C468.497 54.064 468.369 54.5547 468.113 54.96C467.857 55.3547 467.478 55.6533 466.977 55.856C466.475 56.0587 465.846 56.16 465.089 56.16C464.513 56.16 464.011 56.1173 463.585 56.032C463.158 55.9467 462.747 55.8133 462.353 55.632V53.92C462.779 54.1227 463.238 54.2933 463.729 54.432C464.23 54.5707 464.683 54.64 465.089 54.64C465.569 54.64 465.915 54.5547 466.129 54.384C466.342 54.2133 466.449 53.984 466.449 53.696C466.449 53.5253 466.401 53.3707 466.305 53.232C466.219 53.0933 466.038 52.9493 465.761 52.8C465.494 52.64 465.105 52.4427 464.593 52.208C464.091 51.984 463.675 51.76 463.345 51.536C463.014 51.312 462.763 51.0453 462.593 50.736C462.422 50.416 462.337 50.016 462.337 49.536C462.337 48.7573 462.63 48.1707 463.217 47.776C463.814 47.3707 464.593 47.168 465.553 47.168C466.075 47.168 466.561 47.2213 467.009 47.328C467.467 47.424 467.926 47.584 468.385 47.808L467.761 49.296C467.505 49.1787 467.243 49.0773 466.977 48.992C466.721 48.896 466.47 48.8213 466.225 48.768C465.99 48.7147 465.755 48.688 465.521 48.688C465.147 48.688 464.865 48.7573 464.673 48.896C464.481 49.024 464.385 49.2107 464.385 49.456C464.385 49.6267 464.433 49.7813 464.529 49.92C464.625 50.048 464.806 50.1813 465.073 50.32C465.339 50.4587 465.718 50.6347 466.209 50.848C466.699 51.04 467.115 51.248 467.457 51.472C467.798 51.6853 468.054 51.952 468.225 52.272C468.406 52.592 468.497 52.9973 468.497 53.488Z" fill="black"/>
<path d="M337 18C335.69 18 335.68 20.02 337 20H381C381.572 20 382 20.428 382 21V47C382 48.32 384 48.32 384 47V21C384 19.356 382.644 18 381 18H337ZM333 22C331.692 22 331.692 24 333 24H377C377.572 24 378 24.428 378 25V51C378 52.33 380.02 52.32 380 51V25C380 23.356 378.644 22 377 22H333ZM329 26C327.356 26 326 27.356 326 29V53C326 54.644 327.356 56 329 56H373C374.644 56 376 54.644 376 53V29C376 27.356 374.644 26 373 26H329ZM329 28H373C373.572 28 374 28.428 374 29V53C374 53.572 373.572 54 373 54H329C328.428 54 328 53.572 328 53V29C328 28.428 328.428 28 329 28ZM331 30C330.448 30 330 30.448 330 31V35C330 36.344 332 36.312 332 35V32H335C336.344 32 336.312 30 335 30H331ZM351 30C344.936 30 340 34.936 340 41C340 47.064 344.936 52 351 52C357.064 52 362 47.064 362 41C362 34.936 357.064 30 351 30ZM367 30C365.688 30 365.656 32 367 32H370V35C370 36.312 372 36.344 372 35V31C372 30.448 371.552 30 371 30H367ZM351 32C355.98 32 360 36.02 360 41C360 45.98 355.98 50 351 50C346.02 50 342 45.98 342 41C342 36.02 346.02 32 351 32ZM351 34C350.446 34 350 34.446 350 35V36.188C348.844 36.608 348 37.708 348 39C348 40.64 349.36 42 351 42C351.56 42 352 42.424 352 43C352 43.576 351.56 44 351 44H349C348.324 43.99 348 44.496 348 45C348 45.504 348.324 46.01 349 46H350V47C350 47.554 350.446 48 351 48C351.554 48 352 47.554 352 47V45.812C353.156 45.392 354 44.292 354 43C354 41.36 352.64 40 351 40C350.44 40 350 39.576 350 39C350 38.424 350.44 38 351 38H353C353.676 38.01 354 37.504 354 37C354 36.496 353.676 35.99 353 36H352V35C352 34.446 351.554 34 351 34ZM331 46.004C330.5 46 330 46.328 330 47V51C330 51.552 330.448 52 331 52H335C336.312 52 336.344 50 335 50H332V47C332 46.344 331.5 46.008 331 46.004ZM371 46.004C370.5 46.008 370 46.344 370 47V50H367C365.656 50 365.688 52 367 52H371C371.552 52 372 51.552 372 51V47C372 46.328 371.5 46 371 46.004Z" fill="#542CF2"/>
<g clip-path="url(#clip2_503_16)">
<path d="M719.125 309.5V327H722.438V309.5H719.125Z" fill="#542CF2"/>
<path d="M725.75 309.5V327H729.062V309.5H725.75Z" fill="#542CF2"/>
<path d="M712.5 341C711.625 341.021 710.754 340.854 709.941 340.51C709.129 340.166 708.39 339.651 707.771 338.996C707.152 338.342 706.665 337.562 706.339 336.703C706.013 335.845 705.855 334.925 705.875 334C705.855 333.075 706.013 332.155 706.339 331.297C706.665 330.438 707.152 329.658 707.771 329.004C708.39 328.349 709.129 327.834 709.941 327.49C710.754 327.146 711.625 326.979 712.5 327V323.5C710.535 323.5 708.613 324.116 706.979 325.27C705.345 326.423 704.071 328.063 703.319 329.982C702.567 331.9 702.37 334.012 702.753 336.048C703.137 338.085 704.083 339.956 705.473 341.425C706.863 342.893 708.634 343.893 710.561 344.298C712.489 344.703 714.487 344.495 716.303 343.701C718.119 342.906 719.671 341.56 720.763 339.833C721.855 338.107 722.438 336.077 722.438 334H719.125C719.145 334.925 718.987 335.845 718.661 336.703C718.335 337.562 717.848 338.342 717.229 338.996C716.61 339.651 715.871 340.166 715.059 340.51C714.246 340.854 713.375 341.021 712.5 341Z" fill="#542CF2"/>
<path d="M733.854 338.294L729.225 334L727.042 336.633L731.666 340.923L727.758 348.077L722.081 346.048C720.745 347.231 719.224 348.157 717.586 348.786L716.409 355H708.591L707.415 348.786C705.789 348.148 704.279 347.218 702.952 346.036L697.243 348.077L693.335 340.923L697.847 336.732C697.538 334.922 697.534 333.069 697.835 331.258L693.333 327.077L697.244 319.923L702.919 321.952C704.255 320.769 705.776 319.843 707.414 319.214L708.591 313H712.5V309.5H708.591C707.825 309.5 707.083 309.78 706.491 310.293C705.899 310.806 705.493 311.52 705.343 312.314L704.509 316.721C703.748 317.106 703.014 317.547 702.311 318.04L698.304 316.608C697.578 316.348 696.79 316.362 696.074 316.647C695.357 316.933 694.756 317.472 694.374 318.173L690.464 325.327C690.081 326.028 689.94 326.847 690.065 327.645C690.189 328.444 690.571 329.172 691.146 329.706L694.344 332.676C694.316 333.116 694.281 333.553 694.281 334C694.281 334.451 694.298 334.897 694.327 335.34L691.146 338.294C690.571 338.828 690.189 339.556 690.065 340.355C689.94 341.153 690.081 341.972 690.464 342.673L694.374 349.827C694.756 350.528 695.357 351.067 696.074 351.353C696.79 351.638 697.578 351.652 698.304 351.392L702.335 349.952C703.03 350.446 703.756 350.89 704.508 351.279L705.343 355.686C705.493 356.48 705.898 357.194 706.491 357.707C707.083 358.22 707.825 358.5 708.591 358.5H716.409C717.175 358.5 717.917 358.22 718.509 357.707C719.101 357.194 719.507 356.48 719.657 355.686L720.491 351.279C721.252 350.894 721.986 350.453 722.688 349.96L726.696 351.392C727.421 351.652 728.209 351.638 728.926 351.353C729.642 351.067 730.243 350.528 730.626 349.827L734.535 342.673C734.918 341.972 735.059 341.153 734.935 340.355C734.811 339.556 734.429 338.828 733.854 338.294Z" fill="#542CF2"/>
</g>
<path d="M65.1278 146.216C64.4558 146.216 63.8478 146.36 63.3038 146.648C62.7598 146.936 62.2958 147.352 61.9118 147.896C61.5438 148.44 61.2638 149.096 61.0718 149.864C60.8798 150.632 60.7838 151.496 60.7838 152.456C60.7838 153.752 60.9438 154.864 61.2638 155.792C61.5838 156.704 62.0718 157.408 62.7278 157.904C63.3838 158.4 64.2078 158.648 65.1998 158.648C65.8878 158.648 66.5598 158.576 67.2158 158.432C67.8718 158.272 68.5358 158.064 69.2078 157.808V160.424C68.5518 160.712 67.8718 160.92 67.1678 161.048C66.4798 161.176 65.7038 161.24 64.8398 161.24C63.1598 161.24 61.7758 160.88 60.6878 160.16C59.5998 159.424 58.7838 158.4 58.2398 157.088C57.7118 155.76 57.4478 154.208 57.4478 152.432C57.4478 151.136 57.6158 149.952 57.9518 148.88C58.2878 147.808 58.7838 146.88 59.4398 146.096C60.0958 145.312 60.9038 144.704 61.8638 144.272C62.8238 143.84 63.9198 143.624 65.1518 143.624C65.9678 143.624 66.7918 143.728 67.6238 143.936C68.4718 144.128 69.2158 144.4 69.8558 144.752L68.7758 147.272C68.2158 147 67.6318 146.76 67.0238 146.552C66.4318 146.328 65.7998 146.216 65.1278 146.216ZM77.6464 143.624C78.5424 143.624 79.3184 143.768 79.9744 144.056C80.6464 144.344 81.1664 144.768 81.5344 145.328C81.9024 145.872 82.0864 146.536 82.0864 147.32C82.0864 148.392 81.7904 149.296 81.1984 150.032C80.6064 150.768 79.8544 151.416 78.9424 151.976L82.2064 155.672C82.5424 155.144 82.8144 154.576 83.0224 153.968C83.2464 153.344 83.4304 152.704 83.5744 152.048H86.8624C86.6384 152.992 86.3104 153.952 85.8784 154.928C85.4464 155.888 84.9344 156.768 84.3424 157.568L87.7024 161H83.6224L82.1824 159.416C81.8464 159.688 81.5024 159.936 81.1504 160.16C80.7984 160.384 80.4224 160.576 80.0224 160.736C79.6224 160.896 79.1824 161.016 78.7024 161.096C78.2224 161.192 77.6864 161.24 77.0944 161.24C75.9264 161.24 74.9264 161.048 74.0944 160.664C73.2624 160.264 72.6224 159.704 72.1744 158.984C71.7424 158.264 71.5264 157.416 71.5264 156.44C71.5264 155.624 71.6544 154.92 71.9104 154.328C72.1664 153.736 72.5264 153.216 72.9904 152.768C73.4544 152.32 74.0144 151.904 74.6704 151.52C74.3504 151.072 74.0624 150.64 73.8064 150.224C73.5504 149.792 73.3504 149.36 73.2064 148.928C73.0784 148.48 73.0144 148 73.0144 147.488C73.0144 146.688 73.1984 146 73.5664 145.424C73.9344 144.832 74.4624 144.384 75.1504 144.08C75.8544 143.776 76.6864 143.624 77.6464 143.624ZM76.4944 153.344C76.1584 153.6 75.8624 153.872 75.6064 154.16C75.3504 154.432 75.1584 154.736 75.0304 155.072C74.9024 155.392 74.8384 155.768 74.8384 156.2C74.8384 156.952 75.0704 157.552 75.5344 158C75.9984 158.448 76.5984 158.672 77.3344 158.672C77.9744 158.672 78.5344 158.568 79.0144 158.36C79.4944 158.152 79.9024 157.888 80.2384 157.568L76.4944 153.344ZM77.5984 145.976C77.1504 145.976 76.7664 146.112 76.4464 146.384C76.1264 146.64 75.9664 147.056 75.9664 147.632C75.9664 148.096 76.0784 148.536 76.3024 148.952C76.5264 149.368 76.8224 149.808 77.1904 150.272C77.8464 149.84 78.3264 149.416 78.6304 149C78.9504 148.584 79.1104 148.104 79.1104 147.56C79.1104 147.048 78.9664 146.656 78.6784 146.384C78.3904 146.112 78.0304 145.976 77.5984 145.976ZM92.8832 161H89.7152V143.864H98.9552V146.432H92.8832V151.472H98.5472V154.04H92.8832V161ZM112.588 147.752C114.156 147.752 115.356 148.12 116.188 148.856C117.02 149.576 117.436 150.712 117.436 152.264V161H115.204L114.58 159.2H114.484C114.132 159.664 113.772 160.056 113.404 160.376C113.036 160.68 112.612 160.896 112.132 161.024C111.652 161.168 111.076 161.24 110.404 161.24C109.684 161.24 109.036 161.096 108.46 160.808C107.884 160.52 107.428 160.08 107.092 159.488C106.756 158.88 106.588 158.12 106.588 157.208C106.588 155.864 107.052 154.856 107.98 154.184C108.908 153.496 110.3 153.12 112.156 153.056L114.244 152.984V152.336C114.244 151.504 114.068 150.912 113.716 150.56C113.364 150.208 112.884 150.032 112.276 150.032C111.7 150.032 111.116 150.128 110.524 150.32C109.948 150.512 109.38 150.736 108.82 150.992L107.836 148.88C108.492 148.544 109.22 148.272 110.02 148.064C110.82 147.856 111.676 147.752 112.588 147.752ZM112.9 154.904C111.764 154.952 110.972 155.184 110.524 155.6C110.076 156 109.852 156.544 109.852 157.232C109.852 157.84 110.004 158.28 110.308 158.552C110.628 158.824 111.044 158.96 111.556 158.96C112.308 158.96 112.948 158.712 113.476 158.216C114.004 157.704 114.268 156.952 114.268 155.96V154.856L112.9 154.904ZM124.914 147.752C125.714 147.752 126.41 147.912 127.002 148.232C127.594 148.552 128.09 149.032 128.49 149.672H128.586L128.874 147.992H131.562V161.096C131.562 162.328 131.338 163.36 130.89 164.192C130.442 165.04 129.77 165.68 128.874 166.112C127.994 166.544 126.874 166.76 125.514 166.76C124.602 166.76 123.77 166.696 123.018 166.568C122.282 166.456 121.578 166.256 120.906 165.968V163.472C121.37 163.68 121.842 163.856 122.322 164C122.818 164.16 123.33 164.28 123.858 164.36C124.386 164.44 124.946 164.48 125.538 164.48C126.466 164.48 127.17 164.2 127.65 163.64C128.146 163.08 128.394 162.28 128.394 161.24V160.904C128.394 160.664 128.402 160.384 128.418 160.064C128.45 159.744 128.474 159.488 128.49 159.296H128.394C128.01 159.968 127.53 160.464 126.954 160.784C126.378 161.088 125.682 161.24 124.866 161.24C123.41 161.24 122.258 160.648 121.41 159.464C120.578 158.28 120.162 156.632 120.162 154.52C120.162 153.096 120.354 151.88 120.738 150.872C121.122 149.864 121.666 149.096 122.37 148.568C123.09 148.024 123.938 147.752 124.914 147.752ZM125.874 150.224C125.33 150.224 124.874 150.392 124.506 150.728C124.154 151.048 123.882 151.528 123.69 152.168C123.498 152.808 123.402 153.608 123.402 154.568C123.402 155.976 123.61 157.04 124.026 157.76C124.442 158.48 125.066 158.84 125.898 158.84C126.378 158.84 126.786 158.776 127.122 158.648C127.458 158.504 127.73 158.28 127.938 157.976C128.146 157.656 128.306 157.256 128.418 156.776C128.53 156.28 128.586 155.688 128.586 155V154.544C128.586 153.504 128.49 152.672 128.298 152.048C128.122 151.408 127.834 150.944 127.434 150.656C127.034 150.368 126.514 150.224 125.874 150.224ZM140.125 147.752C141.245 147.752 142.205 147.992 143.005 148.472C143.821 148.936 144.453 149.608 144.901 150.488C145.349 151.352 145.573 152.408 145.573 153.656V155.192H137.605C137.637 156.376 137.925 157.296 138.469 157.952C139.029 158.592 139.813 158.912 140.821 158.912C141.621 158.912 142.333 158.832 142.957 158.672C143.581 158.496 144.229 158.248 144.901 157.928V160.352C144.293 160.656 143.661 160.88 143.005 161.024C142.349 161.168 141.541 161.24 140.581 161.24C139.365 161.24 138.285 161 137.341 160.52C136.413 160.024 135.685 159.28 135.157 158.288C134.629 157.296 134.365 156.064 134.365 154.592C134.365 153.104 134.605 151.856 135.085 150.848C135.565 149.824 136.237 149.056 137.101 148.544C137.981 148.016 138.989 147.752 140.125 147.752ZM140.173 149.984C139.453 149.984 138.869 150.248 138.421 150.776C137.989 151.288 137.733 152.056 137.653 153.08H142.549C142.549 152.472 142.461 151.936 142.285 151.472C142.109 151.008 141.845 150.648 141.493 150.392C141.157 150.12 140.717 149.984 140.173 149.984ZM155.142 147.752C156.502 147.752 157.574 148.128 158.358 148.88C159.142 149.632 159.534 150.848 159.534 152.528V161H156.342V153.128C156.342 152.152 156.174 151.424 155.838 150.944C155.502 150.448 154.974 150.2 154.254 150.2C153.182 150.2 152.454 150.584 152.07 151.352C151.686 152.104 151.494 153.2 151.494 154.64V161H148.302V147.992H150.75L151.206 149.696H151.326C151.614 149.248 151.95 148.88 152.334 148.592C152.718 148.304 153.15 148.096 153.63 147.968C154.11 147.824 154.614 147.752 155.142 147.752ZM168.015 158.816C168.367 158.816 168.703 158.784 169.023 158.72C169.359 158.64 169.671 158.552 169.959 158.456V160.712C169.623 160.856 169.215 160.976 168.735 161.072C168.255 161.184 167.719 161.24 167.127 161.24C166.391 161.24 165.735 161.12 165.159 160.88C164.583 160.624 164.127 160.192 163.791 159.584C163.471 158.976 163.311 158.128 163.311 157.04V150.272H161.679V148.952L163.503 147.896L164.463 145.136H166.479V147.992H169.839V150.272H166.479V157.016C166.479 157.624 166.615 158.08 166.887 158.384C167.175 158.672 167.551 158.816 168.015 158.816ZM180.894 157.232C180.894 158.096 180.702 158.832 180.318 159.44C179.934 160.032 179.366 160.48 178.614 160.784C177.862 161.088 176.918 161.24 175.782 161.24C174.918 161.24 174.166 161.176 173.526 161.048C172.886 160.92 172.27 160.72 171.678 160.448V157.88C172.318 158.184 173.006 158.44 173.742 158.648C174.494 158.856 175.174 158.96 175.782 158.96C176.502 158.96 177.022 158.832 177.342 158.576C177.662 158.32 177.822 157.976 177.822 157.544C177.822 157.288 177.75 157.056 177.606 156.848C177.478 156.64 177.206 156.424 176.79 156.2C176.39 155.96 175.806 155.664 175.038 155.312C174.286 154.976 173.662 154.64 173.166 154.304C172.67 153.968 172.294 153.568 172.038 153.104C171.782 152.624 171.654 152.024 171.654 151.304C171.654 150.136 172.094 149.256 172.974 148.664C173.87 148.056 175.038 147.752 176.478 147.752C177.262 147.752 177.99 147.832 178.662 147.992C179.35 148.136 180.038 148.376 180.726 148.712L179.79 150.944C179.406 150.768 179.014 150.616 178.614 150.488C178.23 150.344 177.854 150.232 177.486 150.152C177.134 150.072 176.782 150.032 176.43 150.032C175.87 150.032 175.446 150.136 175.158 150.344C174.87 150.536 174.726 150.816 174.726 151.184C174.726 151.44 174.798 151.672 174.942 151.88C175.086 152.072 175.358 152.272 175.758 152.48C176.158 152.688 176.726 152.952 177.462 153.272C178.198 153.56 178.822 153.872 179.334 154.208C179.846 154.528 180.23 154.928 180.486 155.408C180.758 155.888 180.894 156.496 180.894 157.232Z" fill="black"/>
<path d="M667.78 153.264C667.78 155.184 667.436 156.792 666.748 158.088C666.076 159.384 665.1 160.36 663.82 161.016C662.54 161.672 661.004 162 659.212 162H654.508V144.864H659.692C661.356 144.864 662.796 145.184 664.012 145.824C665.228 146.464 666.156 147.408 666.796 148.656C667.452 149.888 667.78 151.424 667.78 153.264ZM664.42 153.36C664.42 152 664.236 150.88 663.868 150C663.516 149.12 662.98 148.472 662.26 148.056C661.556 147.624 660.684 147.408 659.644 147.408H657.724V159.432H659.284C661.012 159.432 662.3 158.928 663.148 157.92C663.996 156.896 664.42 155.376 664.42 153.36ZM674.006 148.992V162H670.838V148.992H674.006ZM672.446 143.976C672.91 143.976 673.31 144.096 673.646 144.336C673.982 144.56 674.15 144.968 674.15 145.56C674.15 146.136 673.982 146.552 673.646 146.808C673.31 147.048 672.91 147.168 672.446 147.168C671.95 147.168 671.534 147.048 671.198 146.808C670.862 146.552 670.694 146.136 670.694 145.56C670.694 144.968 670.862 144.56 671.198 144.336C671.534 144.096 671.95 143.976 672.446 143.976ZM686.038 158.232C686.038 159.096 685.846 159.832 685.462 160.44C685.078 161.032 684.51 161.48 683.758 161.784C683.006 162.088 682.062 162.24 680.926 162.24C680.062 162.24 679.31 162.176 678.67 162.048C678.03 161.92 677.414 161.72 676.822 161.448V158.88C677.462 159.184 678.15 159.44 678.886 159.648C679.638 159.856 680.318 159.96 680.926 159.96C681.646 159.96 682.166 159.832 682.486 159.576C682.806 159.32 682.966 158.976 682.966 158.544C682.966 158.288 682.894 158.056 682.75 157.848C682.622 157.64 682.35 157.424 681.934 157.2C681.534 156.96 680.95 156.664 680.182 156.312C679.43 155.976 678.806 155.64 678.31 155.304C677.814 154.968 677.438 154.568 677.182 154.104C676.926 153.624 676.798 153.024 676.798 152.304C676.798 151.136 677.238 150.256 678.118 149.664C679.014 149.056 680.182 148.752 681.622 148.752C682.406 148.752 683.134 148.832 683.806 148.992C684.494 149.136 685.182 149.376 685.87 149.712L684.934 151.944C684.55 151.768 684.158 151.616 683.758 151.488C683.374 151.344 682.998 151.232 682.63 151.152C682.278 151.072 681.926 151.032 681.574 151.032C681.014 151.032 680.59 151.136 680.302 151.344C680.014 151.536 679.87 151.816 679.87 152.184C679.87 152.44 679.942 152.672 680.086 152.88C680.23 153.072 680.502 153.272 680.902 153.48C681.302 153.688 681.87 153.952 682.606 154.272C683.342 154.56 683.966 154.872 684.478 155.208C684.99 155.528 685.374 155.928 685.63 156.408C685.902 156.888 686.038 157.496 686.038 158.232ZM693.785 159.816C694.137 159.816 694.473 159.784 694.793 159.72C695.129 159.64 695.441 159.552 695.729 159.456V161.712C695.393 161.856 694.985 161.976 694.505 162.072C694.025 162.184 693.489 162.24 692.897 162.24C692.161 162.24 691.505 162.12 690.929 161.88C690.353 161.624 689.897 161.192 689.561 160.584C689.241 159.976 689.081 159.128 689.081 158.04V151.272H687.449V149.952L689.273 148.896L690.233 146.136H692.249V148.992H695.609V151.272H692.249V158.016C692.249 158.624 692.385 159.08 692.657 159.384C692.945 159.672 693.321 159.816 693.785 159.816ZM704.743 148.752C704.967 148.752 705.199 148.76 705.439 148.776C705.679 148.792 705.879 148.824 706.039 148.872L705.751 151.68C705.591 151.648 705.399 151.624 705.175 151.608C704.967 151.576 704.743 151.56 704.503 151.56C704.103 151.56 703.711 151.64 703.327 151.8C702.943 151.944 702.599 152.168 702.295 152.472C701.991 152.76 701.743 153.136 701.551 153.6C701.375 154.064 701.287 154.616 701.287 155.256V162H698.095V148.992H700.543L700.975 151.248H701.143C701.383 150.784 701.679 150.368 702.031 150C702.399 149.616 702.807 149.312 703.255 149.088C703.719 148.864 704.215 148.752 704.743 148.752ZM711.318 148.992V162H708.15V148.992H711.318ZM709.758 143.976C710.222 143.976 710.622 144.096 710.958 144.336C711.294 144.56 711.462 144.968 711.462 145.56C711.462 146.136 711.294 146.552 710.958 146.808C710.622 147.048 710.222 147.168 709.758 147.168C709.262 147.168 708.846 147.048 708.51 146.808C708.174 146.552 708.006 146.136 708.006 145.56C708.006 144.968 708.174 144.56 708.51 144.336C708.846 144.096 709.262 143.976 709.758 143.976ZM717.951 148.08C717.951 148.592 717.935 149.088 717.903 149.568C717.887 150.048 717.863 150.424 717.831 150.696H717.951C718.287 150.152 718.735 149.696 719.295 149.328C719.855 148.944 720.591 148.752 721.503 148.752C722.879 148.752 723.999 149.32 724.863 150.456C725.743 151.592 726.183 153.264 726.183 155.472C726.183 156.96 725.983 158.208 725.583 159.216C725.199 160.224 724.647 160.984 723.927 161.496C723.207 161.992 722.367 162.24 721.407 162.24C720.511 162.24 719.791 162.064 719.247 161.712C718.719 161.36 718.287 160.952 717.951 160.488H717.735L717.207 162H714.783V143.76H717.951V148.08ZM720.495 151.2C719.887 151.2 719.399 151.344 719.031 151.632C718.663 151.92 718.391 152.36 718.215 152.952C718.055 153.544 717.975 154.296 717.975 155.208V155.472C717.975 156.864 718.159 157.928 718.527 158.664C718.895 159.4 719.575 159.768 720.567 159.768C721.335 159.768 721.919 159.4 722.319 158.664C722.735 157.912 722.943 156.84 722.943 155.448C722.943 154.04 722.735 152.984 722.319 152.28C721.919 151.56 721.311 151.2 720.495 151.2ZM740.122 148.992V162H737.674L737.266 160.32H737.098C736.842 160.768 736.514 161.136 736.114 161.424C735.714 161.696 735.274 161.896 734.794 162.024C734.314 162.168 733.818 162.24 733.306 162.24C732.41 162.24 731.634 162.072 730.978 161.736C730.322 161.4 729.81 160.888 729.442 160.2C729.09 159.496 728.914 158.592 728.914 157.488V148.992H732.106V156.888C732.106 157.848 732.266 158.576 732.586 159.072C732.922 159.552 733.45 159.792 734.17 159.792C734.89 159.792 735.45 159.624 735.85 159.288C736.266 158.936 736.554 158.432 736.714 157.776C736.874 157.12 736.954 156.312 736.954 155.352V148.992H740.122ZM748.699 159.816C749.051 159.816 749.387 159.784 749.707 159.72C750.043 159.64 750.355 159.552 750.643 159.456V161.712C750.307 161.856 749.899 161.976 749.419 162.072C748.939 162.184 748.403 162.24 747.811 162.24C747.075 162.24 746.419 162.12 745.843 161.88C745.267 161.624 744.811 161.192 744.475 160.584C744.155 159.976 743.995 159.128 743.995 158.04V151.272H742.363V149.952L744.187 148.896L745.147 146.136H747.163V148.992H750.523V151.272H747.163V158.016C747.163 158.624 747.299 159.08 747.571 159.384C747.859 159.672 748.235 159.816 748.699 159.816ZM764.193 155.472C764.193 156.56 764.057 157.52 763.785 158.352C763.513 159.184 763.113 159.896 762.585 160.488C762.073 161.064 761.449 161.504 760.713 161.808C759.977 162.096 759.153 162.24 758.241 162.24C757.393 162.24 756.601 162.096 755.865 161.808C755.145 161.504 754.521 161.064 753.993 160.488C753.481 159.896 753.081 159.184 752.793 158.352C752.505 157.52 752.361 156.56 752.361 155.472C752.361 154.032 752.593 152.816 753.057 151.824C753.537 150.816 754.225 150.056 755.121 149.544C756.017 149.016 757.081 148.752 758.313 148.752C759.465 148.752 760.481 149.016 761.361 149.544C762.241 150.056 762.929 150.816 763.425 151.824C763.937 152.816 764.193 154.032 764.193 155.472ZM755.601 155.472C755.601 156.384 755.697 157.168 755.889 157.824C756.081 158.464 756.369 158.952 756.753 159.288C757.153 159.624 757.665 159.792 758.289 159.792C758.913 159.792 759.417 159.624 759.801 159.288C760.201 158.952 760.489 158.464 760.665 157.824C760.857 157.168 760.953 156.384 760.953 155.472C760.953 154.544 760.857 153.768 760.665 153.144C760.473 152.504 760.177 152.024 759.777 151.704C759.393 151.368 758.889 151.2 758.265 151.2C757.321 151.2 756.641 151.568 756.225 152.304C755.809 153.04 755.601 154.096 755.601 155.472ZM773.626 148.752C773.85 148.752 774.082 148.76 774.322 148.776C774.562 148.792 774.762 148.824 774.922 148.872L774.634 151.68C774.474 151.648 774.282 151.624 774.058 151.608C773.85 151.576 773.626 151.56 773.386 151.56C772.986 151.56 772.594 151.64 772.21 151.8C771.826 151.944 771.482 152.168 771.178 152.472C770.874 152.76 770.626 153.136 770.434 153.6C770.258 154.064 770.17 154.616 770.17 155.256V162H766.978V148.992H769.426L769.858 151.248H770.026C770.266 150.784 770.562 150.368 770.914 150C771.282 149.616 771.69 149.312 772.138 149.088C772.602 148.864 773.098 148.752 773.626 148.752ZM785.577 158.232C785.577 159.096 785.385 159.832 785.001 160.44C784.617 161.032 784.049 161.48 783.297 161.784C782.545 162.088 781.601 162.24 780.465 162.24C779.601 162.24 778.849 162.176 778.209 162.048C777.569 161.92 776.953 161.72 776.361 161.448V158.88C777.001 159.184 777.689 159.44 778.425 159.648C779.177 159.856 779.857 159.96 780.465 159.96C781.185 159.96 781.705 159.832 782.025 159.576C782.345 159.32 782.505 158.976 782.505 158.544C782.505 158.288 782.433 158.056 782.289 157.848C782.161 157.64 781.889 157.424 781.473 157.2C781.073 156.96 780.489 156.664 779.721 156.312C778.969 155.976 778.345 155.64 777.849 155.304C777.353 154.968 776.977 154.568 776.721 154.104C776.465 153.624 776.337 153.024 776.337 152.304C776.337 151.136 776.777 150.256 777.657 149.664C778.553 149.056 779.721 148.752 781.161 148.752C781.945 148.752 782.673 148.832 783.345 148.992C784.033 149.136 784.721 149.376 785.409 149.712L784.473 151.944C784.089 151.768 783.697 151.616 783.297 151.488C782.913 151.344 782.537 151.232 782.169 151.152C781.817 151.072 781.465 151.032 781.113 151.032C780.553 151.032 780.129 151.136 779.841 151.344C779.553 151.536 779.409 151.816 779.409 152.184C779.409 152.44 779.481 152.672 779.625 152.88C779.769 153.072 780.041 153.272 780.441 153.48C780.841 153.688 781.409 153.952 782.145 154.272C782.881 154.56 783.505 154.872 784.017 155.208C784.529 155.528 784.913 155.928 785.169 156.408C785.441 156.888 785.577 157.496 785.577 158.232Z" fill="black"/>
<path d="M700.944 478.864C702.368 478.864 703.544 479.048 704.472 479.416C705.4 479.784 706.088 480.344 706.536 481.096C706.984 481.832 707.208 482.768 707.208 483.904C707.208 484.736 707.072 485.448 706.8 486.04C706.528 486.632 706.16 487.128 705.696 487.528C705.248 487.912 704.76 488.224 704.232 488.464L708.84 496H705.192L701.472 489.232H699.384V496H696.168V478.864H700.944ZM700.8 481.432H699.384V486.712H700.848C701.536 486.712 702.104 486.608 702.552 486.4C703.016 486.192 703.36 485.888 703.584 485.488C703.824 485.088 703.944 484.592 703.944 484C703.944 483.376 703.832 482.88 703.608 482.512C703.384 482.128 703.04 481.856 702.576 481.696C702.112 481.52 701.52 481.432 700.8 481.432ZM715.711 482.752C716.831 482.752 717.791 482.992 718.591 483.472C719.407 483.936 720.039 484.608 720.487 485.488C720.935 486.352 721.159 487.408 721.159 488.656V490.192H713.191C713.223 491.376 713.511 492.296 714.055 492.952C714.615 493.592 715.399 493.912 716.407 493.912C717.207 493.912 717.919 493.832 718.543 493.672C719.167 493.496 719.815 493.248 720.487 492.928V495.352C719.879 495.656 719.247 495.88 718.591 496.024C717.935 496.168 717.127 496.24 716.167 496.24C714.951 496.24 713.871 496 712.927 495.52C711.999 495.024 711.271 494.28 710.743 493.288C710.215 492.296 709.951 491.064 709.951 489.592C709.951 488.104 710.191 486.856 710.671 485.848C711.151 484.824 711.823 484.056 712.687 483.544C713.567 483.016 714.575 482.752 715.711 482.752ZM715.759 484.984C715.039 484.984 714.455 485.248 714.007 485.776C713.575 486.288 713.319 487.056 713.239 488.08H718.135C718.135 487.472 718.047 486.936 717.871 486.472C717.695 486.008 717.431 485.648 717.079 485.392C716.743 485.12 716.303 484.984 715.759 484.984ZM728.976 493.816C729.328 493.816 729.664 493.784 729.984 493.72C730.32 493.64 730.632 493.552 730.92 493.456V495.712C730.584 495.856 730.176 495.976 729.696 496.072C729.216 496.184 728.68 496.24 728.088 496.24C727.352 496.24 726.696 496.12 726.12 495.88C725.544 495.624 725.088 495.192 724.752 494.584C724.432 493.976 724.272 493.128 724.272 492.04V485.272H722.64V483.952L724.464 482.896L725.424 480.136H727.44V482.992H730.8V485.272H727.44V492.016C727.44 492.624 727.576 493.08 727.848 493.384C728.136 493.672 728.512 493.816 728.976 493.816ZM738.495 482.752C740.063 482.752 741.263 483.12 742.095 483.856C742.927 484.576 743.343 485.712 743.343 487.264V496H741.111L740.487 494.2H740.391C740.039 494.664 739.679 495.056 739.311 495.376C738.943 495.68 738.519 495.896 738.039 496.024C737.559 496.168 736.983 496.24 736.311 496.24C735.591 496.24 734.943 496.096 734.367 495.808C733.791 495.52 733.335 495.08 732.999 494.488C732.663 493.88 732.495 493.12 732.495 492.208C732.495 490.864 732.959 489.856 733.887 489.184C734.815 488.496 736.207 488.12 738.063 488.056L740.151 487.984V487.336C740.151 486.504 739.975 485.912 739.623 485.56C739.271 485.208 738.791 485.032 738.183 485.032C737.607 485.032 737.023 485.128 736.431 485.32C735.855 485.512 735.287 485.736 734.727 485.992L733.743 483.88C734.399 483.544 735.127 483.272 735.927 483.064C736.727 482.856 737.583 482.752 738.495 482.752ZM738.807 489.904C737.671 489.952 736.879 490.184 736.431 490.6C735.983 491 735.759 491.544 735.759 492.232C735.759 492.84 735.911 493.28 736.215 493.552C736.535 493.824 736.951 493.96 737.463 493.96C738.215 493.96 738.855 493.712 739.383 493.216C739.911 492.704 740.175 491.952 740.175 490.96V489.856L738.807 489.904ZM749.908 482.992V496H746.74V482.992H749.908ZM748.348 477.976C748.812 477.976 749.212 478.096 749.548 478.336C749.884 478.56 750.052 478.968 750.052 479.56C750.052 480.136 749.884 480.552 749.548 480.808C749.212 481.048 748.812 481.168 748.348 481.168C747.852 481.168 747.436 481.048 747.1 480.808C746.764 480.552 746.596 480.136 746.596 479.56C746.596 478.968 746.764 478.56 747.1 478.336C747.436 478.096 747.852 477.976 748.348 477.976ZM756.565 496H753.373V477.76H756.565V496ZM765.141 482.752C766.261 482.752 767.221 482.992 768.021 483.472C768.837 483.936 769.469 484.608 769.917 485.488C770.365 486.352 770.589 487.408 770.589 488.656V490.192H762.621C762.653 491.376 762.941 492.296 763.485 492.952C764.045 493.592 764.829 493.912 765.837 493.912C766.637 493.912 767.349 493.832 767.973 493.672C768.597 493.496 769.245 493.248 769.917 492.928V495.352C769.309 495.656 768.677 495.88 768.021 496.024C767.365 496.168 766.557 496.24 765.597 496.24C764.381 496.24 763.301 496 762.357 495.52C761.429 495.024 760.701 494.28 760.173 493.288C759.645 492.296 759.381 491.064 759.381 489.592C759.381 488.104 759.621 486.856 760.101 485.848C760.581 484.824 761.253 484.056 762.117 483.544C762.997 483.016 764.005 482.752 765.141 482.752ZM765.189 484.984C764.469 484.984 763.885 485.248 763.437 485.776C763.005 486.288 762.749 487.056 762.669 488.08H767.565C767.565 487.472 767.477 486.936 767.301 486.472C767.125 486.008 766.861 485.648 766.509 485.392C766.173 485.12 765.733 484.984 765.189 484.984ZM779.966 482.752C780.19 482.752 780.422 482.76 780.662 482.776C780.902 482.792 781.102 482.824 781.262 482.872L780.974 485.68C780.814 485.648 780.622 485.624 780.398 485.608C780.19 485.576 779.966 485.56 779.726 485.56C779.326 485.56 778.934 485.64 778.55 485.8C778.166 485.944 777.822 486.168 777.518 486.472C777.214 486.76 776.966 487.136 776.774 487.6C776.598 488.064 776.51 488.616 776.51 489.256V496H773.318V482.992H775.766L776.198 485.248H776.366C776.606 484.784 776.902 484.368 777.254 484C777.622 483.616 778.03 483.312 778.478 483.088C778.942 482.864 779.438 482.752 779.966 482.752ZM791.917 492.232C791.917 493.096 791.725 493.832 791.341 494.44C790.957 495.032 790.389 495.48 789.637 495.784C788.885 496.088 787.941 496.24 786.805 496.24C785.941 496.24 785.189 496.176 784.549 496.048C783.909 495.92 783.293 495.72 782.701 495.448V492.88C783.341 493.184 784.029 493.44 784.765 493.648C785.517 493.856 786.197 493.96 786.805 493.96C787.525 493.96 788.045 493.832 788.365 493.576C788.685 493.32 788.845 492.976 788.845 492.544C788.845 492.288 788.773 492.056 788.629 491.848C788.501 491.64 788.229 491.424 787.813 491.2C787.413 490.96 786.829 490.664 786.061 490.312C785.309 489.976 784.685 489.64 784.189 489.304C783.693 488.968 783.317 488.568 783.061 488.104C782.805 487.624 782.677 487.024 782.677 486.304C782.677 485.136 783.117 484.256 783.997 483.664C784.893 483.056 786.061 482.752 787.501 482.752C788.285 482.752 789.013 482.832 789.685 482.992C790.373 483.136 791.061 483.376 791.749 483.712L790.813 485.944C790.429 485.768 790.037 485.616 789.637 485.488C789.253 485.344 788.877 485.232 788.509 485.152C788.157 485.072 787.805 485.032 787.453 485.032C786.893 485.032 786.469 485.136 786.181 485.344C785.893 485.536 785.749 485.816 785.749 486.184C785.749 486.44 785.821 486.672 785.965 486.88C786.109 487.072 786.381 487.272 786.781 487.48C787.181 487.688 787.749 487.952 788.485 488.272C789.221 488.56 789.845 488.872 790.357 489.208C790.869 489.528 791.253 489.928 791.509 490.408C791.781 490.888 791.917 491.496 791.917 492.232Z" fill="black"/>
<rect x="3.5" y="463.5" width="206" height="47" rx="23.5" fill="white" stroke="#542CF2" stroke-width="3"/>
<path d="M33.1948 495L29.0188 480.96H28.9228C28.9388 481.28 28.9628 481.736 28.9948 482.328C29.0268 482.904 29.0508 483.536 29.0668 484.224C29.0988 484.896 29.1148 485.528 29.1148 486.12V495H26.2348V477.864H30.6508L34.7308 491.328H34.8028L38.9548 477.864H43.3948V495H40.3708V485.976C40.3708 485.432 40.3788 484.84 40.3948 484.2C40.4108 483.544 40.4348 482.928 40.4668 482.352C40.4988 481.76 40.5228 481.304 40.5388 480.984H40.4428L36.1468 495H33.1948ZM52.3423 481.752C53.9103 481.752 55.1103 482.12 55.9423 482.856C56.7743 483.576 57.1903 484.712 57.1903 486.264V495H54.9583L54.3343 493.2H54.2383C53.8863 493.664 53.5263 494.056 53.1583 494.376C52.7903 494.68 52.3663 494.896 51.8863 495.024C51.4063 495.168 50.8303 495.24 50.1583 495.24C49.4383 495.24 48.7903 495.096 48.2143 494.808C47.6383 494.52 47.1823 494.08 46.8463 493.488C46.5103 492.88 46.3423 492.12 46.3423 491.208C46.3423 489.864 46.8063 488.856 47.7343 488.184C48.6623 487.496 50.0543 487.12 51.9103 487.056L53.9983 486.984V486.336C53.9983 485.504 53.8223 484.912 53.4703 484.56C53.1183 484.208 52.6383 484.032 52.0303 484.032C51.4543 484.032 50.8703 484.128 50.2783 484.32C49.7023 484.512 49.1343 484.736 48.5742 484.992L47.5903 482.88C48.2463 482.544 48.9743 482.272 49.7743 482.064C50.5743 481.856 51.4303 481.752 52.3423 481.752ZM52.6543 488.904C51.5183 488.952 50.7263 489.184 50.2783 489.6C49.8303 490 49.6063 490.544 49.6063 491.232C49.6063 491.84 49.7583 492.28 50.0623 492.552C50.3823 492.824 50.7983 492.96 51.3103 492.96C52.0623 492.96 52.7023 492.712 53.2303 492.216C53.7583 491.704 54.0223 490.952 54.0223 489.96V488.856L52.6543 488.904ZM67.4039 481.752C68.7639 481.752 69.8359 482.128 70.6199 482.88C71.4039 483.632 71.7959 484.848 71.7959 486.528V495H68.6039V487.128C68.6039 486.152 68.4359 485.424 68.0999 484.944C67.7639 484.448 67.2359 484.2 66.5159 484.2C65.4439 484.2 64.7159 484.584 64.3319 485.352C63.9479 486.104 63.7559 487.2 63.7559 488.64V495H60.5639V481.992H63.0119L63.4679 483.696H63.5879C63.8759 483.248 64.2119 482.88 64.5959 482.592C64.9799 482.304 65.4119 482.096 65.8919 481.968C66.3719 481.824 66.8759 481.752 67.4039 481.752ZM86.3249 481.992V495H83.8769L83.4689 493.32H83.3009C83.0449 493.768 82.7169 494.136 82.3169 494.424C81.9169 494.696 81.4769 494.896 80.9969 495.024C80.5169 495.168 80.0209 495.24 79.5089 495.24C78.6129 495.24 77.8369 495.072 77.1809 494.736C76.5249 494.4 76.0129 493.888 75.6449 493.2C75.2929 492.496 75.1169 491.592 75.1169 490.488V481.992H78.3089V489.888C78.3089 490.848 78.4689 491.576 78.7889 492.072C79.1249 492.552 79.6529 492.792 80.3729 492.792C81.0929 492.792 81.6529 492.624 82.0529 492.288C82.4689 491.936 82.7569 491.432 82.9169 490.776C83.0769 490.12 83.1569 489.312 83.1569 488.352V481.992H86.3249ZM96.4619 484.272H93.5819V495H90.3899V484.272H88.5179V482.832L90.4139 481.968V481.08C90.4139 479.96 90.5739 479.08 90.8939 478.44C91.2139 477.8 91.6859 477.344 92.3099 477.072C92.9339 476.784 93.6939 476.64 94.5899 476.64C95.1819 476.64 95.7179 476.696 96.1979 476.808C96.6939 476.904 97.1339 477.016 97.5179 477.144L96.7499 479.4C96.5099 479.32 96.2379 479.248 95.9339 479.184C95.6459 479.104 95.3419 479.064 95.0219 479.064C94.5259 479.064 94.1579 479.248 93.9179 479.616C93.6939 479.984 93.5819 480.496 93.5819 481.152V481.992H96.4619V484.272ZM103.6 481.752C105.168 481.752 106.368 482.12 107.2 482.856C108.032 483.576 108.448 484.712 108.448 486.264V495H106.216L105.592 493.2H105.496C105.144 493.664 104.784 494.056 104.416 494.376C104.048 494.68 103.624 494.896 103.144 495.024C102.664 495.168 102.088 495.24 101.416 495.24C100.696 495.24 100.048 495.096 99.4721 494.808C98.8961 494.52 98.4401 494.08 98.1041 493.488C97.7681 492.88 97.6001 492.12 97.6001 491.208C97.6001 489.864 98.0641 488.856 98.9921 488.184C99.9201 487.496 101.312 487.12 103.168 487.056L105.256 486.984V486.336C105.256 485.504 105.08 484.912 104.728 484.56C104.376 484.208 103.896 484.032 103.288 484.032C102.712 484.032 102.128 484.128 101.536 484.32C100.96 484.512 100.392 484.736 99.8321 484.992L98.8481 482.88C99.5041 482.544 100.232 482.272 101.032 482.064C101.832 481.856 102.688 481.752 103.6 481.752ZM103.912 488.904C102.776 488.952 101.984 489.184 101.536 489.6C101.088 490 100.864 490.544 100.864 491.232C100.864 491.84 101.016 492.28 101.32 492.552C101.64 492.824 102.056 492.96 102.568 492.96C103.32 492.96 103.96 492.712 104.488 492.216C105.016 491.704 105.28 490.952 105.28 489.96V488.856L103.912 488.904ZM117.006 495.24C115.806 495.24 114.766 495.008 113.886 494.544C113.022 494.064 112.35 493.336 111.87 492.36C111.406 491.368 111.174 490.104 111.174 488.568C111.174 486.968 111.43 485.672 111.942 484.68C112.47 483.672 113.19 482.936 114.102 482.472C115.03 481.992 116.078 481.752 117.246 481.752C117.982 481.752 118.67 481.832 119.31 481.992C119.966 482.152 120.51 482.344 120.942 482.568L119.982 484.896C119.55 484.72 119.118 484.568 118.686 484.44C118.254 484.312 117.822 484.248 117.39 484.248C116.734 484.248 116.19 484.408 115.758 484.728C115.326 485.048 114.99 485.528 114.75 486.168C114.526 486.792 114.414 487.584 114.414 488.544C114.414 489.472 114.526 490.248 114.75 490.872C114.99 491.496 115.326 491.968 115.758 492.288C116.19 492.592 116.718 492.744 117.342 492.744C117.966 492.744 118.542 492.656 119.07 492.48C119.614 492.304 120.126 492.064 120.606 491.76V494.376C120.11 494.68 119.582 494.896 119.022 495.024C118.462 495.168 117.79 495.24 117.006 495.24ZM128.441 492.816C128.793 492.816 129.129 492.784 129.449 492.72C129.785 492.64 130.097 492.552 130.385 492.456V494.712C130.049 494.856 129.641 494.976 129.161 495.072C128.681 495.184 128.145 495.24 127.553 495.24C126.817 495.24 126.161 495.12 125.585 494.88C125.009 494.624 124.553 494.192 124.217 493.584C123.897 492.976 123.737 492.128 123.737 491.04V484.272H122.105V482.952L123.929 481.896L124.889 479.136H126.905V481.992H130.265V484.272H126.905V491.016C126.905 491.624 127.041 492.08 127.313 492.384C127.601 492.672 127.977 492.816 128.441 492.816ZM143.887 481.992V495H141.439L141.031 493.32H140.863C140.607 493.768 140.279 494.136 139.879 494.424C139.479 494.696 139.039 494.896 138.559 495.024C138.079 495.168 137.583 495.24 137.071 495.24C136.175 495.24 135.399 495.072 134.743 494.736C134.087 494.4 133.575 493.888 133.207 493.2C132.855 492.496 132.679 491.592 132.679 490.488V481.992H135.871V489.888C135.871 490.848 136.031 491.576 136.351 492.072C136.687 492.552 137.215 492.792 137.935 492.792C138.655 492.792 139.215 492.624 139.615 492.288C140.031 491.936 140.319 491.432 140.479 490.776C140.639 490.12 140.719 489.312 140.719 488.352V481.992H143.887ZM154.024 481.752C154.248 481.752 154.48 481.76 154.72 481.776C154.96 481.792 155.16 481.824 155.32 481.872L155.032 484.68C154.872 484.648 154.68 484.624 154.456 484.608C154.248 484.576 154.024 484.56 153.784 484.56C153.384 484.56 152.992 484.64 152.608 484.8C152.224 484.944 151.88 485.168 151.576 485.472C151.272 485.76 151.024 486.136 150.832 486.6C150.656 487.064 150.568 487.616 150.568 488.256V495H147.376V481.992H149.824L150.256 484.248H150.424C150.664 483.784 150.96 483.368 151.312 483C151.68 482.616 152.088 482.312 152.536 482.088C153 481.864 153.496 481.752 154.024 481.752ZM162.074 481.752C163.194 481.752 164.154 481.992 164.954 482.472C165.77 482.936 166.402 483.608 166.85 484.488C167.298 485.352 167.522 486.408 167.522 487.656V489.192H159.554C159.586 490.376 159.874 491.296 160.418 491.952C160.978 492.592 161.762 492.912 162.77 492.912C163.57 492.912 164.282 492.832 164.906 492.672C165.53 492.496 166.178 492.248 166.85 491.928V494.352C166.242 494.656 165.61 494.88 164.954 495.024C164.298 495.168 163.49 495.24 162.53 495.24C161.314 495.24 160.234 495 159.29 494.52C158.362 494.024 157.634 493.28 157.106 492.288C156.578 491.296 156.314 490.064 156.314 488.592C156.314 487.104 156.554 485.856 157.034 484.848C157.514 483.824 158.186 483.056 159.05 482.544C159.93 482.016 160.938 481.752 162.074 481.752ZM162.122 483.984C161.402 483.984 160.818 484.248 160.37 484.776C159.938 485.288 159.682 486.056 159.602 487.08H164.498C164.498 486.472 164.41 485.936 164.234 485.472C164.058 485.008 163.794 484.648 163.442 484.392C163.106 484.12 162.666 483.984 162.122 483.984ZM176.899 481.752C177.123 481.752 177.355 481.76 177.595 481.776C177.835 481.792 178.035 481.824 178.195 481.872L177.907 484.68C177.747 484.648 177.555 484.624 177.331 484.608C177.123 484.576 176.899 484.56 176.659 484.56C176.259 484.56 175.867 484.64 175.483 484.8C175.099 484.944 174.755 485.168 174.451 485.472C174.147 485.76 173.899 486.136 173.707 486.6C173.531 487.064 173.443 487.616 173.443 488.256V495H170.251V481.992H172.699L173.131 484.248H173.299C173.539 483.784 173.835 483.368 174.187 483C174.555 482.616 174.963 482.312 175.411 482.088C175.875 481.864 176.371 481.752 176.899 481.752ZM188.851 491.232C188.851 492.096 188.659 492.832 188.275 493.44C187.891 494.032 187.323 494.48 186.571 494.784C185.819 495.088 184.875 495.24 183.739 495.24C182.875 495.24 182.123 495.176 181.483 495.048C180.843 494.92 180.227 494.72 179.635 494.448V491.88C180.275 492.184 180.963 492.44 181.699 492.648C182.451 492.856 183.131 492.96 183.739 492.96C184.459 492.96 184.979 492.832 185.299 492.576C185.619 492.32 185.779 491.976 185.779 491.544C185.779 491.288 185.707 491.056 185.563 490.848C185.435 490.64 185.163 490.424 184.747 490.2C184.347 489.96 183.763 489.664 182.995 489.312C182.243 488.976 181.619 488.64 181.123 488.304C180.627 487.968 180.251 487.568 179.995 487.104C179.739 486.624 179.611 486.024 179.611 485.304C179.611 484.136 180.051 483.256 180.931 482.664C181.827 482.056 182.995 481.752 184.435 481.752C185.219 481.752 185.947 481.832 186.619 481.992C187.307 482.136 187.995 482.376 188.683 482.712L187.747 484.944C187.363 484.768 186.971 484.616 186.571 484.488C186.187 484.344 185.811 484.232 185.443 484.152C185.091 484.072 184.739 484.032 184.387 484.032C183.827 484.032 183.403 484.136 183.115 484.344C182.827 484.536 182.683 484.816 182.683 485.184C182.683 485.44 182.755 485.672 182.899 485.88C183.043 486.072 183.315 486.272 183.715 486.48C184.115 486.688 184.683 486.952 185.419 487.272C186.155 487.56 186.779 487.872 187.291 488.208C187.803 488.528 188.187 488.928 188.443 489.408C188.715 489.888 188.851 490.496 188.851 491.232Z" fill="black"/>
<defs>
<linearGradient id="paint0_linear_503_16" x1="421" y1="80.1667" x2="421" y2="581.833" gradientUnits="userSpaceOnUse">
<stop stop-color="#9D8BE3"/>
<stop offset="0.32" stop-color="#7A67C7"/>
<stop offset="0.635" stop-color="#5843AC"/>
<stop offset="1" stop-color="#31198C"/>
</linearGradient>
<clipPath id="clip0_503_16">
<rect width="60" height="61" fill="white" transform="translate(172 300)"/>
</clipPath>
<clipPath id="clip1_503_16">
<rect width="55" height="59" fill="white" transform="translate(0 301)"/>
</clipPath>
<clipPath id="clip2_503_16">
<rect width="53" height="56" fill="white" transform="translate(686 306)"/>
</clipPath>
</defs>
</svg>
